<?xml version="1.0" encoding="utf-8" standalone="no"?>
<!DOCTYPE svg PUBLIC "-//W3C//DTD SVG 1.1//EN"
  "http://www.w3.org/Graphics/SVG/1.1/DTD/svg11.dtd">
<svg height="288pt" version="1.1" viewBox="0 0 432 288" width="432pt" xmlns="http://www.w3.org/2000/svg" xmlns:xlink="http://www.w3.org/1999/xlink">
 <metadata>
  <rdf:RDF xmlns:cc="http://creativecommons.org/ns#" xmlns:dc="http://purl.org/dc/elements/1.1/" xmlns:rdf="http://www.w3.org/1999/02/22-rdf-syntax-ns#">
   <cc:Work>
    <dc:type rdf:resource="http://purl.org/dc/dcmitype/StillImage"/>
    <dc:date>2021-05-08T21:00:15.574620</dc:date>
    <dc:format>image/svg+xml</dc:format>
    <dc:creator>
     <cc:Agent>
      <dc:title>Matplotlib v3.4.2, https://matplotlib.org/</dc:title>
     </cc:Agent>
    </dc:creator>
   </cc:Work>
  </rdf:RDF>
 </metadata>
 <defs>
  <style type="text/css">*{stroke-linecap:butt;stroke-linejoin:round;}</style>
 </defs>
 <g id="figure_1">
  <g id="patch_1">
   <path d="M 0 288 
L 432 288 
L 432 0 
L 0 0 
z
" style="fill:#ffffff;"/>
  </g>
  <g id="axes_1">
   <g id="patch_2">
    <path d="M 66.62 246.04 
L 421.2 246.04 
L 421.2 10.8 
L 66.62 10.8 
z
" style="fill:#ffffff;"/>
   </g>
   <g id="matplotlib.axis_1">
    <g id="xtick_1">
     <g id="line2d_1">
      <defs>
       <path d="M 0 0 
L 0 3.5 
" id="me81c18fab5" style="stroke:#000000;stroke-width:0.8;"/>
      </defs>
      <g>
       <use style="stroke:#000000;stroke-width:0.8;" x="82.737273" xlink:href="#me81c18fab5" y="246.04"/>
      </g>
     </g>
     <g id="text_1">
      <!-- 0 -->
      <g transform="translate(79.556023 260.638438)scale(0.1 -0.1)">
       <defs>
        <path d="M 2034 4250 
Q 1547 4250 1301 3770 
Q 1056 3291 1056 2328 
Q 1056 1369 1301 889 
Q 1547 409 2034 409 
Q 2525 409 2770 889 
Q 3016 1369 3016 2328 
Q 3016 3291 2770 3770 
Q 2525 4250 2034 4250 
z
M 2034 4750 
Q 2819 4750 3233 4129 
Q 3647 3509 3647 2328 
Q 3647 1150 3233 529 
Q 2819 -91 2034 -91 
Q 1250 -91 836 529 
Q 422 1150 422 2328 
Q 422 3509 836 4129 
Q 1250 4750 2034 4750 
z
" id="DejaVuSans-30" transform="scale(0.015625)"/>
       </defs>
       <use xlink:href="#DejaVuSans-30"/>
      </g>
     </g>
    </g>
    <g id="xtick_2">
     <g id="line2d_2">
      <g>
       <use style="stroke:#000000;stroke-width:0.8;" x="128.91857" xlink:href="#me81c18fab5" y="246.04"/>
      </g>
     </g>
     <g id="text_2">
      <!-- 50 -->
      <g transform="translate(122.55607 260.638438)scale(0.1 -0.1)">
       <defs>
        <path d="M 691 4666 
L 3169 4666 
L 3169 4134 
L 1269 4134 
L 1269 2991 
Q 1406 3038 1543 3061 
Q 1681 3084 1819 3084 
Q 2600 3084 3056 2656 
Q 3513 2228 3513 1497 
Q 3513 744 3044 326 
Q 2575 -91 1722 -91 
Q 1428 -91 1123 -41 
Q 819 9 494 109 
L 494 744 
Q 775 591 1075 516 
Q 1375 441 1709 441 
Q 2250 441 2565 725 
Q 2881 1009 2881 1497 
Q 2881 1984 2565 2268 
Q 2250 2553 1709 2553 
Q 1456 2553 1204 2497 
Q 953 2441 691 2322 
L 691 4666 
z
" id="DejaVuSans-35" transform="scale(0.015625)"/>
       </defs>
       <use xlink:href="#DejaVuSans-35"/>
       <use x="63.623047" xlink:href="#DejaVuSans-30"/>
      </g>
     </g>
    </g>
    <g id="xtick_3">
     <g id="line2d_3">
      <g>
       <use style="stroke:#000000;stroke-width:0.8;" x="175.099867" xlink:href="#me81c18fab5" y="246.04"/>
      </g>
     </g>
     <g id="text_3">
      <!-- 100 -->
      <g transform="translate(165.556117 260.638438)scale(0.1 -0.1)">
       <defs>
        <path d="M 794 531 
L 1825 531 
L 1825 4091 
L 703 3866 
L 703 4441 
L 1819 4666 
L 2450 4666 
L 2450 531 
L 3481 531 
L 3481 0 
L 794 0 
L 794 531 
z
" id="DejaVuSans-31" transform="scale(0.015625)"/>
       </defs>
       <use xlink:href="#DejaVuSans-31"/>
       <use x="63.623047" xlink:href="#DejaVuSans-30"/>
       <use x="127.246094" xlink:href="#DejaVuSans-30"/>
      </g>
     </g>
    </g>
    <g id="xtick_4">
     <g id="line2d_4">
      <g>
       <use style="stroke:#000000;stroke-width:0.8;" x="221.281164" xlink:href="#me81c18fab5" y="246.04"/>
      </g>
     </g>
     <g id="text_4">
      <!-- 150 -->
      <g transform="translate(211.737414 260.638438)scale(0.1 -0.1)">
       <use xlink:href="#DejaVuSans-31"/>
       <use x="63.623047" xlink:href="#DejaVuSans-35"/>
       <use x="127.246094" xlink:href="#DejaVuSans-30"/>
      </g>
     </g>
    </g>
    <g id="xtick_5">
     <g id="line2d_5">
      <g>
       <use style="stroke:#000000;stroke-width:0.8;" x="267.462462" xlink:href="#me81c18fab5" y="246.04"/>
      </g>
     </g>
     <g id="text_5">
      <!-- 200 -->
      <g transform="translate(257.918712 260.638438)scale(0.1 -0.1)">
       <defs>
        <path d="M 1228 531 
L 3431 531 
L 3431 0 
L 469 0 
L 469 531 
Q 828 903 1448 1529 
Q 2069 2156 2228 2338 
Q 2531 2678 2651 2914 
Q 2772 3150 2772 3378 
Q 2772 3750 2511 3984 
Q 2250 4219 1831 4219 
Q 1534 4219 1204 4116 
Q 875 4013 500 3803 
L 500 4441 
Q 881 4594 1212 4672 
Q 1544 4750 1819 4750 
Q 2544 4750 2975 4387 
Q 3406 4025 3406 3419 
Q 3406 3131 3298 2873 
Q 3191 2616 2906 2266 
Q 2828 2175 2409 1742 
Q 1991 1309 1228 531 
z
" id="DejaVuSans-32" transform="scale(0.015625)"/>
       </defs>
       <use xlink:href="#DejaVuSans-32"/>
       <use x="63.623047" xlink:href="#DejaVuSans-30"/>
       <use x="127.246094" xlink:href="#DejaVuSans-30"/>
      </g>
     </g>
    </g>
    <g id="xtick_6">
     <g id="line2d_6">
      <g>
       <use style="stroke:#000000;stroke-width:0.8;" x="313.643759" xlink:href="#me81c18fab5" y="246.04"/>
      </g>
     </g>
     <g id="text_6">
      <!-- 250 -->
      <g transform="translate(304.100009 260.638438)scale(0.1 -0.1)">
       <use xlink:href="#DejaVuSans-32"/>
       <use x="63.623047" xlink:href="#DejaVuSans-35"/>
       <use x="127.246094" xlink:href="#DejaVuSans-30"/>
      </g>
     </g>
    </g>
    <g id="xtick_7">
     <g id="line2d_7">
      <g>
       <use style="stroke:#000000;stroke-width:0.8;" x="359.825056" xlink:href="#me81c18fab5" y="246.04"/>
      </g>
     </g>
     <g id="text_7">
      <!-- 300 -->
      <g transform="translate(350.281306 260.638438)scale(0.1 -0.1)">
       <defs>
        <path d="M 2597 2516 
Q 3050 2419 3304 2112 
Q 3559 1806 3559 1356 
Q 3559 666 3084 287 
Q 2609 -91 1734 -91 
Q 1441 -91 1130 -33 
Q 819 25 488 141 
L 488 750 
Q 750 597 1062 519 
Q 1375 441 1716 441 
Q 2309 441 2620 675 
Q 2931 909 2931 1356 
Q 2931 1769 2642 2001 
Q 2353 2234 1838 2234 
L 1294 2234 
L 1294 2753 
L 1863 2753 
Q 2328 2753 2575 2939 
Q 2822 3125 2822 3475 
Q 2822 3834 2567 4026 
Q 2313 4219 1838 4219 
Q 1578 4219 1281 4162 
Q 984 4106 628 3988 
L 628 4550 
Q 988 4650 1302 4700 
Q 1616 4750 1894 4750 
Q 2613 4750 3031 4423 
Q 3450 4097 3450 3541 
Q 3450 3153 3228 2886 
Q 3006 2619 2597 2516 
z
" id="DejaVuSans-33" transform="scale(0.015625)"/>
       </defs>
       <use xlink:href="#DejaVuSans-33"/>
       <use x="63.623047" xlink:href="#DejaVuSans-30"/>
       <use x="127.246094" xlink:href="#DejaVuSans-30"/>
      </g>
     </g>
    </g>
    <g id="xtick_8">
     <g id="line2d_8">
      <g>
       <use style="stroke:#000000;stroke-width:0.8;" x="406.006353" xlink:href="#me81c18fab5" y="246.04"/>
      </g>
     </g>
     <g id="text_8">
      <!-- 350 -->
      <g transform="translate(396.462603 260.638438)scale(0.1 -0.1)">
       <use xlink:href="#DejaVuSans-33"/>
       <use x="63.623047" xlink:href="#DejaVuSans-35"/>
       <use x="127.246094" xlink:href="#DejaVuSans-30"/>
      </g>
     </g>
    </g>
    <g id="text_9">
     <!-- Epoch -->
     <g transform="translate(228.599063 274.316562)scale(0.1 -0.1)">
      <defs>
       <path d="M 628 4666 
L 3578 4666 
L 3578 4134 
L 1259 4134 
L 1259 2753 
L 3481 2753 
L 3481 2222 
L 1259 2222 
L 1259 531 
L 3634 531 
L 3634 0 
L 628 0 
L 628 4666 
z
" id="DejaVuSans-45" transform="scale(0.015625)"/>
       <path d="M 1159 525 
L 1159 -1331 
L 581 -1331 
L 581 3500 
L 1159 3500 
L 1159 2969 
Q 1341 3281 1617 3432 
Q 1894 3584 2278 3584 
Q 2916 3584 3314 3078 
Q 3713 2572 3713 1747 
Q 3713 922 3314 415 
Q 2916 -91 2278 -91 
Q 1894 -91 1617 61 
Q 1341 213 1159 525 
z
M 3116 1747 
Q 3116 2381 2855 2742 
Q 2594 3103 2138 3103 
Q 1681 3103 1420 2742 
Q 1159 2381 1159 1747 
Q 1159 1113 1420 752 
Q 1681 391 2138 391 
Q 2594 391 2855 752 
Q 3116 1113 3116 1747 
z
" id="DejaVuSans-70" transform="scale(0.015625)"/>
       <path d="M 1959 3097 
Q 1497 3097 1228 2736 
Q 959 2375 959 1747 
Q 959 1119 1226 758 
Q 1494 397 1959 397 
Q 2419 397 2687 759 
Q 2956 1122 2956 1747 
Q 2956 2369 2687 2733 
Q 2419 3097 1959 3097 
z
M 1959 3584 
Q 2709 3584 3137 3096 
Q 3566 2609 3566 1747 
Q 3566 888 3137 398 
Q 2709 -91 1959 -91 
Q 1206 -91 779 398 
Q 353 888 353 1747 
Q 353 2609 779 3096 
Q 1206 3584 1959 3584 
z
" id="DejaVuSans-6f" transform="scale(0.015625)"/>
       <path d="M 3122 3366 
L 3122 2828 
Q 2878 2963 2633 3030 
Q 2388 3097 2138 3097 
Q 1578 3097 1268 2742 
Q 959 2388 959 1747 
Q 959 1106 1268 751 
Q 1578 397 2138 397 
Q 2388 397 2633 464 
Q 2878 531 3122 666 
L 3122 134 
Q 2881 22 2623 -34 
Q 2366 -91 2075 -91 
Q 1284 -91 818 406 
Q 353 903 353 1747 
Q 353 2603 823 3093 
Q 1294 3584 2113 3584 
Q 2378 3584 2631 3529 
Q 2884 3475 3122 3366 
z
" id="DejaVuSans-63" transform="scale(0.015625)"/>
       <path d="M 3513 2113 
L 3513 0 
L 2938 0 
L 2938 2094 
Q 2938 2591 2744 2837 
Q 2550 3084 2163 3084 
Q 1697 3084 1428 2787 
Q 1159 2491 1159 1978 
L 1159 0 
L 581 0 
L 581 4863 
L 1159 4863 
L 1159 2956 
Q 1366 3272 1645 3428 
Q 1925 3584 2291 3584 
Q 2894 3584 3203 3211 
Q 3513 2838 3513 2113 
z
" id="DejaVuSans-68" transform="scale(0.015625)"/>
      </defs>
      <use xlink:href="#DejaVuSans-45"/>
      <use x="63.183594" xlink:href="#DejaVuSans-70"/>
      <use x="126.660156" xlink:href="#DejaVuSans-6f"/>
      <use x="187.841797" xlink:href="#DejaVuSans-63"/>
      <use x="242.822266" xlink:href="#DejaVuSans-68"/>
     </g>
    </g>
   </g>
   <g id="matplotlib.axis_2">
    <g id="ytick_1">
     <g id="line2d_9">
      <defs>
       <path d="M 0 0 
L -3.5 0 
" id="m54937ce6dc" style="stroke:#000000;stroke-width:0.8;"/>
      </defs>
      <g>
       <use style="stroke:#000000;stroke-width:0.8;" x="66.62" xlink:href="#m54937ce6dc" y="235.209677"/>
      </g>
     </g>
     <g id="text_10">
      <!-- 0.0010 -->
      <g transform="translate(24.629375 239.008895)scale(0.1 -0.1)">
       <defs>
        <path d="M 684 794 
L 1344 794 
L 1344 0 
L 684 0 
L 684 794 
z
" id="DejaVuSans-2e" transform="scale(0.015625)"/>
       </defs>
       <use xlink:href="#DejaVuSans-30"/>
       <use x="63.623047" xlink:href="#DejaVuSans-2e"/>
       <use x="95.410156" xlink:href="#DejaVuSans-30"/>
       <use x="159.033203" xlink:href="#DejaVuSans-30"/>
       <use x="222.65625" xlink:href="#DejaVuSans-31"/>
       <use x="286.279297" xlink:href="#DejaVuSans-30"/>
      </g>
     </g>
    </g>
    <g id="ytick_2">
     <g id="line2d_10">
      <g>
       <use style="stroke:#000000;stroke-width:0.8;" x="66.62" xlink:href="#m54937ce6dc" y="200.432332"/>
      </g>
     </g>
     <g id="text_11">
      <!-- 0.0015 -->
      <g transform="translate(24.629375 204.231551)scale(0.1 -0.1)">
       <use xlink:href="#DejaVuSans-30"/>
       <use x="63.623047" xlink:href="#DejaVuSans-2e"/>
       <use x="95.410156" xlink:href="#DejaVuSans-30"/>
       <use x="159.033203" xlink:href="#DejaVuSans-30"/>
       <use x="222.65625" xlink:href="#DejaVuSans-31"/>
       <use x="286.279297" xlink:href="#DejaVuSans-35"/>
      </g>
     </g>
    </g>
    <g id="ytick_3">
     <g id="line2d_11">
      <g>
       <use style="stroke:#000000;stroke-width:0.8;" x="66.62" xlink:href="#m54937ce6dc" y="165.654988"/>
      </g>
     </g>
     <g id="text_12">
      <!-- 0.0020 -->
      <g transform="translate(24.629375 169.454207)scale(0.1 -0.1)">
       <use xlink:href="#DejaVuSans-30"/>
       <use x="63.623047" xlink:href="#DejaVuSans-2e"/>
       <use x="95.410156" xlink:href="#DejaVuSans-30"/>
       <use x="159.033203" xlink:href="#DejaVuSans-30"/>
       <use x="222.65625" xlink:href="#DejaVuSans-32"/>
       <use x="286.279297" xlink:href="#DejaVuSans-30"/>
      </g>
     </g>
    </g>
    <g id="ytick_4">
     <g id="line2d_12">
      <g>
       <use style="stroke:#000000;stroke-width:0.8;" x="66.62" xlink:href="#m54937ce6dc" y="130.877644"/>
      </g>
     </g>
     <g id="text_13">
      <!-- 0.0025 -->
      <g transform="translate(24.629375 134.676862)scale(0.1 -0.1)">
       <use xlink:href="#DejaVuSans-30"/>
       <use x="63.623047" xlink:href="#DejaVuSans-2e"/>
       <use x="95.410156" xlink:href="#DejaVuSans-30"/>
       <use x="159.033203" xlink:href="#DejaVuSans-30"/>
       <use x="222.65625" xlink:href="#DejaVuSans-32"/>
       <use x="286.279297" xlink:href="#DejaVuSans-35"/>
      </g>
     </g>
    </g>
    <g id="ytick_5">
     <g id="line2d_13">
      <g>
       <use style="stroke:#000000;stroke-width:0.8;" x="66.62" xlink:href="#m54937ce6dc" y="96.100299"/>
      </g>
     </g>
     <g id="text_14">
      <!-- 0.0030 -->
      <g transform="translate(24.629375 99.899518)scale(0.1 -0.1)">
       <use xlink:href="#DejaVuSans-30"/>
       <use x="63.623047" xlink:href="#DejaVuSans-2e"/>
       <use x="95.410156" xlink:href="#DejaVuSans-30"/>
       <use x="159.033203" xlink:href="#DejaVuSans-30"/>
       <use x="222.65625" xlink:href="#DejaVuSans-33"/>
       <use x="286.279297" xlink:href="#DejaVuSans-30"/>
      </g>
     </g>
    </g>
    <g id="ytick_6">
     <g id="line2d_14">
      <g>
       <use style="stroke:#000000;stroke-width:0.8;" x="66.62" xlink:href="#m54937ce6dc" y="61.322955"/>
      </g>
     </g>
     <g id="text_15">
      <!-- 0.0035 -->
      <g transform="translate(24.629375 65.122174)scale(0.1 -0.1)">
       <use xlink:href="#DejaVuSans-30"/>
       <use x="63.623047" xlink:href="#DejaVuSans-2e"/>
       <use x="95.410156" xlink:href="#DejaVuSans-30"/>
       <use x="159.033203" xlink:href="#DejaVuSans-30"/>
       <use x="222.65625" xlink:href="#DejaVuSans-33"/>
       <use x="286.279297" xlink:href="#DejaVuSans-35"/>
      </g>
     </g>
    </g>
    <g id="ytick_7">
     <g id="line2d_15">
      <g>
       <use style="stroke:#000000;stroke-width:0.8;" x="66.62" xlink:href="#m54937ce6dc" y="26.545611"/>
      </g>
     </g>
     <g id="text_16">
      <!-- 0.0040 -->
      <g transform="translate(24.629375 30.344829)scale(0.1 -0.1)">
       <defs>
        <path d="M 2419 4116 
L 825 1625 
L 2419 1625 
L 2419 4116 
z
M 2253 4666 
L 3047 4666 
L 3047 1625 
L 3713 1625 
L 3713 1100 
L 3047 1100 
L 3047 0 
L 2419 0 
L 2419 1100 
L 313 1100 
L 313 1709 
L 2253 4666 
z
" id="DejaVuSans-34" transform="scale(0.015625)"/>
       </defs>
       <use xlink:href="#DejaVuSans-30"/>
       <use x="63.623047" xlink:href="#DejaVuSans-2e"/>
       <use x="95.410156" xlink:href="#DejaVuSans-30"/>
       <use x="159.033203" xlink:href="#DejaVuSans-30"/>
       <use x="222.65625" xlink:href="#DejaVuSans-34"/>
       <use x="286.279297" xlink:href="#DejaVuSans-30"/>
      </g>
     </g>
    </g>
    <g id="text_17">
     <!-- Loss -->
     <g transform="translate(18.549688 139.387188)rotate(-90)scale(0.1 -0.1)">
      <defs>
       <path d="M 628 4666 
L 1259 4666 
L 1259 531 
L 3531 531 
L 3531 0 
L 628 0 
L 628 4666 
z
" id="DejaVuSans-4c" transform="scale(0.015625)"/>
       <path d="M 2834 3397 
L 2834 2853 
Q 2591 2978 2328 3040 
Q 2066 3103 1784 3103 
Q 1356 3103 1142 2972 
Q 928 2841 928 2578 
Q 928 2378 1081 2264 
Q 1234 2150 1697 2047 
L 1894 2003 
Q 2506 1872 2764 1633 
Q 3022 1394 3022 966 
Q 3022 478 2636 193 
Q 2250 -91 1575 -91 
Q 1294 -91 989 -36 
Q 684 19 347 128 
L 347 722 
Q 666 556 975 473 
Q 1284 391 1588 391 
Q 1994 391 2212 530 
Q 2431 669 2431 922 
Q 2431 1156 2273 1281 
Q 2116 1406 1581 1522 
L 1381 1569 
Q 847 1681 609 1914 
Q 372 2147 372 2553 
Q 372 3047 722 3315 
Q 1072 3584 1716 3584 
Q 2034 3584 2315 3537 
Q 2597 3491 2834 3397 
z
" id="DejaVuSans-73" transform="scale(0.015625)"/>
      </defs>
      <use xlink:href="#DejaVuSans-4c"/>
      <use x="53.962891" xlink:href="#DejaVuSans-6f"/>
      <use x="115.144531" xlink:href="#DejaVuSans-73"/>
      <use x="167.244141" xlink:href="#DejaVuSans-73"/>
     </g>
    </g>
   </g>
   <g id="line2d_16">
    <path clip-path="url(#pd1df092726)" d="M 82.737273 21.492727 
L 83.660899 45.860622 
L 84.584525 62.057798 
L 85.508151 76.104304 
L 87.355402 96.009265 
L 89.202654 113.271708 
L 90.12628 120.748693 
L 91.049906 126.553582 
L 91.973532 129.259124 
L 93.820784 136.632167 
L 95.668036 144.569752 
L 97.515288 150.463721 
L 98.438914 152.290269 
L 99.36254 153.088079 
L 100.286166 155.248505 
L 103.057044 163.950712 
L 103.980669 165.320397 
L 104.904295 165.835301 
L 105.827921 166.748145 
L 106.751547 166.205963 
L 107.675173 166.987134 
L 108.598799 169.13519 
L 109.522425 170.773005 
L 111.369677 176.052229 
L 112.293303 177.700189 
L 113.216929 178.623849 
L 114.140555 180.576645 
L 115.064181 181.042528 
L 115.987807 180.894977 
L 116.911433 181.852455 
L 117.835059 181.892005 
L 118.758685 182.282635 
L 120.605936 186.291849 
L 122.453188 187.793096 
L 123.376814 188.757421 
L 124.30044 189.216059 
L 125.224066 189.201042 
L 126.147692 189.93189 
L 127.071318 190.899181 
L 127.994944 191.533926 
L 128.91857 191.461651 
L 130.765822 192.619813 
L 131.689448 193.368777 
L 132.613074 193.880417 
L 133.5367 194.06228 
L 134.460326 194.123817 
L 135.383952 194.372872 
L 136.307577 194.468236 
L 137.231203 194.93338 
L 138.154829 195.667492 
L 140.925707 196.773545 
L 142.772959 197.194529 
L 144.620211 198.283613 
L 145.543837 198.574888 
L 146.467463 199.022191 
L 147.391089 199.881834 
L 148.314715 199.855151 
L 149.238341 200.451031 
L 150.161967 202.418998 
L 151.085593 203.461321 
L 152.009219 203.534699 
L 152.932844 203.261132 
L 153.85647 203.706716 
L 154.780096 204.521329 
L 155.703722 204.494547 
L 156.627348 204.791114 
L 157.550974 204.482396 
L 158.4746 204.850169 
L 159.398226 206.167778 
L 161.245478 206.037914 
L 162.169104 206.273253 
L 163.09273 207.025646 
L 164.016356 207.517892 
L 164.939982 207.431514 
L 165.863608 207.628251 
L 166.787234 207.508696 
L 167.71086 208.428486 
L 168.634486 209.11963 
L 169.558111 209.607002 
L 170.481737 209.861031 
L 171.405363 209.886953 
L 172.328989 210.147795 
L 173.252615 210.901732 
L 174.176241 211.177747 
L 175.099867 210.826656 
L 176.023493 211.239713 
L 176.947119 211.954243 
L 178.794371 212.001611 
L 179.717997 211.894614 
L 180.641623 212.100746 
L 181.565249 213.084603 
L 182.488875 213.042141 
L 183.412501 212.643231 
L 184.336127 212.686635 
L 187.107004 214.094238 
L 188.954256 213.466417 
L 189.877882 213.961728 
L 190.801508 214.131087 
L 191.725134 213.969077 
L 192.64876 213.933446 
L 193.572386 214.083692 
L 196.343264 213.801922 
L 200.961394 214.156161 
L 202.808645 214.373108 
L 203.732271 213.912651 
L 204.655897 214.014289 
L 206.503149 214.512935 
L 207.426775 213.746742 
L 208.350401 213.851826 
L 209.274027 214.541365 
L 210.197653 214.387067 
L 211.121279 213.936754 
L 212.044905 213.748242 
L 212.968531 214.173659 
L 213.892157 214.123165 
L 214.815783 213.852625 
L 215.739409 214.842707 
L 216.663035 214.328751 
L 217.586661 214.109206 
L 219.433912 214.934653 
L 220.357538 214.974572 
L 222.20479 214.507245 
L 224.052042 214.936428 
L 224.975668 214.845039 
L 225.899294 214.960453 
L 226.82292 215.313275 
L 227.746546 214.943705 
L 228.670172 214.897098 
L 229.593798 215.228909 
L 230.517424 214.770216 
L 231.44105 215.078658 
L 233.288302 214.937955 
L 234.211928 215.166695 
L 235.135554 214.602648 
L 236.059179 215.143408 
L 237.906431 214.913466 
L 238.830057 215.121918 
L 241.600935 215.293439 
L 242.524561 215.183791 
L 243.448187 215.588534 
L 244.371813 215.47608 
L 245.295439 215.929817 
L 246.219065 215.379128 
L 248.066317 216.121052 
L 248.989943 216.147294 
L 249.913569 215.932309 
L 251.760821 215.986275 
L 252.684446 215.95054 
L 253.608072 215.529379 
L 254.531698 215.73061 
L 255.455324 215.444303 
L 258.226202 215.560087 
L 259.149828 215.344368 
L 260.073454 215.481306 
L 260.99708 216.278184 
L 262.844332 215.347737 
L 263.767958 215.331876 
L 264.691584 215.470776 
L 265.61521 216.275648 
L 266.538836 215.905819 
L 267.462462 215.724562 
L 268.386088 216.058722 
L 269.309713 216.11775 
L 270.233339 215.815957 
L 271.156965 215.770755 
L 273.927843 216.336495 
L 274.851469 216.036615 
L 276.698721 215.94092 
L 277.622347 216.256981 
L 278.545973 216.036598 
L 280.393225 216.104386 
L 281.316851 215.957525 
L 283.164103 216.879984 
L 284.087729 217.302187 
L 286.858606 217.066985 
L 287.782232 218.001622 
L 288.705858 218.073462 
L 289.629484 217.851448 
L 290.55311 218.185459 
L 291.476736 217.912631 
L 292.400362 217.876637 
L 293.323988 218.135224 
L 294.247614 218.094009 
L 295.17124 218.715419 
L 297.018492 219.214247 
L 297.942118 219.97153 
L 298.865744 221.057163 
L 299.78937 221.352131 
L 300.712996 221.995367 
L 301.636622 223.339196 
L 302.560247 223.151318 
L 303.483873 224.076064 
L 304.407499 224.424294 
L 306.254751 225.369025 
L 307.178377 225.768216 
L 308.102003 226.384769 
L 309.025629 226.108667 
L 309.949255 226.323597 
L 310.872881 226.957069 
L 311.796507 227.048144 
L 312.720133 227.321198 
L 313.643759 228.36637 
L 314.567385 228.872167 
L 316.414637 230.514768 
L 319.185514 232.080501 
L 320.10914 231.939368 
L 321.032766 232.004576 
L 321.956392 231.849412 
L 322.880018 232.685835 
L 323.803644 233.16996 
L 324.72727 233.014432 
L 325.650896 232.387504 
L 326.574522 232.978978 
L 327.498148 233.073747 
L 328.421774 233.569002 
L 329.3454 234.290142 
L 330.269026 234.103406 
L 331.192652 233.722694 
L 332.116278 234.334776 
L 333.039904 234.773071 
L 334.887156 234.362456 
L 336.734407 234.915042 
L 339.505285 234.830274 
L 340.428911 235.20308 
L 341.352537 234.950413 
L 342.276163 235.066038 
L 345.970667 234.773242 
L 346.894293 234.795575 
L 348.741545 234.48672 
L 349.665171 234.844095 
L 350.588797 235.015467 
L 351.512423 234.792818 
L 353.359674 234.934266 
L 354.2833 235.020456 
L 355.206926 234.629716 
L 356.130552 234.960976 
L 357.054178 234.852039 
L 357.977804 235.173045 
L 358.90143 235.026719 
L 359.825056 235.128147 
L 363.51956 234.911552 
L 364.443186 234.678076 
L 365.366812 234.927898 
L 369.061315 235.204353 
L 369.984941 234.831983 
L 370.908567 235.347273 
L 371.832193 234.955888 
L 372.755819 235.036697 
L 374.603071 234.837738 
L 376.450323 234.34809 
L 377.373949 234.279949 
L 378.297575 234.864868 
L 381.068453 234.168597 
L 381.992079 234.455202 
L 382.915705 234.520057 
L 383.839331 234.472061 
L 384.762956 234.178101 
L 386.610208 234.471768 
L 387.533834 233.642711 
L 388.45746 233.867587 
L 389.381086 233.817986 
L 390.304712 234.056854 
L 392.151964 233.881099 
L 393.07559 234.165289 
L 393.999216 234.050442 
L 394.922842 234.409119 
L 395.846468 234.335801 
L 398.617346 234.449512 
L 399.540972 234.72809 
L 401.388223 234.049676 
L 402.311849 234.068018 
L 404.159101 234.430333 
L 405.082727 234.152025 
L 405.082727 234.152025 
" style="fill:none;stroke:#1f77b4;stroke-linecap:square;stroke-width:1.5;"/>
   </g>
   <g id="patch_3">
    <path d="M 66.62 246.04 
L 66.62 10.8 
" style="fill:none;stroke:#000000;stroke-linecap:square;stroke-linejoin:miter;stroke-width:0.8;"/>
   </g>
   <g id="patch_4">
    <path d="M 421.2 246.04 
L 421.2 10.8 
" style="fill:none;stroke:#000000;stroke-linecap:square;stroke-linejoin:miter;stroke-width:0.8;"/>
   </g>
   <g id="patch_5">
    <path d="M 66.62 246.04 
L 421.2 246.04 
" style="fill:none;stroke:#000000;stroke-linecap:square;stroke-linejoin:miter;stroke-width:0.8;"/>
   </g>
   <g id="patch_6">
    <path d="M 66.62 10.8 
L 421.2 10.8 
" style="fill:none;stroke:#000000;stroke-linecap:square;stroke-linejoin:miter;stroke-width:0.8;"/>
   </g>
  </g>
 </g>
 <defs>
  <clipPath id="pd1df092726">
   <rect height="235.24" width="354.58" x="66.62" y="10.8"/>
  </clipPath>
 </defs>
</svg>
