<?xml version="1.0" encoding="utf-8" standalone="no"?>
<!DOCTYPE svg PUBLIC "-//W3C//DTD SVG 1.1//EN"
  "http://www.w3.org/Graphics/SVG/1.1/DTD/svg11.dtd">
<svg height="288pt" version="1.1" viewBox="0 0 432 288" width="432pt" xmlns="http://www.w3.org/2000/svg" xmlns:xlink="http://www.w3.org/1999/xlink">
 <metadata>
  <rdf:RDF xmlns:cc="http://creativecommons.org/ns#" xmlns:dc="http://purl.org/dc/elements/1.1/" xmlns:rdf="http://www.w3.org/1999/02/22-rdf-syntax-ns#">
   <cc:Work>
    <dc:type rdf:resource="http://purl.org/dc/dcmitype/StillImage"/>
    <dc:date>2021-11-06T17:31:56.009441</dc:date>
    <dc:format>image/svg+xml</dc:format>
    <dc:creator>
     <cc:Agent>
      <dc:title>Matplotlib v3.4.2, https://matplotlib.org/</dc:title>
     </cc:Agent>
    </dc:creator>
   </cc:Work>
  </rdf:RDF>
 </metadata>
 <defs>
  <style type="text/css">*{stroke-linecap:butt;stroke-linejoin:round;}</style>
 </defs>
 <g id="figure_1">
  <g id="patch_1">
   <path d="M 0 288 
L 432 288 
L 432 0 
L 0 0 
z
" style="fill:#ffffff;"/>
  </g>
  <g id="axes_1">
   <g id="patch_2">
    <path d="M 66.62 246.04 
L 421.2 246.04 
L 421.2 10.8 
L 66.62 10.8 
z
" style="fill:#ffffff;"/>
   </g>
   <g id="matplotlib.axis_1">
    <g id="xtick_1">
     <g id="line2d_1">
      <defs>
       <path d="M 0 0 
L 0 3.5 
" id="m0712866532" style="stroke:#000000;stroke-width:0.8;"/>
      </defs>
      <g>
       <use style="stroke:#000000;stroke-width:0.8;" x="82.737273" xlink:href="#m0712866532" y="246.04"/>
      </g>
     </g>
     <g id="text_1">
      <!-- 0 -->
      <g transform="translate(79.556023 260.638438)scale(0.1 -0.1)">
       <defs>
        <path d="M 2034 4250 
Q 1547 4250 1301 3770 
Q 1056 3291 1056 2328 
Q 1056 1369 1301 889 
Q 1547 409 2034 409 
Q 2525 409 2770 889 
Q 3016 1369 3016 2328 
Q 3016 3291 2770 3770 
Q 2525 4250 2034 4250 
z
M 2034 4750 
Q 2819 4750 3233 4129 
Q 3647 3509 3647 2328 
Q 3647 1150 3233 529 
Q 2819 -91 2034 -91 
Q 1250 -91 836 529 
Q 422 1150 422 2328 
Q 422 3509 836 4129 
Q 1250 4750 2034 4750 
z
" id="DejaVuSans-30" transform="scale(0.015625)"/>
       </defs>
       <use xlink:href="#DejaVuSans-30"/>
      </g>
     </g>
    </g>
    <g id="xtick_2">
     <g id="line2d_2">
      <g>
       <use style="stroke:#000000;stroke-width:0.8;" x="123.080884" xlink:href="#m0712866532" y="246.04"/>
      </g>
     </g>
     <g id="text_2">
      <!-- 100 -->
      <g transform="translate(113.537134 260.638438)scale(0.1 -0.1)">
       <defs>
        <path d="M 794 531 
L 1825 531 
L 1825 4091 
L 703 3866 
L 703 4441 
L 1819 4666 
L 2450 4666 
L 2450 531 
L 3481 531 
L 3481 0 
L 794 0 
L 794 531 
z
" id="DejaVuSans-31" transform="scale(0.015625)"/>
       </defs>
       <use xlink:href="#DejaVuSans-31"/>
       <use x="63.623047" xlink:href="#DejaVuSans-30"/>
       <use x="127.246094" xlink:href="#DejaVuSans-30"/>
      </g>
     </g>
    </g>
    <g id="xtick_3">
     <g id="line2d_3">
      <g>
       <use style="stroke:#000000;stroke-width:0.8;" x="163.424495" xlink:href="#m0712866532" y="246.04"/>
      </g>
     </g>
     <g id="text_3">
      <!-- 200 -->
      <g transform="translate(153.880745 260.638438)scale(0.1 -0.1)">
       <defs>
        <path d="M 1228 531 
L 3431 531 
L 3431 0 
L 469 0 
L 469 531 
Q 828 903 1448 1529 
Q 2069 2156 2228 2338 
Q 2531 2678 2651 2914 
Q 2772 3150 2772 3378 
Q 2772 3750 2511 3984 
Q 2250 4219 1831 4219 
Q 1534 4219 1204 4116 
Q 875 4013 500 3803 
L 500 4441 
Q 881 4594 1212 4672 
Q 1544 4750 1819 4750 
Q 2544 4750 2975 4387 
Q 3406 4025 3406 3419 
Q 3406 3131 3298 2873 
Q 3191 2616 2906 2266 
Q 2828 2175 2409 1742 
Q 1991 1309 1228 531 
z
" id="DejaVuSans-32" transform="scale(0.015625)"/>
       </defs>
       <use xlink:href="#DejaVuSans-32"/>
       <use x="63.623047" xlink:href="#DejaVuSans-30"/>
       <use x="127.246094" xlink:href="#DejaVuSans-30"/>
      </g>
     </g>
    </g>
    <g id="xtick_4">
     <g id="line2d_4">
      <g>
       <use style="stroke:#000000;stroke-width:0.8;" x="203.768107" xlink:href="#m0712866532" y="246.04"/>
      </g>
     </g>
     <g id="text_4">
      <!-- 300 -->
      <g transform="translate(194.224357 260.638438)scale(0.1 -0.1)">
       <defs>
        <path d="M 2597 2516 
Q 3050 2419 3304 2112 
Q 3559 1806 3559 1356 
Q 3559 666 3084 287 
Q 2609 -91 1734 -91 
Q 1441 -91 1130 -33 
Q 819 25 488 141 
L 488 750 
Q 750 597 1062 519 
Q 1375 441 1716 441 
Q 2309 441 2620 675 
Q 2931 909 2931 1356 
Q 2931 1769 2642 2001 
Q 2353 2234 1838 2234 
L 1294 2234 
L 1294 2753 
L 1863 2753 
Q 2328 2753 2575 2939 
Q 2822 3125 2822 3475 
Q 2822 3834 2567 4026 
Q 2313 4219 1838 4219 
Q 1578 4219 1281 4162 
Q 984 4106 628 3988 
L 628 4550 
Q 988 4650 1302 4700 
Q 1616 4750 1894 4750 
Q 2613 4750 3031 4423 
Q 3450 4097 3450 3541 
Q 3450 3153 3228 2886 
Q 3006 2619 2597 2516 
z
" id="DejaVuSans-33" transform="scale(0.015625)"/>
       </defs>
       <use xlink:href="#DejaVuSans-33"/>
       <use x="63.623047" xlink:href="#DejaVuSans-30"/>
       <use x="127.246094" xlink:href="#DejaVuSans-30"/>
      </g>
     </g>
    </g>
    <g id="xtick_5">
     <g id="line2d_5">
      <g>
       <use style="stroke:#000000;stroke-width:0.8;" x="244.111718" xlink:href="#m0712866532" y="246.04"/>
      </g>
     </g>
     <g id="text_5">
      <!-- 400 -->
      <g transform="translate(234.567968 260.638438)scale(0.1 -0.1)">
       <defs>
        <path d="M 2419 4116 
L 825 1625 
L 2419 1625 
L 2419 4116 
z
M 2253 4666 
L 3047 4666 
L 3047 1625 
L 3713 1625 
L 3713 1100 
L 3047 1100 
L 3047 0 
L 2419 0 
L 2419 1100 
L 313 1100 
L 313 1709 
L 2253 4666 
z
" id="DejaVuSans-34" transform="scale(0.015625)"/>
       </defs>
       <use xlink:href="#DejaVuSans-34"/>
       <use x="63.623047" xlink:href="#DejaVuSans-30"/>
       <use x="127.246094" xlink:href="#DejaVuSans-30"/>
      </g>
     </g>
    </g>
    <g id="xtick_6">
     <g id="line2d_6">
      <g>
       <use style="stroke:#000000;stroke-width:0.8;" x="284.455329" xlink:href="#m0712866532" y="246.04"/>
      </g>
     </g>
     <g id="text_6">
      <!-- 500 -->
      <g transform="translate(274.911579 260.638438)scale(0.1 -0.1)">
       <defs>
        <path d="M 691 4666 
L 3169 4666 
L 3169 4134 
L 1269 4134 
L 1269 2991 
Q 1406 3038 1543 3061 
Q 1681 3084 1819 3084 
Q 2600 3084 3056 2656 
Q 3513 2228 3513 1497 
Q 3513 744 3044 326 
Q 2575 -91 1722 -91 
Q 1428 -91 1123 -41 
Q 819 9 494 109 
L 494 744 
Q 775 591 1075 516 
Q 1375 441 1709 441 
Q 2250 441 2565 725 
Q 2881 1009 2881 1497 
Q 2881 1984 2565 2268 
Q 2250 2553 1709 2553 
Q 1456 2553 1204 2497 
Q 953 2441 691 2322 
L 691 4666 
z
" id="DejaVuSans-35" transform="scale(0.015625)"/>
       </defs>
       <use xlink:href="#DejaVuSans-35"/>
       <use x="63.623047" xlink:href="#DejaVuSans-30"/>
       <use x="127.246094" xlink:href="#DejaVuSans-30"/>
      </g>
     </g>
    </g>
    <g id="xtick_7">
     <g id="line2d_7">
      <g>
       <use style="stroke:#000000;stroke-width:0.8;" x="324.798941" xlink:href="#m0712866532" y="246.04"/>
      </g>
     </g>
     <g id="text_7">
      <!-- 600 -->
      <g transform="translate(315.255191 260.638438)scale(0.1 -0.1)">
       <defs>
        <path d="M 2113 2584 
Q 1688 2584 1439 2293 
Q 1191 2003 1191 1497 
Q 1191 994 1439 701 
Q 1688 409 2113 409 
Q 2538 409 2786 701 
Q 3034 994 3034 1497 
Q 3034 2003 2786 2293 
Q 2538 2584 2113 2584 
z
M 3366 4563 
L 3366 3988 
Q 3128 4100 2886 4159 
Q 2644 4219 2406 4219 
Q 1781 4219 1451 3797 
Q 1122 3375 1075 2522 
Q 1259 2794 1537 2939 
Q 1816 3084 2150 3084 
Q 2853 3084 3261 2657 
Q 3669 2231 3669 1497 
Q 3669 778 3244 343 
Q 2819 -91 2113 -91 
Q 1303 -91 875 529 
Q 447 1150 447 2328 
Q 447 3434 972 4092 
Q 1497 4750 2381 4750 
Q 2619 4750 2861 4703 
Q 3103 4656 3366 4563 
z
" id="DejaVuSans-36" transform="scale(0.015625)"/>
       </defs>
       <use xlink:href="#DejaVuSans-36"/>
       <use x="63.623047" xlink:href="#DejaVuSans-30"/>
       <use x="127.246094" xlink:href="#DejaVuSans-30"/>
      </g>
     </g>
    </g>
    <g id="xtick_8">
     <g id="line2d_8">
      <g>
       <use style="stroke:#000000;stroke-width:0.8;" x="365.142552" xlink:href="#m0712866532" y="246.04"/>
      </g>
     </g>
     <g id="text_8">
      <!-- 700 -->
      <g transform="translate(355.598802 260.638438)scale(0.1 -0.1)">
       <defs>
        <path d="M 525 4666 
L 3525 4666 
L 3525 4397 
L 1831 0 
L 1172 0 
L 2766 4134 
L 525 4134 
L 525 4666 
z
" id="DejaVuSans-37" transform="scale(0.015625)"/>
       </defs>
       <use xlink:href="#DejaVuSans-37"/>
       <use x="63.623047" xlink:href="#DejaVuSans-30"/>
       <use x="127.246094" xlink:href="#DejaVuSans-30"/>
      </g>
     </g>
    </g>
    <g id="xtick_9">
     <g id="line2d_9">
      <g>
       <use style="stroke:#000000;stroke-width:0.8;" x="405.486163" xlink:href="#m0712866532" y="246.04"/>
      </g>
     </g>
     <g id="text_9">
      <!-- 800 -->
      <g transform="translate(395.942413 260.638438)scale(0.1 -0.1)">
       <defs>
        <path d="M 2034 2216 
Q 1584 2216 1326 1975 
Q 1069 1734 1069 1313 
Q 1069 891 1326 650 
Q 1584 409 2034 409 
Q 2484 409 2743 651 
Q 3003 894 3003 1313 
Q 3003 1734 2745 1975 
Q 2488 2216 2034 2216 
z
M 1403 2484 
Q 997 2584 770 2862 
Q 544 3141 544 3541 
Q 544 4100 942 4425 
Q 1341 4750 2034 4750 
Q 2731 4750 3128 4425 
Q 3525 4100 3525 3541 
Q 3525 3141 3298 2862 
Q 3072 2584 2669 2484 
Q 3125 2378 3379 2068 
Q 3634 1759 3634 1313 
Q 3634 634 3220 271 
Q 2806 -91 2034 -91 
Q 1263 -91 848 271 
Q 434 634 434 1313 
Q 434 1759 690 2068 
Q 947 2378 1403 2484 
z
M 1172 3481 
Q 1172 3119 1398 2916 
Q 1625 2713 2034 2713 
Q 2441 2713 2670 2916 
Q 2900 3119 2900 3481 
Q 2900 3844 2670 4047 
Q 2441 4250 2034 4250 
Q 1625 4250 1398 4047 
Q 1172 3844 1172 3481 
z
" id="DejaVuSans-38" transform="scale(0.015625)"/>
       </defs>
       <use xlink:href="#DejaVuSans-38"/>
       <use x="63.623047" xlink:href="#DejaVuSans-30"/>
       <use x="127.246094" xlink:href="#DejaVuSans-30"/>
      </g>
     </g>
    </g>
    <g id="text_10">
     <!-- Epoch -->
     <g transform="translate(228.599063 274.316562)scale(0.1 -0.1)">
      <defs>
       <path d="M 628 4666 
L 3578 4666 
L 3578 4134 
L 1259 4134 
L 1259 2753 
L 3481 2753 
L 3481 2222 
L 1259 2222 
L 1259 531 
L 3634 531 
L 3634 0 
L 628 0 
L 628 4666 
z
" id="DejaVuSans-45" transform="scale(0.015625)"/>
       <path d="M 1159 525 
L 1159 -1331 
L 581 -1331 
L 581 3500 
L 1159 3500 
L 1159 2969 
Q 1341 3281 1617 3432 
Q 1894 3584 2278 3584 
Q 2916 3584 3314 3078 
Q 3713 2572 3713 1747 
Q 3713 922 3314 415 
Q 2916 -91 2278 -91 
Q 1894 -91 1617 61 
Q 1341 213 1159 525 
z
M 3116 1747 
Q 3116 2381 2855 2742 
Q 2594 3103 2138 3103 
Q 1681 3103 1420 2742 
Q 1159 2381 1159 1747 
Q 1159 1113 1420 752 
Q 1681 391 2138 391 
Q 2594 391 2855 752 
Q 3116 1113 3116 1747 
z
" id="DejaVuSans-70" transform="scale(0.015625)"/>
       <path d="M 1959 3097 
Q 1497 3097 1228 2736 
Q 959 2375 959 1747 
Q 959 1119 1226 758 
Q 1494 397 1959 397 
Q 2419 397 2687 759 
Q 2956 1122 2956 1747 
Q 2956 2369 2687 2733 
Q 2419 3097 1959 3097 
z
M 1959 3584 
Q 2709 3584 3137 3096 
Q 3566 2609 3566 1747 
Q 3566 888 3137 398 
Q 2709 -91 1959 -91 
Q 1206 -91 779 398 
Q 353 888 353 1747 
Q 353 2609 779 3096 
Q 1206 3584 1959 3584 
z
" id="DejaVuSans-6f" transform="scale(0.015625)"/>
       <path d="M 3122 3366 
L 3122 2828 
Q 2878 2963 2633 3030 
Q 2388 3097 2138 3097 
Q 1578 3097 1268 2742 
Q 959 2388 959 1747 
Q 959 1106 1268 751 
Q 1578 397 2138 397 
Q 2388 397 2633 464 
Q 2878 531 3122 666 
L 3122 134 
Q 2881 22 2623 -34 
Q 2366 -91 2075 -91 
Q 1284 -91 818 406 
Q 353 903 353 1747 
Q 353 2603 823 3093 
Q 1294 3584 2113 3584 
Q 2378 3584 2631 3529 
Q 2884 3475 3122 3366 
z
" id="DejaVuSans-63" transform="scale(0.015625)"/>
       <path d="M 3513 2113 
L 3513 0 
L 2938 0 
L 2938 2094 
Q 2938 2591 2744 2837 
Q 2550 3084 2163 3084 
Q 1697 3084 1428 2787 
Q 1159 2491 1159 1978 
L 1159 0 
L 581 0 
L 581 4863 
L 1159 4863 
L 1159 2956 
Q 1366 3272 1645 3428 
Q 1925 3584 2291 3584 
Q 2894 3584 3203 3211 
Q 3513 2838 3513 2113 
z
" id="DejaVuSans-68" transform="scale(0.015625)"/>
      </defs>
      <use xlink:href="#DejaVuSans-45"/>
      <use x="63.183594" xlink:href="#DejaVuSans-70"/>
      <use x="126.660156" xlink:href="#DejaVuSans-6f"/>
      <use x="187.841797" xlink:href="#DejaVuSans-63"/>
      <use x="242.822266" xlink:href="#DejaVuSans-68"/>
     </g>
    </g>
   </g>
   <g id="matplotlib.axis_2">
    <g id="ytick_1">
     <g id="line2d_10">
      <defs>
       <path d="M 0 0 
L -3.5 0 
" id="m0cd53352e4" style="stroke:#000000;stroke-width:0.8;"/>
      </defs>
      <g>
       <use style="stroke:#000000;stroke-width:0.8;" x="66.62" xlink:href="#m0cd53352e4" y="224.807101"/>
      </g>
     </g>
     <g id="text_11">
      <!-- 0.0010 -->
      <g transform="translate(24.629375 228.606319)scale(0.1 -0.1)">
       <defs>
        <path d="M 684 794 
L 1344 794 
L 1344 0 
L 684 0 
L 684 794 
z
" id="DejaVuSans-2e" transform="scale(0.015625)"/>
       </defs>
       <use xlink:href="#DejaVuSans-30"/>
       <use x="63.623047" xlink:href="#DejaVuSans-2e"/>
       <use x="95.410156" xlink:href="#DejaVuSans-30"/>
       <use x="159.033203" xlink:href="#DejaVuSans-30"/>
       <use x="222.65625" xlink:href="#DejaVuSans-31"/>
       <use x="286.279297" xlink:href="#DejaVuSans-30"/>
      </g>
     </g>
    </g>
    <g id="ytick_2">
     <g id="line2d_11">
      <g>
       <use style="stroke:#000000;stroke-width:0.8;" x="66.62" xlink:href="#m0cd53352e4" y="195.950117"/>
      </g>
     </g>
     <g id="text_12">
      <!-- 0.0015 -->
      <g transform="translate(24.629375 199.749335)scale(0.1 -0.1)">
       <use xlink:href="#DejaVuSans-30"/>
       <use x="63.623047" xlink:href="#DejaVuSans-2e"/>
       <use x="95.410156" xlink:href="#DejaVuSans-30"/>
       <use x="159.033203" xlink:href="#DejaVuSans-30"/>
       <use x="222.65625" xlink:href="#DejaVuSans-31"/>
       <use x="286.279297" xlink:href="#DejaVuSans-35"/>
      </g>
     </g>
    </g>
    <g id="ytick_3">
     <g id="line2d_12">
      <g>
       <use style="stroke:#000000;stroke-width:0.8;" x="66.62" xlink:href="#m0cd53352e4" y="167.093133"/>
      </g>
     </g>
     <g id="text_13">
      <!-- 0.0020 -->
      <g transform="translate(24.629375 170.892351)scale(0.1 -0.1)">
       <use xlink:href="#DejaVuSans-30"/>
       <use x="63.623047" xlink:href="#DejaVuSans-2e"/>
       <use x="95.410156" xlink:href="#DejaVuSans-30"/>
       <use x="159.033203" xlink:href="#DejaVuSans-30"/>
       <use x="222.65625" xlink:href="#DejaVuSans-32"/>
       <use x="286.279297" xlink:href="#DejaVuSans-30"/>
      </g>
     </g>
    </g>
    <g id="ytick_4">
     <g id="line2d_13">
      <g>
       <use style="stroke:#000000;stroke-width:0.8;" x="66.62" xlink:href="#m0cd53352e4" y="138.236149"/>
      </g>
     </g>
     <g id="text_14">
      <!-- 0.0025 -->
      <g transform="translate(24.629375 142.035367)scale(0.1 -0.1)">
       <use xlink:href="#DejaVuSans-30"/>
       <use x="63.623047" xlink:href="#DejaVuSans-2e"/>
       <use x="95.410156" xlink:href="#DejaVuSans-30"/>
       <use x="159.033203" xlink:href="#DejaVuSans-30"/>
       <use x="222.65625" xlink:href="#DejaVuSans-32"/>
       <use x="286.279297" xlink:href="#DejaVuSans-35"/>
      </g>
     </g>
    </g>
    <g id="ytick_5">
     <g id="line2d_14">
      <g>
       <use style="stroke:#000000;stroke-width:0.8;" x="66.62" xlink:href="#m0cd53352e4" y="109.379165"/>
      </g>
     </g>
     <g id="text_15">
      <!-- 0.0030 -->
      <g transform="translate(24.629375 113.178383)scale(0.1 -0.1)">
       <use xlink:href="#DejaVuSans-30"/>
       <use x="63.623047" xlink:href="#DejaVuSans-2e"/>
       <use x="95.410156" xlink:href="#DejaVuSans-30"/>
       <use x="159.033203" xlink:href="#DejaVuSans-30"/>
       <use x="222.65625" xlink:href="#DejaVuSans-33"/>
       <use x="286.279297" xlink:href="#DejaVuSans-30"/>
      </g>
     </g>
    </g>
    <g id="ytick_6">
     <g id="line2d_15">
      <g>
       <use style="stroke:#000000;stroke-width:0.8;" x="66.62" xlink:href="#m0cd53352e4" y="80.52218"/>
      </g>
     </g>
     <g id="text_16">
      <!-- 0.0035 -->
      <g transform="translate(24.629375 84.321399)scale(0.1 -0.1)">
       <use xlink:href="#DejaVuSans-30"/>
       <use x="63.623047" xlink:href="#DejaVuSans-2e"/>
       <use x="95.410156" xlink:href="#DejaVuSans-30"/>
       <use x="159.033203" xlink:href="#DejaVuSans-30"/>
       <use x="222.65625" xlink:href="#DejaVuSans-33"/>
       <use x="286.279297" xlink:href="#DejaVuSans-35"/>
      </g>
     </g>
    </g>
    <g id="ytick_7">
     <g id="line2d_16">
      <g>
       <use style="stroke:#000000;stroke-width:0.8;" x="66.62" xlink:href="#m0cd53352e4" y="51.665196"/>
      </g>
     </g>
     <g id="text_17">
      <!-- 0.0040 -->
      <g transform="translate(24.629375 55.464415)scale(0.1 -0.1)">
       <use xlink:href="#DejaVuSans-30"/>
       <use x="63.623047" xlink:href="#DejaVuSans-2e"/>
       <use x="95.410156" xlink:href="#DejaVuSans-30"/>
       <use x="159.033203" xlink:href="#DejaVuSans-30"/>
       <use x="222.65625" xlink:href="#DejaVuSans-34"/>
       <use x="286.279297" xlink:href="#DejaVuSans-30"/>
      </g>
     </g>
    </g>
    <g id="ytick_8">
     <g id="line2d_17">
      <g>
       <use style="stroke:#000000;stroke-width:0.8;" x="66.62" xlink:href="#m0cd53352e4" y="22.808212"/>
      </g>
     </g>
     <g id="text_18">
      <!-- 0.0045 -->
      <g transform="translate(24.629375 26.607431)scale(0.1 -0.1)">
       <use xlink:href="#DejaVuSans-30"/>
       <use x="63.623047" xlink:href="#DejaVuSans-2e"/>
       <use x="95.410156" xlink:href="#DejaVuSans-30"/>
       <use x="159.033203" xlink:href="#DejaVuSans-30"/>
       <use x="222.65625" xlink:href="#DejaVuSans-34"/>
       <use x="286.279297" xlink:href="#DejaVuSans-35"/>
      </g>
     </g>
    </g>
    <g id="text_19">
     <!-- Loss -->
     <g transform="translate(18.549688 139.387188)rotate(-90)scale(0.1 -0.1)">
      <defs>
       <path d="M 628 4666 
L 1259 4666 
L 1259 531 
L 3531 531 
L 3531 0 
L 628 0 
L 628 4666 
z
" id="DejaVuSans-4c" transform="scale(0.015625)"/>
       <path d="M 2834 3397 
L 2834 2853 
Q 2591 2978 2328 3040 
Q 2066 3103 1784 3103 
Q 1356 3103 1142 2972 
Q 928 2841 928 2578 
Q 928 2378 1081 2264 
Q 1234 2150 1697 2047 
L 1894 2003 
Q 2506 1872 2764 1633 
Q 3022 1394 3022 966 
Q 3022 478 2636 193 
Q 2250 -91 1575 -91 
Q 1294 -91 989 -36 
Q 684 19 347 128 
L 347 722 
Q 666 556 975 473 
Q 1284 391 1588 391 
Q 1994 391 2212 530 
Q 2431 669 2431 922 
Q 2431 1156 2273 1281 
Q 2116 1406 1581 1522 
L 1381 1569 
Q 847 1681 609 1914 
Q 372 2147 372 2553 
Q 372 3047 722 3315 
Q 1072 3584 1716 3584 
Q 2034 3584 2315 3537 
Q 2597 3491 2834 3397 
z
" id="DejaVuSans-73" transform="scale(0.015625)"/>
      </defs>
      <use xlink:href="#DejaVuSans-4c"/>
      <use x="53.962891" xlink:href="#DejaVuSans-6f"/>
      <use x="115.144531" xlink:href="#DejaVuSans-73"/>
      <use x="167.244141" xlink:href="#DejaVuSans-73"/>
     </g>
    </g>
   </g>
   <g id="line2d_18">
    <path clip-path="url(#p54b3e8b5ee)" d="M 82.737273 21.492727 
L 83.140709 50.90186 
L 83.544145 68.893939 
L 84.351017 88.629778 
L 84.754453 95.923306 
L 85.561326 106.214612 
L 86.771634 124.491739 
L 87.17507 128.080552 
L 87.578506 130.539692 
L 87.981942 131.932724 
L 88.385378 134.082119 
L 89.192251 140.542048 
L 89.595687 142.270019 
L 90.805995 145.751463 
L 91.209431 146.139546 
L 92.016303 149.644883 
L 92.823176 153.805852 
L 94.033484 159.075302 
L 94.43692 160.257313 
L 95.243792 163.390852 
L 95.647228 164.940438 
L 96.050664 165.200645 
L 96.857537 166.682257 
L 97.260973 167.668088 
L 97.664409 169.53162 
L 98.067845 170.069994 
L 98.874717 171.680243 
L 99.278153 172.207459 
L 99.681589 172.187768 
L 100.085026 172.584439 
L 100.488462 173.256732 
L 100.891898 173.455856 
L 101.295334 174.257238 
L 101.69877 174.557148 
L 102.102206 174.65144 
L 102.505642 175.418619 
L 102.909078 176.902459 
L 103.715951 176.528864 
L 104.522823 178.73642 
L 104.926259 179.113179 
L 105.329695 179.089397 
L 106.94344 181.303326 
L 107.346876 180.784511 
L 107.750312 181.18781 
L 108.153748 181.962387 
L 108.557184 181.962663 
L 108.96062 182.316258 
L 109.364056 183.011814 
L 109.767492 183.030525 
L 110.170928 182.794597 
L 110.574365 183.430538 
L 110.977801 184.526724 
L 111.784673 183.873528 
L 112.188109 184.196626 
L 112.591545 184.722794 
L 112.994981 184.412774 
L 113.398417 184.520517 
L 114.608726 185.475167 
L 115.012162 185.358074 
L 115.415598 186.097634 
L 115.819034 186.148253 
L 116.22247 185.920727 
L 117.029342 186.379109 
L 117.836215 185.965976 
L 118.239651 186.534395 
L 118.643087 186.617 
L 119.046523 186.419177 
L 119.449959 186.928432 
L 120.660267 186.871903 
L 122.677448 187.116023 
L 123.48432 187.534504 
L 123.887756 187.110588 
L 124.291192 186.916249 
L 124.694629 187.370816 
L 125.098065 187.515893 
L 125.501501 187.454314 
L 125.904937 187.126542 
L 126.711809 187.503544 
L 127.115245 187.320264 
L 127.518681 187.702293 
L 127.922117 187.254054 
L 128.72899 187.299965 
L 129.132426 188.051323 
L 129.535862 187.337265 
L 129.939298 187.478141 
L 130.342734 187.199146 
L 130.74617 187.562024 
L 131.149606 187.172012 
L 131.553042 187.296371 
L 131.956479 187.818956 
L 132.359915 187.049252 
L 132.763351 187.386627 
L 133.570223 187.050663 
L 134.377095 187.511229 
L 134.780531 187.340716 
L 135.183967 187.698589 
L 137.201148 188.123773 
L 138.411456 187.730762 
L 138.814892 188.044895 
L 139.218329 187.9682 
L 139.621765 187.562333 
L 140.428637 187.944109 
L 140.832073 187.992578 
L 141.235509 187.491956 
L 142.042381 187.571628 
L 142.445817 187.929732 
L 142.849254 187.836862 
L 143.25269 187.529873 
L 143.656126 187.946127 
L 144.059562 187.729813 
L 144.462998 187.673141 
L 144.866434 187.834602 
L 145.26987 187.555596 
L 146.076743 188.106782 
L 146.480179 188.156299 
L 146.883615 188.327716 
L 147.690487 188.263733 
L 148.093923 188.673206 
L 148.497359 188.683416 
L 148.900795 188.554691 
L 149.304231 188.252035 
L 150.111104 188.653216 
L 150.51454 188.167556 
L 150.917976 188.111248 
L 151.321412 188.63262 
L 151.724848 188.239289 
L 152.128284 188.140709 
L 152.53172 188.431313 
L 152.935156 188.473696 
L 153.338593 188.265354 
L 153.742029 188.59317 
L 154.145465 188.688433 
L 154.548901 188.380154 
L 155.759209 189.026051 
L 156.162645 188.471667 
L 156.566081 188.846255 
L 156.969518 188.847875 
L 157.372954 188.338289 
L 158.179826 189.10752 
L 158.583262 188.183973 
L 158.986698 188.188968 
L 159.390134 188.671299 
L 159.79357 187.965653 
L 160.197006 188.228021 
L 160.600443 188.819396 
L 161.003879 188.596247 
L 161.407315 188.556488 
L 162.214187 188.751367 
L 162.617623 188.494071 
L 163.021059 188.735821 
L 163.424495 188.792405 
L 163.827932 188.732249 
L 164.231368 188.802549 
L 164.634804 189.193344 
L 165.03824 189.233069 
L 165.441676 189.131688 
L 165.845112 188.898638 
L 167.05542 189.345488 
L 167.458857 189.21738 
L 167.862293 189.4658 
L 168.265729 189.457112 
L 168.669165 189.626985 
L 169.476037 189.358696 
L 169.879473 189.736272 
L 170.282909 189.888228 
L 170.686345 189.428721 
L 171.089782 189.448854 
L 171.493218 190.007702 
L 171.896654 189.964691 
L 173.106962 189.519231 
L 173.913834 190.389523 
L 174.31727 189.705036 
L 174.720707 189.621384 
L 175.124143 190.304647 
L 175.527579 190.416866 
L 175.931015 190.657629 
L 176.334451 191.256204 
L 176.737887 191.165462 
L 177.141323 191.271789 
L 177.948195 191.240184 
L 178.351632 191.053535 
L 178.755068 191.988868 
L 179.56194 191.821426 
L 180.772248 192.592205 
L 181.175684 192.689546 
L 181.57912 193.131147 
L 181.982557 193.249249 
L 182.385993 193.525829 
L 182.789429 194.155822 
L 183.192865 194.461399 
L 183.596301 194.450114 
L 183.999737 194.039522 
L 184.806609 195.599302 
L 185.210046 195.845561 
L 185.613482 195.301602 
L 186.420354 196.321689 
L 186.82379 196.480041 
L 187.227226 196.814897 
L 188.034098 197.246801 
L 188.437534 197.422562 
L 188.840971 198.469028 
L 189.244407 198.064209 
L 189.647843 198.027272 
L 190.051279 198.26841 
L 190.454715 198.833004 
L 191.261587 199.196598 
L 191.665023 198.663974 
L 192.471896 199.332964 
L 192.875332 199.262631 
L 193.682204 200.978364 
L 194.08564 200.5347 
L 194.489076 201.327608 
L 194.892512 201.144835 
L 195.295948 201.164444 
L 196.102821 202.123543 
L 196.506257 202.005033 
L 197.313129 202.088994 
L 198.120001 203.337126 
L 198.523437 203.126243 
L 198.926873 203.360876 
L 199.330309 203.846514 
L 199.733746 203.93741 
L 200.540618 204.506777 
L 200.944054 204.466335 
L 201.34749 205.001539 
L 201.750926 204.970524 
L 202.154362 204.686033 
L 202.557798 205.168799 
L 203.364671 205.143269 
L 203.768107 205.839923 
L 204.574979 205.451261 
L 204.978415 206.193628 
L 205.381851 206.303708 
L 205.785287 206.130417 
L 206.188723 206.656663 
L 206.59216 206.522734 
L 207.399032 206.871218 
L 207.802468 206.763414 
L 208.205904 207.535958 
L 208.60934 206.737267 
L 209.012776 206.717211 
L 209.416212 207.613827 
L 209.819648 207.088364 
L 210.223085 207.120868 
L 210.626521 208.129753 
L 211.029957 208.314902 
L 211.433393 208.100072 
L 211.836829 208.684577 
L 212.240265 208.965204 
L 212.643701 208.744282 
L 213.450573 209.31221 
L 213.85401 209.126951 
L 214.257446 209.681467 
L 214.660882 209.58519 
L 215.064318 209.650771 
L 215.467754 210.052454 
L 215.87119 209.850695 
L 216.274626 210.292583 
L 216.678062 210.111988 
L 217.484935 210.661415 
L 217.888371 210.783431 
L 218.291807 210.752923 
L 218.695243 211.207039 
L 219.098679 210.890402 
L 219.502115 210.993504 
L 219.905551 211.425745 
L 220.308987 210.938546 
L 220.712423 211.217695 
L 221.11586 211.98644 
L 221.519296 211.819588 
L 221.922732 211.784973 
L 222.326168 211.889701 
L 223.13304 212.8495 
L 223.536476 212.986885 
L 223.939912 213.273973 
L 224.343349 213.856147 
L 224.746785 213.495126 
L 225.150221 213.385112 
L 225.553657 214.516697 
L 225.957093 215.01969 
L 226.360529 215.249383 
L 226.763965 214.461282 
L 227.167401 215.079041 
L 227.570837 216.926304 
L 227.974274 217.343837 
L 228.37771 217.10986 
L 228.781146 217.586766 
L 229.184582 218.925204 
L 229.588018 218.528731 
L 229.991454 218.382955 
L 230.39489 218.650389 
L 230.798326 219.494936 
L 231.605199 219.086703 
L 232.008635 220.352934 
L 232.412071 220.425279 
L 232.815507 219.77989 
L 233.218943 220.368762 
L 233.622379 221.299105 
L 234.429251 220.942385 
L 234.832687 221.204549 
L 235.236124 221.979926 
L 235.63956 221.806828 
L 236.042996 221.951529 
L 236.446432 222.357264 
L 236.849868 222.234311 
L 237.253304 222.828702 
L 237.65674 222.994903 
L 238.060176 223.478237 
L 238.463612 222.749294 
L 238.867049 222.644627 
L 239.270485 224.013546 
L 240.077357 223.424856 
L 240.480793 223.980623 
L 240.884229 223.520306 
L 241.287665 223.773853 
L 241.691101 223.771124 
L 242.497974 224.867901 
L 242.90141 224.315121 
L 243.304846 224.103736 
L 243.708282 224.459497 
L 244.111718 224.970892 
L 244.515154 225.139541 
L 245.322026 224.953774 
L 245.725463 225.013787 
L 246.128899 225.69484 
L 246.532335 225.77428 
L 246.935771 225.242273 
L 247.339207 225.498863 
L 247.742643 225.926903 
L 248.146079 226.02754 
L 248.549515 226.488746 
L 248.952951 226.778435 
L 249.356388 226.122621 
L 249.759824 226.681514 
L 250.16326 226.823227 
L 250.566696 227.126522 
L 250.970132 226.070497 
L 251.373568 226.118574 
L 251.777004 226.514347 
L 252.18044 227.154092 
L 252.583876 227.500867 
L 252.987313 227.666655 
L 253.794185 227.365653 
L 254.197621 227.65967 
L 254.601057 227.464201 
L 255.004493 227.636136 
L 255.407929 228.055962 
L 255.811365 227.29037 
L 256.618238 228.107601 
L 257.021674 228.103008 
L 257.42511 227.723531 
L 257.828546 227.785859 
L 258.231982 228.488776 
L 259.038854 228.350855 
L 259.44229 228.761618 
L 260.249163 228.596243 
L 260.652599 228.195227 
L 261.459471 228.95701 
L 261.862907 228.826284 
L 262.266343 228.569302 
L 262.669779 228.585598 
L 263.073215 229.009713 
L 263.476651 228.812309 
L 263.880088 228.806465 
L 264.68696 229.377812 
L 265.493832 228.813246 
L 266.300704 229.449799 
L 266.70414 228.892973 
L 267.107577 229.006846 
L 267.511013 229.355148 
L 267.914449 229.075178 
L 268.317885 229.081975 
L 269.528193 228.635506 
L 270.335065 229.387641 
L 271.545374 229.199151 
L 271.94881 229.575497 
L 272.352246 229.527094 
L 272.755682 230.025566 
L 273.159118 229.674613 
L 273.96599 230.055578 
L 274.369427 229.715777 
L 274.772863 230.34293 
L 275.579735 230.184789 
L 275.983171 230.518349 
L 276.386607 230.673084 
L 276.790043 230.214817 
L 277.193479 230.678718 
L 277.596915 230.961726 
L 278.000352 230.816749 
L 278.403788 230.465591 
L 278.807224 231.133556 
L 279.21066 231.135122 
L 279.614096 230.929586 
L 280.017532 230.427531 
L 280.420968 230.773506 
L 280.824404 231.279189 
L 281.22784 230.810382 
L 281.631277 230.919663 
L 282.034713 230.738467 
L 282.438149 231.020681 
L 282.841585 231.685928 
L 283.245021 231.413097 
L 283.648457 231.373272 
L 284.051893 231.776553 
L 284.455329 231.449691 
L 284.858766 231.327465 
L 285.262202 231.769359 
L 285.665638 231.289719 
L 286.069074 231.428874 
L 286.47251 231.298214 
L 286.875946 231.675376 
L 287.279382 231.563967 
L 287.682818 231.285237 
L 288.086254 231.253091 
L 288.489691 231.562682 
L 288.893127 231.545725 
L 289.296563 232.026209 
L 289.699999 231.943521 
L 290.506871 232.256089 
L 290.910307 232.14076 
L 291.313743 232.393491 
L 291.717179 231.865222 
L 292.927488 232.752169 
L 293.73436 232.025508 
L 294.137796 232.612627 
L 294.541232 232.896743 
L 294.944668 232.50989 
L 295.348104 232.491003 
L 295.751541 233.021218 
L 296.154977 232.41471 
L 296.961849 232.763354 
L 297.365285 233.009834 
L 297.768721 232.895216 
L 298.172157 233.197657 
L 298.575593 233.292798 
L 299.785902 233.199724 
L 300.189338 233.560899 
L 300.592774 233.351736 
L 301.399646 233.327231 
L 301.803082 232.890574 
L 302.206518 232.963184 
L 302.609954 233.494948 
L 303.416827 233.483691 
L 303.820263 233.2602 
L 304.627135 233.59515 
L 305.030571 233.266578 
L 305.434007 233.668482 
L 305.837443 233.455129 
L 306.24088 234.004821 
L 307.047752 233.490351 
L 307.451188 234.173377 
L 307.854624 234.221465 
L 308.25806 233.597796 
L 308.661496 233.708792 
L 309.468368 234.246202 
L 309.871805 234.322196 
L 310.275241 233.924951 
L 311.485549 234.057452 
L 311.888985 234.497268 
L 312.292421 234.405054 
L 313.50273 234.582193 
L 313.906166 234.630205 
L 314.309602 234.495289 
L 314.713038 234.554155 
L 315.116474 234.295277 
L 315.51991 234.473 
L 315.923346 234.355058 
L 316.326782 234.532153 
L 316.730218 235.035714 
L 317.133655 234.277051 
L 317.537091 234.135989 
L 317.940527 234.787299 
L 318.343963 234.693895 
L 318.747399 234.280679 
L 319.150835 234.26688 
L 319.957707 234.78903 
L 320.361143 234.398103 
L 320.76458 234.465762 
L 321.168016 234.948991 
L 321.974888 234.160598 
L 322.378324 234.697484 
L 322.78176 234.631925 
L 323.185196 234.061262 
L 323.588632 234.626236 
L 323.992068 234.59699 
L 324.395505 234.173636 
L 324.798941 234.534827 
L 325.202377 234.719105 
L 326.412685 233.932608 
L 326.816121 234.557364 
L 327.219557 234.619521 
L 327.622994 234.060959 
L 328.833302 234.636445 
L 329.236738 234.568753 
L 329.640174 234.766472 
L 330.04361 234.722832 
L 330.447046 234.537203 
L 331.253919 234.742832 
L 331.657355 234.913086 
L 332.060791 234.457735 
L 332.464227 234.421042 
L 332.867663 234.616897 
L 333.271099 234.980773 
L 334.077971 234.49041 
L 334.481407 234.768826 
L 335.28828 234.421565 
L 336.095152 234.853602 
L 336.902024 234.924365 
L 337.708896 235.028939 
L 338.112332 234.722473 
L 338.515769 234.703035 
L 338.919205 235.074072 
L 339.322641 235.026866 
L 339.726077 234.351629 
L 340.129513 234.582298 
L 340.532949 234.543653 
L 341.339821 234.97537 
L 341.743257 234.55415 
L 342.146694 234.914514 
L 342.55013 234.58124 
L 343.357002 234.645878 
L 343.760438 234.948881 
L 344.163874 234.873862 
L 344.56731 234.382474 
L 344.970746 234.671419 
L 345.374183 234.40162 
L 345.777619 234.483662 
L 346.181055 235.002923 
L 346.584491 235.229656 
L 346.987927 234.819467 
L 347.391363 234.60118 
L 347.794799 235.003921 
L 348.198235 234.9285 
L 348.601671 234.512373 
L 349.005108 234.604818 
L 349.408544 234.962498 
L 349.81198 234.754409 
L 350.215416 234.728764 
L 351.425724 235.006865 
L 352.232596 234.909789 
L 352.636033 235.174026 
L 353.039469 235.171738 
L 353.442905 234.805183 
L 354.249777 235.108665 
L 355.056649 234.916162 
L 355.460085 234.950998 
L 355.863521 235.251961 
L 356.670394 235.203029 
L 357.477266 234.705036 
L 358.284138 235.267562 
L 358.687574 235.186981 
L 359.09101 234.986975 
L 359.494446 235.012235 
L 359.897883 235.273886 
L 360.301319 234.868597 
L 360.704755 235.347273 
L 361.511627 234.930209 
L 361.915063 235.110203 
L 362.318499 234.760832 
L 362.721935 234.585633 
L 363.125371 234.846061 
L 363.528808 234.866271 
L 363.932244 235.018828 
L 364.33568 235.044661 
L 364.739116 234.605959 
L 365.142552 234.787801 
L 365.949424 234.608909 
L 366.35286 234.787161 
L 366.756297 234.779752 
L 367.159733 234.609642 
L 367.563169 234.849308 
L 368.773477 234.60876 
L 369.176913 234.920352 
L 369.580349 235.003927 
L 370.387222 234.69777 
L 370.790658 234.343454 
L 371.194094 234.819825 
L 371.59753 235.100584 
L 372.000966 235.008221 
L 372.404402 234.670912 
L 373.211274 234.975034 
L 373.61471 234.778705 
L 374.018147 234.922998 
L 374.421583 234.87325 
L 375.228455 235.083207 
L 375.631891 234.767563 
L 376.035327 234.756758 
L 376.438763 235.063168 
L 376.842199 234.94135 
L 377.245635 234.700836 
L 378.052508 235.004048 
L 378.455944 234.992223 
L 378.85938 234.728758 
L 379.262816 234.847202 
L 379.666252 235.111008 
L 380.069688 234.932177 
L 381.279997 235.145149 
L 382.086869 235.148953 
L 382.893741 234.768081 
L 383.297177 235.09764 
L 384.104049 234.869 
L 384.507485 235.189214 
L 384.910922 234.744486 
L 385.314358 235.039904 
L 385.717794 235.012339 
L 386.12123 234.86782 
L 386.524666 234.983865 
L 387.331538 234.379001 
L 389.348719 235.013299 
L 389.752155 234.927033 
L 390.155591 234.626054 
L 390.559027 234.761708 
L 390.962463 235.071509 
L 391.365899 234.887876 
L 391.769336 234.398869 
L 392.576208 234.811776 
L 392.979644 234.835801 
L 393.786516 234.632487 
L 394.189952 234.769178 
L 394.593388 234.416185 
L 394.996824 234.426549 
L 395.400261 234.816793 
L 396.207133 234.284147 
L 396.610569 234.560153 
L 397.417441 233.915667 
L 397.820877 233.967527 
L 398.224313 234.204783 
L 398.627749 234.050903 
L 399.434622 234.308508 
L 399.838058 234.636175 
L 400.241494 234.529794 
L 401.048366 233.949593 
L 401.451802 234.511265 
L 401.855238 234.453518 
L 402.258674 233.970184 
L 402.662111 234.438065 
L 403.065547 234.606555 
L 404.275855 234.365847 
L 405.082727 234.739172 
L 405.082727 234.739172 
" style="fill:none;stroke:#1f77b4;stroke-linecap:square;stroke-width:1.5;"/>
   </g>
   <g id="patch_3">
    <path d="M 66.62 246.04 
L 66.62 10.8 
" style="fill:none;stroke:#000000;stroke-linecap:square;stroke-linejoin:miter;stroke-width:0.8;"/>
   </g>
   <g id="patch_4">
    <path d="M 421.2 246.04 
L 421.2 10.8 
" style="fill:none;stroke:#000000;stroke-linecap:square;stroke-linejoin:miter;stroke-width:0.8;"/>
   </g>
   <g id="patch_5">
    <path d="M 66.62 246.04 
L 421.2 246.04 
" style="fill:none;stroke:#000000;stroke-linecap:square;stroke-linejoin:miter;stroke-width:0.8;"/>
   </g>
   <g id="patch_6">
    <path d="M 66.62 10.8 
L 421.2 10.8 
" style="fill:none;stroke:#000000;stroke-linecap:square;stroke-linejoin:miter;stroke-width:0.8;"/>
   </g>
  </g>
 </g>
 <defs>
  <clipPath id="p54b3e8b5ee">
   <rect height="235.24" width="354.58" x="66.62" y="10.8"/>
  </clipPath>
 </defs>
</svg>
