<?xml version="1.0" encoding="utf-8" standalone="no"?>
<!DOCTYPE svg PUBLIC "-//W3C//DTD SVG 1.1//EN"
  "http://www.w3.org/Graphics/SVG/1.1/DTD/svg11.dtd">
<svg height="288pt" version="1.1" viewBox="0 0 432 288" width="432pt" xmlns="http://www.w3.org/2000/svg" xmlns:xlink="http://www.w3.org/1999/xlink">
 <metadata>
  <rdf:RDF xmlns:cc="http://creativecommons.org/ns#" xmlns:dc="http://purl.org/dc/elements/1.1/" xmlns:rdf="http://www.w3.org/1999/02/22-rdf-syntax-ns#">
   <cc:Work>
    <dc:type rdf:resource="http://purl.org/dc/dcmitype/StillImage"/>
    <dc:date>2021-05-08T19:53:31.231232</dc:date>
    <dc:format>image/svg+xml</dc:format>
    <dc:creator>
     <cc:Agent>
      <dc:title>Matplotlib v3.4.2, https://matplotlib.org/</dc:title>
     </cc:Agent>
    </dc:creator>
   </cc:Work>
  </rdf:RDF>
 </metadata>
 <defs>
  <style type="text/css">*{stroke-linecap:butt;stroke-linejoin:round;}</style>
 </defs>
 <g id="figure_1">
  <g id="patch_1">
   <path d="M 0 288 
L 432 288 
L 432 0 
L 0 0 
z
" style="fill:#ffffff;"/>
  </g>
  <g id="axes_1">
   <g id="patch_2">
    <path d="M 66.62 246.04 
L 421.2 246.04 
L 421.2 10.8 
L 66.62 10.8 
z
" style="fill:#ffffff;"/>
   </g>
   <g id="matplotlib.axis_1">
    <g id="xtick_1">
     <g id="line2d_1">
      <defs>
       <path d="M 0 0 
L 0 3.5 
" id="md88340d324" style="stroke:#000000;stroke-width:0.8;"/>
      </defs>
      <g>
       <use style="stroke:#000000;stroke-width:0.8;" x="82.737273" xlink:href="#md88340d324" y="246.04"/>
      </g>
     </g>
     <g id="text_1">
      <!-- 0 -->
      <g transform="translate(79.556023 260.638438)scale(0.1 -0.1)">
       <defs>
        <path d="M 2034 4250 
Q 1547 4250 1301 3770 
Q 1056 3291 1056 2328 
Q 1056 1369 1301 889 
Q 1547 409 2034 409 
Q 2525 409 2770 889 
Q 3016 1369 3016 2328 
Q 3016 3291 2770 3770 
Q 2525 4250 2034 4250 
z
M 2034 4750 
Q 2819 4750 3233 4129 
Q 3647 3509 3647 2328 
Q 3647 1150 3233 529 
Q 2819 -91 2034 -91 
Q 1250 -91 836 529 
Q 422 1150 422 2328 
Q 422 3509 836 4129 
Q 1250 4750 2034 4750 
z
" id="DejaVuSans-30" transform="scale(0.015625)"/>
       </defs>
       <use xlink:href="#DejaVuSans-30"/>
      </g>
     </g>
    </g>
    <g id="xtick_2">
     <g id="line2d_2">
      <g>
       <use style="stroke:#000000;stroke-width:0.8;" x="123.080884" xlink:href="#md88340d324" y="246.04"/>
      </g>
     </g>
     <g id="text_2">
      <!-- 100 -->
      <g transform="translate(113.537134 260.638438)scale(0.1 -0.1)">
       <defs>
        <path d="M 794 531 
L 1825 531 
L 1825 4091 
L 703 3866 
L 703 4441 
L 1819 4666 
L 2450 4666 
L 2450 531 
L 3481 531 
L 3481 0 
L 794 0 
L 794 531 
z
" id="DejaVuSans-31" transform="scale(0.015625)"/>
       </defs>
       <use xlink:href="#DejaVuSans-31"/>
       <use x="63.623047" xlink:href="#DejaVuSans-30"/>
       <use x="127.246094" xlink:href="#DejaVuSans-30"/>
      </g>
     </g>
    </g>
    <g id="xtick_3">
     <g id="line2d_3">
      <g>
       <use style="stroke:#000000;stroke-width:0.8;" x="163.424495" xlink:href="#md88340d324" y="246.04"/>
      </g>
     </g>
     <g id="text_3">
      <!-- 200 -->
      <g transform="translate(153.880745 260.638438)scale(0.1 -0.1)">
       <defs>
        <path d="M 1228 531 
L 3431 531 
L 3431 0 
L 469 0 
L 469 531 
Q 828 903 1448 1529 
Q 2069 2156 2228 2338 
Q 2531 2678 2651 2914 
Q 2772 3150 2772 3378 
Q 2772 3750 2511 3984 
Q 2250 4219 1831 4219 
Q 1534 4219 1204 4116 
Q 875 4013 500 3803 
L 500 4441 
Q 881 4594 1212 4672 
Q 1544 4750 1819 4750 
Q 2544 4750 2975 4387 
Q 3406 4025 3406 3419 
Q 3406 3131 3298 2873 
Q 3191 2616 2906 2266 
Q 2828 2175 2409 1742 
Q 1991 1309 1228 531 
z
" id="DejaVuSans-32" transform="scale(0.015625)"/>
       </defs>
       <use xlink:href="#DejaVuSans-32"/>
       <use x="63.623047" xlink:href="#DejaVuSans-30"/>
       <use x="127.246094" xlink:href="#DejaVuSans-30"/>
      </g>
     </g>
    </g>
    <g id="xtick_4">
     <g id="line2d_4">
      <g>
       <use style="stroke:#000000;stroke-width:0.8;" x="203.768107" xlink:href="#md88340d324" y="246.04"/>
      </g>
     </g>
     <g id="text_4">
      <!-- 300 -->
      <g transform="translate(194.224357 260.638438)scale(0.1 -0.1)">
       <defs>
        <path d="M 2597 2516 
Q 3050 2419 3304 2112 
Q 3559 1806 3559 1356 
Q 3559 666 3084 287 
Q 2609 -91 1734 -91 
Q 1441 -91 1130 -33 
Q 819 25 488 141 
L 488 750 
Q 750 597 1062 519 
Q 1375 441 1716 441 
Q 2309 441 2620 675 
Q 2931 909 2931 1356 
Q 2931 1769 2642 2001 
Q 2353 2234 1838 2234 
L 1294 2234 
L 1294 2753 
L 1863 2753 
Q 2328 2753 2575 2939 
Q 2822 3125 2822 3475 
Q 2822 3834 2567 4026 
Q 2313 4219 1838 4219 
Q 1578 4219 1281 4162 
Q 984 4106 628 3988 
L 628 4550 
Q 988 4650 1302 4700 
Q 1616 4750 1894 4750 
Q 2613 4750 3031 4423 
Q 3450 4097 3450 3541 
Q 3450 3153 3228 2886 
Q 3006 2619 2597 2516 
z
" id="DejaVuSans-33" transform="scale(0.015625)"/>
       </defs>
       <use xlink:href="#DejaVuSans-33"/>
       <use x="63.623047" xlink:href="#DejaVuSans-30"/>
       <use x="127.246094" xlink:href="#DejaVuSans-30"/>
      </g>
     </g>
    </g>
    <g id="xtick_5">
     <g id="line2d_5">
      <g>
       <use style="stroke:#000000;stroke-width:0.8;" x="244.111718" xlink:href="#md88340d324" y="246.04"/>
      </g>
     </g>
     <g id="text_5">
      <!-- 400 -->
      <g transform="translate(234.567968 260.638438)scale(0.1 -0.1)">
       <defs>
        <path d="M 2419 4116 
L 825 1625 
L 2419 1625 
L 2419 4116 
z
M 2253 4666 
L 3047 4666 
L 3047 1625 
L 3713 1625 
L 3713 1100 
L 3047 1100 
L 3047 0 
L 2419 0 
L 2419 1100 
L 313 1100 
L 313 1709 
L 2253 4666 
z
" id="DejaVuSans-34" transform="scale(0.015625)"/>
       </defs>
       <use xlink:href="#DejaVuSans-34"/>
       <use x="63.623047" xlink:href="#DejaVuSans-30"/>
       <use x="127.246094" xlink:href="#DejaVuSans-30"/>
      </g>
     </g>
    </g>
    <g id="xtick_6">
     <g id="line2d_6">
      <g>
       <use style="stroke:#000000;stroke-width:0.8;" x="284.455329" xlink:href="#md88340d324" y="246.04"/>
      </g>
     </g>
     <g id="text_6">
      <!-- 500 -->
      <g transform="translate(274.911579 260.638438)scale(0.1 -0.1)">
       <defs>
        <path d="M 691 4666 
L 3169 4666 
L 3169 4134 
L 1269 4134 
L 1269 2991 
Q 1406 3038 1543 3061 
Q 1681 3084 1819 3084 
Q 2600 3084 3056 2656 
Q 3513 2228 3513 1497 
Q 3513 744 3044 326 
Q 2575 -91 1722 -91 
Q 1428 -91 1123 -41 
Q 819 9 494 109 
L 494 744 
Q 775 591 1075 516 
Q 1375 441 1709 441 
Q 2250 441 2565 725 
Q 2881 1009 2881 1497 
Q 2881 1984 2565 2268 
Q 2250 2553 1709 2553 
Q 1456 2553 1204 2497 
Q 953 2441 691 2322 
L 691 4666 
z
" id="DejaVuSans-35" transform="scale(0.015625)"/>
       </defs>
       <use xlink:href="#DejaVuSans-35"/>
       <use x="63.623047" xlink:href="#DejaVuSans-30"/>
       <use x="127.246094" xlink:href="#DejaVuSans-30"/>
      </g>
     </g>
    </g>
    <g id="xtick_7">
     <g id="line2d_7">
      <g>
       <use style="stroke:#000000;stroke-width:0.8;" x="324.798941" xlink:href="#md88340d324" y="246.04"/>
      </g>
     </g>
     <g id="text_7">
      <!-- 600 -->
      <g transform="translate(315.255191 260.638438)scale(0.1 -0.1)">
       <defs>
        <path d="M 2113 2584 
Q 1688 2584 1439 2293 
Q 1191 2003 1191 1497 
Q 1191 994 1439 701 
Q 1688 409 2113 409 
Q 2538 409 2786 701 
Q 3034 994 3034 1497 
Q 3034 2003 2786 2293 
Q 2538 2584 2113 2584 
z
M 3366 4563 
L 3366 3988 
Q 3128 4100 2886 4159 
Q 2644 4219 2406 4219 
Q 1781 4219 1451 3797 
Q 1122 3375 1075 2522 
Q 1259 2794 1537 2939 
Q 1816 3084 2150 3084 
Q 2853 3084 3261 2657 
Q 3669 2231 3669 1497 
Q 3669 778 3244 343 
Q 2819 -91 2113 -91 
Q 1303 -91 875 529 
Q 447 1150 447 2328 
Q 447 3434 972 4092 
Q 1497 4750 2381 4750 
Q 2619 4750 2861 4703 
Q 3103 4656 3366 4563 
z
" id="DejaVuSans-36" transform="scale(0.015625)"/>
       </defs>
       <use xlink:href="#DejaVuSans-36"/>
       <use x="63.623047" xlink:href="#DejaVuSans-30"/>
       <use x="127.246094" xlink:href="#DejaVuSans-30"/>
      </g>
     </g>
    </g>
    <g id="xtick_8">
     <g id="line2d_8">
      <g>
       <use style="stroke:#000000;stroke-width:0.8;" x="365.142552" xlink:href="#md88340d324" y="246.04"/>
      </g>
     </g>
     <g id="text_8">
      <!-- 700 -->
      <g transform="translate(355.598802 260.638438)scale(0.1 -0.1)">
       <defs>
        <path d="M 525 4666 
L 3525 4666 
L 3525 4397 
L 1831 0 
L 1172 0 
L 2766 4134 
L 525 4134 
L 525 4666 
z
" id="DejaVuSans-37" transform="scale(0.015625)"/>
       </defs>
       <use xlink:href="#DejaVuSans-37"/>
       <use x="63.623047" xlink:href="#DejaVuSans-30"/>
       <use x="127.246094" xlink:href="#DejaVuSans-30"/>
      </g>
     </g>
    </g>
    <g id="xtick_9">
     <g id="line2d_9">
      <g>
       <use style="stroke:#000000;stroke-width:0.8;" x="405.486163" xlink:href="#md88340d324" y="246.04"/>
      </g>
     </g>
     <g id="text_9">
      <!-- 800 -->
      <g transform="translate(395.942413 260.638438)scale(0.1 -0.1)">
       <defs>
        <path d="M 2034 2216 
Q 1584 2216 1326 1975 
Q 1069 1734 1069 1313 
Q 1069 891 1326 650 
Q 1584 409 2034 409 
Q 2484 409 2743 651 
Q 3003 894 3003 1313 
Q 3003 1734 2745 1975 
Q 2488 2216 2034 2216 
z
M 1403 2484 
Q 997 2584 770 2862 
Q 544 3141 544 3541 
Q 544 4100 942 4425 
Q 1341 4750 2034 4750 
Q 2731 4750 3128 4425 
Q 3525 4100 3525 3541 
Q 3525 3141 3298 2862 
Q 3072 2584 2669 2484 
Q 3125 2378 3379 2068 
Q 3634 1759 3634 1313 
Q 3634 634 3220 271 
Q 2806 -91 2034 -91 
Q 1263 -91 848 271 
Q 434 634 434 1313 
Q 434 1759 690 2068 
Q 947 2378 1403 2484 
z
M 1172 3481 
Q 1172 3119 1398 2916 
Q 1625 2713 2034 2713 
Q 2441 2713 2670 2916 
Q 2900 3119 2900 3481 
Q 2900 3844 2670 4047 
Q 2441 4250 2034 4250 
Q 1625 4250 1398 4047 
Q 1172 3844 1172 3481 
z
" id="DejaVuSans-38" transform="scale(0.015625)"/>
       </defs>
       <use xlink:href="#DejaVuSans-38"/>
       <use x="63.623047" xlink:href="#DejaVuSans-30"/>
       <use x="127.246094" xlink:href="#DejaVuSans-30"/>
      </g>
     </g>
    </g>
    <g id="text_10">
     <!-- Epoch -->
     <g transform="translate(228.599063 274.316562)scale(0.1 -0.1)">
      <defs>
       <path d="M 628 4666 
L 3578 4666 
L 3578 4134 
L 1259 4134 
L 1259 2753 
L 3481 2753 
L 3481 2222 
L 1259 2222 
L 1259 531 
L 3634 531 
L 3634 0 
L 628 0 
L 628 4666 
z
" id="DejaVuSans-45" transform="scale(0.015625)"/>
       <path d="M 1159 525 
L 1159 -1331 
L 581 -1331 
L 581 3500 
L 1159 3500 
L 1159 2969 
Q 1341 3281 1617 3432 
Q 1894 3584 2278 3584 
Q 2916 3584 3314 3078 
Q 3713 2572 3713 1747 
Q 3713 922 3314 415 
Q 2916 -91 2278 -91 
Q 1894 -91 1617 61 
Q 1341 213 1159 525 
z
M 3116 1747 
Q 3116 2381 2855 2742 
Q 2594 3103 2138 3103 
Q 1681 3103 1420 2742 
Q 1159 2381 1159 1747 
Q 1159 1113 1420 752 
Q 1681 391 2138 391 
Q 2594 391 2855 752 
Q 3116 1113 3116 1747 
z
" id="DejaVuSans-70" transform="scale(0.015625)"/>
       <path d="M 1959 3097 
Q 1497 3097 1228 2736 
Q 959 2375 959 1747 
Q 959 1119 1226 758 
Q 1494 397 1959 397 
Q 2419 397 2687 759 
Q 2956 1122 2956 1747 
Q 2956 2369 2687 2733 
Q 2419 3097 1959 3097 
z
M 1959 3584 
Q 2709 3584 3137 3096 
Q 3566 2609 3566 1747 
Q 3566 888 3137 398 
Q 2709 -91 1959 -91 
Q 1206 -91 779 398 
Q 353 888 353 1747 
Q 353 2609 779 3096 
Q 1206 3584 1959 3584 
z
" id="DejaVuSans-6f" transform="scale(0.015625)"/>
       <path d="M 3122 3366 
L 3122 2828 
Q 2878 2963 2633 3030 
Q 2388 3097 2138 3097 
Q 1578 3097 1268 2742 
Q 959 2388 959 1747 
Q 959 1106 1268 751 
Q 1578 397 2138 397 
Q 2388 397 2633 464 
Q 2878 531 3122 666 
L 3122 134 
Q 2881 22 2623 -34 
Q 2366 -91 2075 -91 
Q 1284 -91 818 406 
Q 353 903 353 1747 
Q 353 2603 823 3093 
Q 1294 3584 2113 3584 
Q 2378 3584 2631 3529 
Q 2884 3475 3122 3366 
z
" id="DejaVuSans-63" transform="scale(0.015625)"/>
       <path d="M 3513 2113 
L 3513 0 
L 2938 0 
L 2938 2094 
Q 2938 2591 2744 2837 
Q 2550 3084 2163 3084 
Q 1697 3084 1428 2787 
Q 1159 2491 1159 1978 
L 1159 0 
L 581 0 
L 581 4863 
L 1159 4863 
L 1159 2956 
Q 1366 3272 1645 3428 
Q 1925 3584 2291 3584 
Q 2894 3584 3203 3211 
Q 3513 2838 3513 2113 
z
" id="DejaVuSans-68" transform="scale(0.015625)"/>
      </defs>
      <use xlink:href="#DejaVuSans-45"/>
      <use x="63.183594" xlink:href="#DejaVuSans-70"/>
      <use x="126.660156" xlink:href="#DejaVuSans-6f"/>
      <use x="187.841797" xlink:href="#DejaVuSans-63"/>
      <use x="242.822266" xlink:href="#DejaVuSans-68"/>
     </g>
    </g>
   </g>
   <g id="matplotlib.axis_2">
    <g id="ytick_1">
     <g id="line2d_10">
      <defs>
       <path d="M 0 0 
L -3.5 0 
" id="m89bd894823" style="stroke:#000000;stroke-width:0.8;"/>
      </defs>
      <g>
       <use style="stroke:#000000;stroke-width:0.8;" x="66.62" xlink:href="#m89bd894823" y="225.058036"/>
      </g>
     </g>
     <g id="text_11">
      <!-- 0.0010 -->
      <g transform="translate(24.629375 228.857255)scale(0.1 -0.1)">
       <defs>
        <path d="M 684 794 
L 1344 794 
L 1344 0 
L 684 0 
L 684 794 
z
" id="DejaVuSans-2e" transform="scale(0.015625)"/>
       </defs>
       <use xlink:href="#DejaVuSans-30"/>
       <use x="63.623047" xlink:href="#DejaVuSans-2e"/>
       <use x="95.410156" xlink:href="#DejaVuSans-30"/>
       <use x="159.033203" xlink:href="#DejaVuSans-30"/>
       <use x="222.65625" xlink:href="#DejaVuSans-31"/>
       <use x="286.279297" xlink:href="#DejaVuSans-30"/>
      </g>
     </g>
    </g>
    <g id="ytick_2">
     <g id="line2d_11">
      <g>
       <use style="stroke:#000000;stroke-width:0.8;" x="66.62" xlink:href="#m89bd894823" y="197.006804"/>
      </g>
     </g>
     <g id="text_12">
      <!-- 0.0015 -->
      <g transform="translate(24.629375 200.806023)scale(0.1 -0.1)">
       <use xlink:href="#DejaVuSans-30"/>
       <use x="63.623047" xlink:href="#DejaVuSans-2e"/>
       <use x="95.410156" xlink:href="#DejaVuSans-30"/>
       <use x="159.033203" xlink:href="#DejaVuSans-30"/>
       <use x="222.65625" xlink:href="#DejaVuSans-31"/>
       <use x="286.279297" xlink:href="#DejaVuSans-35"/>
      </g>
     </g>
    </g>
    <g id="ytick_3">
     <g id="line2d_12">
      <g>
       <use style="stroke:#000000;stroke-width:0.8;" x="66.62" xlink:href="#m89bd894823" y="168.955573"/>
      </g>
     </g>
     <g id="text_13">
      <!-- 0.0020 -->
      <g transform="translate(24.629375 172.754791)scale(0.1 -0.1)">
       <use xlink:href="#DejaVuSans-30"/>
       <use x="63.623047" xlink:href="#DejaVuSans-2e"/>
       <use x="95.410156" xlink:href="#DejaVuSans-30"/>
       <use x="159.033203" xlink:href="#DejaVuSans-30"/>
       <use x="222.65625" xlink:href="#DejaVuSans-32"/>
       <use x="286.279297" xlink:href="#DejaVuSans-30"/>
      </g>
     </g>
    </g>
    <g id="ytick_4">
     <g id="line2d_13">
      <g>
       <use style="stroke:#000000;stroke-width:0.8;" x="66.62" xlink:href="#m89bd894823" y="140.904341"/>
      </g>
     </g>
     <g id="text_14">
      <!-- 0.0025 -->
      <g transform="translate(24.629375 144.70356)scale(0.1 -0.1)">
       <use xlink:href="#DejaVuSans-30"/>
       <use x="63.623047" xlink:href="#DejaVuSans-2e"/>
       <use x="95.410156" xlink:href="#DejaVuSans-30"/>
       <use x="159.033203" xlink:href="#DejaVuSans-30"/>
       <use x="222.65625" xlink:href="#DejaVuSans-32"/>
       <use x="286.279297" xlink:href="#DejaVuSans-35"/>
      </g>
     </g>
    </g>
    <g id="ytick_5">
     <g id="line2d_14">
      <g>
       <use style="stroke:#000000;stroke-width:0.8;" x="66.62" xlink:href="#m89bd894823" y="112.853109"/>
      </g>
     </g>
     <g id="text_15">
      <!-- 0.0030 -->
      <g transform="translate(24.629375 116.652328)scale(0.1 -0.1)">
       <use xlink:href="#DejaVuSans-30"/>
       <use x="63.623047" xlink:href="#DejaVuSans-2e"/>
       <use x="95.410156" xlink:href="#DejaVuSans-30"/>
       <use x="159.033203" xlink:href="#DejaVuSans-30"/>
       <use x="222.65625" xlink:href="#DejaVuSans-33"/>
       <use x="286.279297" xlink:href="#DejaVuSans-30"/>
      </g>
     </g>
    </g>
    <g id="ytick_6">
     <g id="line2d_15">
      <g>
       <use style="stroke:#000000;stroke-width:0.8;" x="66.62" xlink:href="#m89bd894823" y="84.801877"/>
      </g>
     </g>
     <g id="text_16">
      <!-- 0.0035 -->
      <g transform="translate(24.629375 88.601096)scale(0.1 -0.1)">
       <use xlink:href="#DejaVuSans-30"/>
       <use x="63.623047" xlink:href="#DejaVuSans-2e"/>
       <use x="95.410156" xlink:href="#DejaVuSans-30"/>
       <use x="159.033203" xlink:href="#DejaVuSans-30"/>
       <use x="222.65625" xlink:href="#DejaVuSans-33"/>
       <use x="286.279297" xlink:href="#DejaVuSans-35"/>
      </g>
     </g>
    </g>
    <g id="ytick_7">
     <g id="line2d_16">
      <g>
       <use style="stroke:#000000;stroke-width:0.8;" x="66.62" xlink:href="#m89bd894823" y="56.750645"/>
      </g>
     </g>
     <g id="text_17">
      <!-- 0.0040 -->
      <g transform="translate(24.629375 60.549864)scale(0.1 -0.1)">
       <use xlink:href="#DejaVuSans-30"/>
       <use x="63.623047" xlink:href="#DejaVuSans-2e"/>
       <use x="95.410156" xlink:href="#DejaVuSans-30"/>
       <use x="159.033203" xlink:href="#DejaVuSans-30"/>
       <use x="222.65625" xlink:href="#DejaVuSans-34"/>
       <use x="286.279297" xlink:href="#DejaVuSans-30"/>
      </g>
     </g>
    </g>
    <g id="ytick_8">
     <g id="line2d_17">
      <g>
       <use style="stroke:#000000;stroke-width:0.8;" x="66.62" xlink:href="#m89bd894823" y="28.699414"/>
      </g>
     </g>
     <g id="text_18">
      <!-- 0.0045 -->
      <g transform="translate(24.629375 32.498632)scale(0.1 -0.1)">
       <use xlink:href="#DejaVuSans-30"/>
       <use x="63.623047" xlink:href="#DejaVuSans-2e"/>
       <use x="95.410156" xlink:href="#DejaVuSans-30"/>
       <use x="159.033203" xlink:href="#DejaVuSans-30"/>
       <use x="222.65625" xlink:href="#DejaVuSans-34"/>
       <use x="286.279297" xlink:href="#DejaVuSans-35"/>
      </g>
     </g>
    </g>
    <g id="text_19">
     <!-- Loss -->
     <g transform="translate(18.549688 139.387188)rotate(-90)scale(0.1 -0.1)">
      <defs>
       <path d="M 628 4666 
L 1259 4666 
L 1259 531 
L 3531 531 
L 3531 0 
L 628 0 
L 628 4666 
z
" id="DejaVuSans-4c" transform="scale(0.015625)"/>
       <path d="M 2834 3397 
L 2834 2853 
Q 2591 2978 2328 3040 
Q 2066 3103 1784 3103 
Q 1356 3103 1142 2972 
Q 928 2841 928 2578 
Q 928 2378 1081 2264 
Q 1234 2150 1697 2047 
L 1894 2003 
Q 2506 1872 2764 1633 
Q 3022 1394 3022 966 
Q 3022 478 2636 193 
Q 2250 -91 1575 -91 
Q 1294 -91 989 -36 
Q 684 19 347 128 
L 347 722 
Q 666 556 975 473 
Q 1284 391 1588 391 
Q 1994 391 2212 530 
Q 2431 669 2431 922 
Q 2431 1156 2273 1281 
Q 2116 1406 1581 1522 
L 1381 1569 
Q 847 1681 609 1914 
Q 372 2147 372 2553 
Q 372 3047 722 3315 
Q 1072 3584 1716 3584 
Q 2034 3584 2315 3537 
Q 2597 3491 2834 3397 
z
" id="DejaVuSans-73" transform="scale(0.015625)"/>
      </defs>
      <use xlink:href="#DejaVuSans-4c"/>
      <use x="53.962891" xlink:href="#DejaVuSans-6f"/>
      <use x="115.144531" xlink:href="#DejaVuSans-73"/>
      <use x="167.244141" xlink:href="#DejaVuSans-73"/>
     </g>
    </g>
   </g>
   <g id="line2d_18">
    <path clip-path="url(#p659cf1121a)" d="M 82.737273 21.492727 
L 83.140709 39.338152 
L 83.947581 59.207106 
L 84.351017 69.808876 
L 85.157889 83.256727 
L 85.561326 90.59277 
L 86.368198 96.370567 
L 87.981942 115.944812 
L 88.788814 123.934237 
L 90.805995 145.466546 
L 91.612867 150.76219 
L 92.016303 154.835175 
L 92.419739 157.667848 
L 93.630048 161.399029 
L 94.43692 166.359055 
L 95.243792 167.487654 
L 98.067845 179.158433 
L 98.874717 184.533442 
L 100.085026 190.283673 
L 100.488462 191.636678 
L 100.891898 192.069448 
L 101.295334 192.818406 
L 102.102206 196.524368 
L 102.505642 196.574737 
L 102.909078 196.386671 
L 103.312515 196.691401 
L 103.715951 197.93869 
L 104.119387 198.53091 
L 104.522823 198.10846 
L 104.926259 198.506087 
L 105.733131 199.839644 
L 106.136567 200.899977 
L 106.540003 201.299398 
L 106.94344 201.927555 
L 107.346876 202.117427 
L 107.750312 201.977811 
L 108.153748 202.741409 
L 108.557184 202.780213 
L 108.96062 202.648764 
L 109.364056 203.19456 
L 109.767492 203.391704 
L 110.170928 203.430556 
L 110.574365 203.26585 
L 110.977801 203.553318 
L 111.381237 203.511685 
L 112.188109 203.65159 
L 112.591545 203.984165 
L 112.994981 203.868219 
L 113.398417 204.005172 
L 113.801853 203.818901 
L 114.20529 204.177734 
L 115.012162 204.077464 
L 115.415598 204.172092 
L 115.819034 203.94288 
L 116.22247 204.170162 
L 116.625906 204.699066 
L 117.029342 204.196603 
L 117.432778 203.982075 
L 117.836215 204.875691 
L 118.643087 204.626308 
L 119.046523 204.718578 
L 119.449959 204.571567 
L 119.853395 205.071506 
L 120.660267 204.9121 
L 121.46714 205.230007 
L 121.870576 204.78124 
L 122.274012 204.760239 
L 122.677448 205.057546 
L 123.080884 205.119983 
L 123.48432 204.992682 
L 124.291192 205.533906 
L 125.098065 204.968781 
L 125.501501 204.984209 
L 125.904937 205.126955 
L 126.308373 205.445875 
L 126.711809 205.497155 
L 127.115245 205.181198 
L 127.518681 205.150325 
L 128.325554 205.993021 
L 128.72899 206.088196 
L 129.132426 205.777308 
L 129.535862 205.807683 
L 129.939298 206.641086 
L 131.149606 206.564234 
L 131.553042 207.460096 
L 131.956479 207.786513 
L 132.359915 207.926199 
L 132.763351 207.633264 
L 133.973659 208.693741 
L 134.377095 208.61019 
L 134.780531 208.232284 
L 135.183967 208.7256 
L 135.587404 208.912728 
L 135.99084 209.575305 
L 136.394276 209.51035 
L 137.201148 209.851048 
L 137.604584 209.736437 
L 138.00802 210.132917 
L 138.814892 210.282597 
L 139.621765 210.945448 
L 140.025201 210.978105 
L 140.428637 211.228827 
L 140.832073 211.122753 
L 141.235509 211.322239 
L 141.638945 211.735026 
L 142.042381 211.688735 
L 142.445817 211.474239 
L 143.25269 212.004231 
L 143.656126 212.023282 
L 144.059562 212.189575 
L 144.866434 212.254145 
L 145.26987 212.519588 
L 145.673306 211.983546 
L 146.076743 212.192045 
L 146.480179 212.785262 
L 146.883615 212.781521 
L 147.690487 213.195412 
L 148.093923 213.048273 
L 149.304231 213.135585 
L 150.111104 213.931568 
L 150.51454 213.906622 
L 150.917976 213.491525 
L 151.321412 213.92287 
L 151.724848 214.641577 
L 152.128284 213.801303 
L 152.53172 213.852084 
L 152.935156 214.261522 
L 153.338593 214.483242 
L 153.742029 214.018672 
L 154.145465 214.216635 
L 154.548901 215.162625 
L 154.952337 214.287963 
L 155.355773 214.225167 
L 155.759209 214.739838 
L 156.162645 214.650129 
L 156.566081 214.704662 
L 156.969518 215.100531 
L 157.372954 214.763079 
L 157.77639 214.898323 
L 158.179826 215.238142 
L 158.583262 215.182608 
L 158.986698 215.442918 
L 159.390134 216.026938 
L 159.79357 215.191279 
L 160.600443 215.881106 
L 161.003879 215.423208 
L 161.407315 215.857982 
L 161.810751 216.581533 
L 162.214187 216.585225 
L 162.617623 216.16947 
L 163.021059 216.269505 
L 163.424495 216.64315 
L 163.827932 216.245706 
L 164.231368 216.835975 
L 165.03824 217.022192 
L 165.441676 216.804722 
L 165.845112 216.935045 
L 166.651984 217.682143 
L 167.458857 216.971148 
L 167.862293 217.699013 
L 168.669165 217.324173 
L 169.072601 217.932233 
L 169.476037 218.051625 
L 169.879473 218.441915 
L 170.686345 218.765589 
L 171.089782 218.161049 
L 171.493218 218.221069 
L 172.30009 219.068775 
L 173.106962 219.509836 
L 173.510398 219.118667 
L 173.913834 219.012292 
L 174.31727 219.681605 
L 175.124143 219.872522 
L 175.527579 220.27748 
L 175.931015 219.990408 
L 176.334451 220.061419 
L 176.737887 220.464496 
L 177.141323 220.463397 
L 177.544759 220.044533 
L 178.351632 220.767398 
L 179.158504 220.273906 
L 179.56194 220.856442 
L 179.965376 221.067385 
L 180.368812 220.57072 
L 180.772248 221.020634 
L 181.175684 221.048425 
L 181.57912 220.407782 
L 182.385993 221.172554 
L 182.789429 220.48263 
L 183.192865 220.768052 
L 183.596301 221.365422 
L 184.403173 220.882786 
L 185.613482 222.276669 
L 186.016918 221.703628 
L 186.82379 221.619027 
L 187.227226 221.213491 
L 187.630662 221.778761 
L 188.437534 222.205159 
L 188.840971 222.069557 
L 189.244407 222.337026 
L 189.647843 221.800035 
L 190.051279 222.053845 
L 190.454715 222.772165 
L 191.261587 222.208723 
L 191.665023 222.67855 
L 192.471896 222.847683 
L 192.875332 222.806077 
L 193.278768 222.58314 
L 193.682204 222.958838 
L 194.08564 222.57754 
L 194.489076 222.380401 
L 195.699384 223.138882 
L 196.102821 223.060191 
L 196.506257 223.156154 
L 196.909693 222.885223 
L 197.313129 222.904429 
L 198.120001 223.876361 
L 198.523437 223.806282 
L 198.926873 223.598029 
L 199.330309 224.027445 
L 199.733746 223.875519 
L 200.137182 224.502701 
L 200.540618 224.871239 
L 200.944054 224.615259 
L 201.34749 224.543332 
L 201.750926 224.804869 
L 202.154362 224.76733 
L 202.557798 224.966698 
L 202.961234 225.294519 
L 203.364671 225.388954 
L 203.768107 225.913394 
L 204.171543 225.436295 
L 204.574979 225.323286 
L 205.381851 226.055572 
L 205.785287 225.586564 
L 206.188723 225.601505 
L 206.59216 226.311771 
L 206.995596 226.3178 
L 207.399032 225.79754 
L 207.802468 225.929047 
L 208.205904 226.728775 
L 208.60934 227.216673 
L 209.012776 226.766663 
L 209.819648 227.471404 
L 210.223085 227.297775 
L 210.626521 227.308686 
L 211.029957 227.712266 
L 211.433393 227.854781 
L 211.836829 228.13695 
L 212.240265 228.02325 
L 212.643701 227.760143 
L 213.047137 228.293409 
L 213.450573 228.216455 
L 213.85401 227.816964 
L 214.257446 227.8196 
L 214.660882 228.717579 
L 215.064318 228.241449 
L 215.467754 227.467321 
L 215.87119 228.207634 
L 216.274626 228.649767 
L 216.678062 228.479251 
L 217.081498 228.020361 
L 217.484935 228.126516 
L 217.888371 228.903951 
L 218.291807 228.799715 
L 218.695243 228.359485 
L 219.502115 229.322301 
L 219.905551 228.739732 
L 220.308987 228.681052 
L 220.712423 229.115982 
L 221.11586 228.80076 
L 221.519296 229.17649 
L 221.922732 229.070185 
L 222.326168 229.313003 
L 223.13304 228.835995 
L 223.536476 229.300629 
L 223.939912 229.057216 
L 224.343349 229.511117 
L 224.746785 229.188794 
L 225.150221 229.52265 
L 225.553657 229.206345 
L 226.360529 229.229715 
L 226.763965 229.438713 
L 227.167401 229.327547 
L 227.570837 229.423258 
L 227.974274 229.787632 
L 228.37771 229.615873 
L 228.781146 229.664227 
L 229.184582 230.127484 
L 229.588018 229.872421 
L 229.991454 229.917934 
L 230.39489 229.576871 
L 230.798326 229.895647 
L 231.605199 229.982788 
L 232.008635 230.158228 
L 232.412071 229.939059 
L 232.815507 230.291848 
L 233.218943 230.422605 
L 233.622379 230.384895 
L 234.025815 230.692256 
L 234.429251 230.418731 
L 234.832687 230.783132 
L 235.236124 230.545469 
L 235.63956 230.597156 
L 236.042996 230.99519 
L 236.446432 230.526756 
L 236.849868 230.548304 
L 237.253304 230.793705 
L 237.65674 230.87111 
L 238.060176 230.578416 
L 238.463612 230.835928 
L 238.867049 230.844342 
L 239.270485 230.577168 
L 239.673921 230.569408 
L 240.077357 230.718359 
L 240.884229 230.349317 
L 241.287665 230.528809 
L 241.691101 230.964789 
L 242.094537 230.698333 
L 242.497974 230.698252 
L 242.90141 231.05446 
L 243.304846 230.569097 
L 243.708282 230.540368 
L 244.111718 231.037606 
L 244.515154 230.92673 
L 244.91859 230.519645 
L 245.322026 230.725524 
L 245.725463 230.553958 
L 246.128899 230.653382 
L 246.532335 230.462213 
L 247.339207 230.549473 
L 247.742643 230.670091 
L 248.146079 230.636293 
L 248.952951 231.094813 
L 249.356388 230.896672 
L 249.759824 230.344692 
L 250.16326 230.541311 
L 250.970132 231.411846 
L 251.777004 230.984338 
L 252.18044 231.676931 
L 252.583876 231.523141 
L 252.987313 230.844808 
L 253.390749 231.610378 
L 254.197621 231.532283 
L 254.601057 231.179789 
L 255.407929 231.479883 
L 255.811365 231.49133 
L 256.214801 231.376161 
L 256.618238 231.14031 
L 257.42511 232.031338 
L 258.231982 231.399194 
L 258.635418 231.874847 
L 259.038854 232.157594 
L 259.44229 231.920312 
L 259.845726 231.95664 
L 260.652599 231.626375 
L 261.056035 232.158403 
L 261.459471 232.079466 
L 261.862907 232.149668 
L 262.266343 232.069097 
L 262.669779 232.274745 
L 263.073215 232.154245 
L 263.476651 232.497859 
L 263.880088 232.432962 
L 264.283524 232.150376 
L 264.68696 232.346459 
L 265.090396 232.151415 
L 265.493832 232.380547 
L 265.897268 232.232233 
L 266.300704 232.557321 
L 267.107577 232.146056 
L 267.511013 232.517885 
L 267.914449 232.723421 
L 268.317885 232.574486 
L 268.721321 232.913309 
L 269.528193 232.457072 
L 269.931629 232.84472 
L 270.335065 232.915394 
L 271.141938 232.362021 
L 271.545374 232.774995 
L 272.352246 233.188897 
L 272.755682 232.525656 
L 273.159118 232.504231 
L 273.96599 232.969873 
L 274.369427 232.419501 
L 274.772863 232.80112 
L 275.579735 232.99552 
L 275.983171 232.736133 
L 276.386607 232.792733 
L 276.790043 232.562107 
L 277.193479 233.088642 
L 277.596915 233.357901 
L 278.000352 232.675389 
L 278.403788 232.632105 
L 278.807224 232.933518 
L 279.614096 232.632684 
L 280.017532 232.438611 
L 280.420968 232.830353 
L 280.824404 232.96759 
L 281.22784 233.24873 
L 282.034713 232.687318 
L 282.438149 232.998897 
L 282.841585 232.68316 
L 283.648457 233.838243 
L 284.051893 233.362805 
L 284.858766 233.527533 
L 285.262202 233.867096 
L 285.665638 233.927282 
L 286.069074 233.508032 
L 286.875946 233.564863 
L 287.279382 234.214311 
L 288.086254 233.282212 
L 288.489691 234.158348 
L 288.893127 234.137984 
L 289.296563 233.945239 
L 289.699999 234.453501 
L 290.103435 234.072782 
L 290.506871 234.445998 
L 290.910307 234.125717 
L 291.313743 234.5088 
L 291.717179 234.41922 
L 292.120616 234.149881 
L 292.524052 234.318981 
L 293.330924 234.4225 
L 293.73436 234.083875 
L 294.137796 234.503671 
L 294.541232 234.545235 
L 294.944668 233.975791 
L 295.348104 233.689806 
L 295.751541 233.785018 
L 296.154977 234.335337 
L 296.558413 234.267112 
L 296.961849 233.471746 
L 297.768721 234.353702 
L 298.172157 233.86328 
L 298.575593 233.845349 
L 298.979029 234.735273 
L 299.382466 234.170094 
L 299.785902 233.881656 
L 300.189338 234.166102 
L 300.592774 234.294255 
L 301.399646 234.068559 
L 302.206518 234.619494 
L 302.609954 234.029664 
L 303.416827 234.000576 
L 303.820263 234.470612 
L 304.627135 234.271925 
L 305.434007 234.565845 
L 305.837443 234.281104 
L 306.24088 234.278312 
L 307.047752 234.971387 
L 307.451188 234.576102 
L 307.854624 234.95471 
L 308.661496 234.523365 
L 309.064932 234.448271 
L 309.468368 234.888206 
L 309.871805 234.681062 
L 310.275241 234.261239 
L 310.678677 234.721163 
L 311.082113 234.324013 
L 311.485549 234.263956 
L 311.888985 235.092472 
L 312.292421 234.327609 
L 313.50273 234.448335 
L 313.906166 234.780577 
L 314.309602 234.394006 
L 314.713038 234.467702 
L 315.116474 234.870516 
L 315.51991 234.970337 
L 316.326782 234.50671 
L 317.537091 234.981875 
L 317.940527 234.515804 
L 319.150835 234.948392 
L 319.554271 234.407645 
L 319.957707 234.430576 
L 320.361143 235.188863 
L 320.76458 234.740026 
L 321.168016 234.754431 
L 321.571452 234.463034 
L 321.974888 234.795791 
L 322.378324 234.879985 
L 322.78176 234.220613 
L 323.588632 235.041911 
L 323.992068 235.014473 
L 324.395505 234.71066 
L 325.202377 234.930938 
L 325.605813 234.637896 
L 326.009249 234.823492 
L 326.412685 235.347273 
L 327.219557 234.637076 
L 327.622994 234.611016 
L 328.02643 234.828958 
L 328.833302 234.681614 
L 329.236738 234.987786 
L 331.253919 234.981934 
L 332.464227 234.646401 
L 332.867663 235.063421 
L 333.271099 235.074997 
L 333.674535 234.818406 
L 334.077971 234.973756 
L 334.884844 234.693398 
L 335.28828 234.878013 
L 335.691716 234.817318 
L 336.498588 234.269674 
L 336.902024 234.397307 
L 337.30546 234.80257 
L 338.515769 234.413925 
L 338.919205 234.482745 
L 339.726077 234.053254 
L 340.129513 234.518585 
L 340.532949 234.426985 
L 341.339821 234.85214 
L 342.953566 234.558831 
L 343.357002 234.290558 
L 343.760438 234.634048 
L 344.163874 234.455328 
L 344.56731 234.113311 
L 344.970746 234.462788 
L 345.374183 234.655522 
L 345.777619 234.061271 
L 346.181055 234.240237 
L 346.584491 234.660157 
L 347.391363 234.326714 
L 347.794799 234.653292 
L 348.198235 234.703082 
L 348.601671 234.565117 
L 349.408544 234.100284 
L 349.81198 234.233898 
L 350.215416 234.587383 
L 350.618852 234.349516 
L 351.022288 234.562051 
L 351.425724 234.420077 
L 351.82916 234.634268 
L 352.232596 234.668431 
L 352.636033 234.834408 
L 353.039469 234.616573 
L 353.442905 234.122078 
L 354.249777 234.833604 
L 355.056649 234.601831 
L 355.460085 234.846867 
L 355.863521 234.607248 
L 356.266958 234.537014 
L 356.670394 235.071813 
L 357.07383 234.784613 
L 357.477266 234.810309 
L 357.880702 234.551548 
L 358.284138 234.646304 
L 358.687574 234.248399 
L 359.494446 234.294234 
L 359.897883 234.582147 
L 360.301319 234.214348 
L 361.108191 235.040619 
L 361.511627 234.642499 
L 361.915063 234.558648 
L 362.318499 234.859557 
L 362.721935 234.635115 
L 363.125371 234.540937 
L 363.528808 234.802474 
L 363.932244 234.354586 
L 364.33568 234.806557 
L 364.739116 234.734721 
L 365.142552 234.313494 
L 365.545988 234.882488 
L 366.35286 234.927717 
L 366.756297 234.844665 
L 367.159733 234.599499 
L 367.563169 234.773418 
L 367.966605 234.701292 
L 368.370041 234.858116 
L 368.773477 234.587554 
L 369.580349 234.876384 
L 369.983785 234.461582 
L 370.387222 234.931313 
L 370.790658 234.66669 
L 371.194094 234.253126 
L 371.59753 234.819006 
L 372.000966 234.350192 
L 372.404402 234.472782 
L 372.807838 234.799762 
L 373.211274 234.500338 
L 373.61471 234.469106 
L 374.421583 234.900896 
L 375.228455 234.627752 
L 375.631891 234.895157 
L 376.035327 234.522626 
L 376.438763 234.811665 
L 377.649072 234.51194 
L 378.455944 234.935402 
L 378.85938 234.719529 
L 379.262816 234.734555 
L 379.666252 234.183567 
L 380.069688 234.363702 
L 380.473124 235.047366 
L 381.279997 234.407178 
L 381.683433 234.851176 
L 382.490305 234.705161 
L 382.893741 234.8107 
L 383.297177 235.156972 
L 383.700613 235.031311 
L 384.104049 234.423743 
L 384.507485 234.821107 
L 384.910922 235.022029 
L 385.717794 234.340792 
L 386.928102 234.641219 
L 387.331538 234.284122 
L 387.734974 234.813133 
L 388.541847 234.320798 
L 389.752155 234.782834 
L 390.155591 234.035671 
L 390.559027 234.028088 
L 391.365899 234.606423 
L 391.769336 234.479508 
L 392.172772 234.514711 
L 392.576208 234.755921 
L 392.979644 234.259052 
L 393.38308 234.839665 
L 393.786516 234.465993 
L 394.996824 234.528719 
L 395.400261 234.664026 
L 395.803697 234.279138 
L 396.207133 234.303719 
L 396.610569 234.927739 
L 397.417441 234.403406 
L 397.820877 234.59323 
L 398.224313 234.218041 
L 399.031186 234.443448 
L 399.434622 234.180389 
L 400.64493 234.777459 
L 401.048366 234.648469 
L 402.662111 234.897086 
L 403.065547 234.755262 
L 403.468983 234.238549 
L 404.275855 234.581317 
L 404.679291 234.525884 
L 405.082727 234.839075 
L 405.082727 234.839075 
" style="fill:none;stroke:#1f77b4;stroke-linecap:square;stroke-width:1.5;"/>
   </g>
   <g id="patch_3">
    <path d="M 66.62 246.04 
L 66.62 10.8 
" style="fill:none;stroke:#000000;stroke-linecap:square;stroke-linejoin:miter;stroke-width:0.8;"/>
   </g>
   <g id="patch_4">
    <path d="M 421.2 246.04 
L 421.2 10.8 
" style="fill:none;stroke:#000000;stroke-linecap:square;stroke-linejoin:miter;stroke-width:0.8;"/>
   </g>
   <g id="patch_5">
    <path d="M 66.62 246.04 
L 421.2 246.04 
" style="fill:none;stroke:#000000;stroke-linecap:square;stroke-linejoin:miter;stroke-width:0.8;"/>
   </g>
   <g id="patch_6">
    <path d="M 66.62 10.8 
L 421.2 10.8 
" style="fill:none;stroke:#000000;stroke-linecap:square;stroke-linejoin:miter;stroke-width:0.8;"/>
   </g>
  </g>
 </g>
 <defs>
  <clipPath id="p659cf1121a">
   <rect height="235.24" width="354.58" x="66.62" y="10.8"/>
  </clipPath>
 </defs>
</svg>
