<?xml version="1.0" encoding="utf-8" standalone="no"?>
<!DOCTYPE svg PUBLIC "-//W3C//DTD SVG 1.1//EN"
  "http://www.w3.org/Graphics/SVG/1.1/DTD/svg11.dtd">
<svg height="288pt" version="1.1" viewBox="0 0 432 288" width="432pt" xmlns="http://www.w3.org/2000/svg" xmlns:xlink="http://www.w3.org/1999/xlink">
 <metadata>
  <rdf:RDF xmlns:cc="http://creativecommons.org/ns#" xmlns:dc="http://purl.org/dc/elements/1.1/" xmlns:rdf="http://www.w3.org/1999/02/22-rdf-syntax-ns#">
   <cc:Work>
    <dc:type rdf:resource="http://purl.org/dc/dcmitype/StillImage"/>
    <dc:date>2021-05-08T17:07:02.704477</dc:date>
    <dc:format>image/svg+xml</dc:format>
    <dc:creator>
     <cc:Agent>
      <dc:title>Matplotlib v3.4.2, https://matplotlib.org/</dc:title>
     </cc:Agent>
    </dc:creator>
   </cc:Work>
  </rdf:RDF>
 </metadata>
 <defs>
  <style type="text/css">*{stroke-linecap:butt;stroke-linejoin:round;}</style>
 </defs>
 <g id="figure_1">
  <g id="patch_1">
   <path d="M 0 288 
L 432 288 
L 432 0 
L 0 0 
z
" style="fill:#ffffff;"/>
  </g>
  <g id="axes_1">
   <g id="patch_2">
    <path d="M 66.62 246.04 
L 421.2 246.04 
L 421.2 10.8 
L 66.62 10.8 
z
" style="fill:#ffffff;"/>
   </g>
   <g id="matplotlib.axis_1">
    <g id="xtick_1">
     <g id="line2d_1">
      <defs>
       <path d="M 0 0 
L 0 3.5 
" id="m603408bf8c" style="stroke:#000000;stroke-width:0.8;"/>
      </defs>
      <g>
       <use style="stroke:#000000;stroke-width:0.8;" x="82.737273" xlink:href="#m603408bf8c" y="246.04"/>
      </g>
     </g>
     <g id="text_1">
      <!-- 0 -->
      <g transform="translate(79.556023 260.638438)scale(0.1 -0.1)">
       <defs>
        <path d="M 2034 4250 
Q 1547 4250 1301 3770 
Q 1056 3291 1056 2328 
Q 1056 1369 1301 889 
Q 1547 409 2034 409 
Q 2525 409 2770 889 
Q 3016 1369 3016 2328 
Q 3016 3291 2770 3770 
Q 2525 4250 2034 4250 
z
M 2034 4750 
Q 2819 4750 3233 4129 
Q 3647 3509 3647 2328 
Q 3647 1150 3233 529 
Q 2819 -91 2034 -91 
Q 1250 -91 836 529 
Q 422 1150 422 2328 
Q 422 3509 836 4129 
Q 1250 4750 2034 4750 
z
" id="DejaVuSans-30" transform="scale(0.015625)"/>
       </defs>
       <use xlink:href="#DejaVuSans-30"/>
      </g>
     </g>
    </g>
    <g id="xtick_2">
     <g id="line2d_2">
      <g>
       <use style="stroke:#000000;stroke-width:0.8;" x="123.080884" xlink:href="#m603408bf8c" y="246.04"/>
      </g>
     </g>
     <g id="text_2">
      <!-- 100 -->
      <g transform="translate(113.537134 260.638438)scale(0.1 -0.1)">
       <defs>
        <path d="M 794 531 
L 1825 531 
L 1825 4091 
L 703 3866 
L 703 4441 
L 1819 4666 
L 2450 4666 
L 2450 531 
L 3481 531 
L 3481 0 
L 794 0 
L 794 531 
z
" id="DejaVuSans-31" transform="scale(0.015625)"/>
       </defs>
       <use xlink:href="#DejaVuSans-31"/>
       <use x="63.623047" xlink:href="#DejaVuSans-30"/>
       <use x="127.246094" xlink:href="#DejaVuSans-30"/>
      </g>
     </g>
    </g>
    <g id="xtick_3">
     <g id="line2d_3">
      <g>
       <use style="stroke:#000000;stroke-width:0.8;" x="163.424495" xlink:href="#m603408bf8c" y="246.04"/>
      </g>
     </g>
     <g id="text_3">
      <!-- 200 -->
      <g transform="translate(153.880745 260.638438)scale(0.1 -0.1)">
       <defs>
        <path d="M 1228 531 
L 3431 531 
L 3431 0 
L 469 0 
L 469 531 
Q 828 903 1448 1529 
Q 2069 2156 2228 2338 
Q 2531 2678 2651 2914 
Q 2772 3150 2772 3378 
Q 2772 3750 2511 3984 
Q 2250 4219 1831 4219 
Q 1534 4219 1204 4116 
Q 875 4013 500 3803 
L 500 4441 
Q 881 4594 1212 4672 
Q 1544 4750 1819 4750 
Q 2544 4750 2975 4387 
Q 3406 4025 3406 3419 
Q 3406 3131 3298 2873 
Q 3191 2616 2906 2266 
Q 2828 2175 2409 1742 
Q 1991 1309 1228 531 
z
" id="DejaVuSans-32" transform="scale(0.015625)"/>
       </defs>
       <use xlink:href="#DejaVuSans-32"/>
       <use x="63.623047" xlink:href="#DejaVuSans-30"/>
       <use x="127.246094" xlink:href="#DejaVuSans-30"/>
      </g>
     </g>
    </g>
    <g id="xtick_4">
     <g id="line2d_4">
      <g>
       <use style="stroke:#000000;stroke-width:0.8;" x="203.768107" xlink:href="#m603408bf8c" y="246.04"/>
      </g>
     </g>
     <g id="text_4">
      <!-- 300 -->
      <g transform="translate(194.224357 260.638438)scale(0.1 -0.1)">
       <defs>
        <path d="M 2597 2516 
Q 3050 2419 3304 2112 
Q 3559 1806 3559 1356 
Q 3559 666 3084 287 
Q 2609 -91 1734 -91 
Q 1441 -91 1130 -33 
Q 819 25 488 141 
L 488 750 
Q 750 597 1062 519 
Q 1375 441 1716 441 
Q 2309 441 2620 675 
Q 2931 909 2931 1356 
Q 2931 1769 2642 2001 
Q 2353 2234 1838 2234 
L 1294 2234 
L 1294 2753 
L 1863 2753 
Q 2328 2753 2575 2939 
Q 2822 3125 2822 3475 
Q 2822 3834 2567 4026 
Q 2313 4219 1838 4219 
Q 1578 4219 1281 4162 
Q 984 4106 628 3988 
L 628 4550 
Q 988 4650 1302 4700 
Q 1616 4750 1894 4750 
Q 2613 4750 3031 4423 
Q 3450 4097 3450 3541 
Q 3450 3153 3228 2886 
Q 3006 2619 2597 2516 
z
" id="DejaVuSans-33" transform="scale(0.015625)"/>
       </defs>
       <use xlink:href="#DejaVuSans-33"/>
       <use x="63.623047" xlink:href="#DejaVuSans-30"/>
       <use x="127.246094" xlink:href="#DejaVuSans-30"/>
      </g>
     </g>
    </g>
    <g id="xtick_5">
     <g id="line2d_5">
      <g>
       <use style="stroke:#000000;stroke-width:0.8;" x="244.111718" xlink:href="#m603408bf8c" y="246.04"/>
      </g>
     </g>
     <g id="text_5">
      <!-- 400 -->
      <g transform="translate(234.567968 260.638438)scale(0.1 -0.1)">
       <defs>
        <path d="M 2419 4116 
L 825 1625 
L 2419 1625 
L 2419 4116 
z
M 2253 4666 
L 3047 4666 
L 3047 1625 
L 3713 1625 
L 3713 1100 
L 3047 1100 
L 3047 0 
L 2419 0 
L 2419 1100 
L 313 1100 
L 313 1709 
L 2253 4666 
z
" id="DejaVuSans-34" transform="scale(0.015625)"/>
       </defs>
       <use xlink:href="#DejaVuSans-34"/>
       <use x="63.623047" xlink:href="#DejaVuSans-30"/>
       <use x="127.246094" xlink:href="#DejaVuSans-30"/>
      </g>
     </g>
    </g>
    <g id="xtick_6">
     <g id="line2d_6">
      <g>
       <use style="stroke:#000000;stroke-width:0.8;" x="284.455329" xlink:href="#m603408bf8c" y="246.04"/>
      </g>
     </g>
     <g id="text_6">
      <!-- 500 -->
      <g transform="translate(274.911579 260.638438)scale(0.1 -0.1)">
       <defs>
        <path d="M 691 4666 
L 3169 4666 
L 3169 4134 
L 1269 4134 
L 1269 2991 
Q 1406 3038 1543 3061 
Q 1681 3084 1819 3084 
Q 2600 3084 3056 2656 
Q 3513 2228 3513 1497 
Q 3513 744 3044 326 
Q 2575 -91 1722 -91 
Q 1428 -91 1123 -41 
Q 819 9 494 109 
L 494 744 
Q 775 591 1075 516 
Q 1375 441 1709 441 
Q 2250 441 2565 725 
Q 2881 1009 2881 1497 
Q 2881 1984 2565 2268 
Q 2250 2553 1709 2553 
Q 1456 2553 1204 2497 
Q 953 2441 691 2322 
L 691 4666 
z
" id="DejaVuSans-35" transform="scale(0.015625)"/>
       </defs>
       <use xlink:href="#DejaVuSans-35"/>
       <use x="63.623047" xlink:href="#DejaVuSans-30"/>
       <use x="127.246094" xlink:href="#DejaVuSans-30"/>
      </g>
     </g>
    </g>
    <g id="xtick_7">
     <g id="line2d_7">
      <g>
       <use style="stroke:#000000;stroke-width:0.8;" x="324.798941" xlink:href="#m603408bf8c" y="246.04"/>
      </g>
     </g>
     <g id="text_7">
      <!-- 600 -->
      <g transform="translate(315.255191 260.638438)scale(0.1 -0.1)">
       <defs>
        <path d="M 2113 2584 
Q 1688 2584 1439 2293 
Q 1191 2003 1191 1497 
Q 1191 994 1439 701 
Q 1688 409 2113 409 
Q 2538 409 2786 701 
Q 3034 994 3034 1497 
Q 3034 2003 2786 2293 
Q 2538 2584 2113 2584 
z
M 3366 4563 
L 3366 3988 
Q 3128 4100 2886 4159 
Q 2644 4219 2406 4219 
Q 1781 4219 1451 3797 
Q 1122 3375 1075 2522 
Q 1259 2794 1537 2939 
Q 1816 3084 2150 3084 
Q 2853 3084 3261 2657 
Q 3669 2231 3669 1497 
Q 3669 778 3244 343 
Q 2819 -91 2113 -91 
Q 1303 -91 875 529 
Q 447 1150 447 2328 
Q 447 3434 972 4092 
Q 1497 4750 2381 4750 
Q 2619 4750 2861 4703 
Q 3103 4656 3366 4563 
z
" id="DejaVuSans-36" transform="scale(0.015625)"/>
       </defs>
       <use xlink:href="#DejaVuSans-36"/>
       <use x="63.623047" xlink:href="#DejaVuSans-30"/>
       <use x="127.246094" xlink:href="#DejaVuSans-30"/>
      </g>
     </g>
    </g>
    <g id="xtick_8">
     <g id="line2d_8">
      <g>
       <use style="stroke:#000000;stroke-width:0.8;" x="365.142552" xlink:href="#m603408bf8c" y="246.04"/>
      </g>
     </g>
     <g id="text_8">
      <!-- 700 -->
      <g transform="translate(355.598802 260.638438)scale(0.1 -0.1)">
       <defs>
        <path d="M 525 4666 
L 3525 4666 
L 3525 4397 
L 1831 0 
L 1172 0 
L 2766 4134 
L 525 4134 
L 525 4666 
z
" id="DejaVuSans-37" transform="scale(0.015625)"/>
       </defs>
       <use xlink:href="#DejaVuSans-37"/>
       <use x="63.623047" xlink:href="#DejaVuSans-30"/>
       <use x="127.246094" xlink:href="#DejaVuSans-30"/>
      </g>
     </g>
    </g>
    <g id="xtick_9">
     <g id="line2d_9">
      <g>
       <use style="stroke:#000000;stroke-width:0.8;" x="405.486163" xlink:href="#m603408bf8c" y="246.04"/>
      </g>
     </g>
     <g id="text_9">
      <!-- 800 -->
      <g transform="translate(395.942413 260.638438)scale(0.1 -0.1)">
       <defs>
        <path d="M 2034 2216 
Q 1584 2216 1326 1975 
Q 1069 1734 1069 1313 
Q 1069 891 1326 650 
Q 1584 409 2034 409 
Q 2484 409 2743 651 
Q 3003 894 3003 1313 
Q 3003 1734 2745 1975 
Q 2488 2216 2034 2216 
z
M 1403 2484 
Q 997 2584 770 2862 
Q 544 3141 544 3541 
Q 544 4100 942 4425 
Q 1341 4750 2034 4750 
Q 2731 4750 3128 4425 
Q 3525 4100 3525 3541 
Q 3525 3141 3298 2862 
Q 3072 2584 2669 2484 
Q 3125 2378 3379 2068 
Q 3634 1759 3634 1313 
Q 3634 634 3220 271 
Q 2806 -91 2034 -91 
Q 1263 -91 848 271 
Q 434 634 434 1313 
Q 434 1759 690 2068 
Q 947 2378 1403 2484 
z
M 1172 3481 
Q 1172 3119 1398 2916 
Q 1625 2713 2034 2713 
Q 2441 2713 2670 2916 
Q 2900 3119 2900 3481 
Q 2900 3844 2670 4047 
Q 2441 4250 2034 4250 
Q 1625 4250 1398 4047 
Q 1172 3844 1172 3481 
z
" id="DejaVuSans-38" transform="scale(0.015625)"/>
       </defs>
       <use xlink:href="#DejaVuSans-38"/>
       <use x="63.623047" xlink:href="#DejaVuSans-30"/>
       <use x="127.246094" xlink:href="#DejaVuSans-30"/>
      </g>
     </g>
    </g>
    <g id="text_10">
     <!-- Epoch -->
     <g transform="translate(228.599063 274.316562)scale(0.1 -0.1)">
      <defs>
       <path d="M 628 4666 
L 3578 4666 
L 3578 4134 
L 1259 4134 
L 1259 2753 
L 3481 2753 
L 3481 2222 
L 1259 2222 
L 1259 531 
L 3634 531 
L 3634 0 
L 628 0 
L 628 4666 
z
" id="DejaVuSans-45" transform="scale(0.015625)"/>
       <path d="M 1159 525 
L 1159 -1331 
L 581 -1331 
L 581 3500 
L 1159 3500 
L 1159 2969 
Q 1341 3281 1617 3432 
Q 1894 3584 2278 3584 
Q 2916 3584 3314 3078 
Q 3713 2572 3713 1747 
Q 3713 922 3314 415 
Q 2916 -91 2278 -91 
Q 1894 -91 1617 61 
Q 1341 213 1159 525 
z
M 3116 1747 
Q 3116 2381 2855 2742 
Q 2594 3103 2138 3103 
Q 1681 3103 1420 2742 
Q 1159 2381 1159 1747 
Q 1159 1113 1420 752 
Q 1681 391 2138 391 
Q 2594 391 2855 752 
Q 3116 1113 3116 1747 
z
" id="DejaVuSans-70" transform="scale(0.015625)"/>
       <path d="M 1959 3097 
Q 1497 3097 1228 2736 
Q 959 2375 959 1747 
Q 959 1119 1226 758 
Q 1494 397 1959 397 
Q 2419 397 2687 759 
Q 2956 1122 2956 1747 
Q 2956 2369 2687 2733 
Q 2419 3097 1959 3097 
z
M 1959 3584 
Q 2709 3584 3137 3096 
Q 3566 2609 3566 1747 
Q 3566 888 3137 398 
Q 2709 -91 1959 -91 
Q 1206 -91 779 398 
Q 353 888 353 1747 
Q 353 2609 779 3096 
Q 1206 3584 1959 3584 
z
" id="DejaVuSans-6f" transform="scale(0.015625)"/>
       <path d="M 3122 3366 
L 3122 2828 
Q 2878 2963 2633 3030 
Q 2388 3097 2138 3097 
Q 1578 3097 1268 2742 
Q 959 2388 959 1747 
Q 959 1106 1268 751 
Q 1578 397 2138 397 
Q 2388 397 2633 464 
Q 2878 531 3122 666 
L 3122 134 
Q 2881 22 2623 -34 
Q 2366 -91 2075 -91 
Q 1284 -91 818 406 
Q 353 903 353 1747 
Q 353 2603 823 3093 
Q 1294 3584 2113 3584 
Q 2378 3584 2631 3529 
Q 2884 3475 3122 3366 
z
" id="DejaVuSans-63" transform="scale(0.015625)"/>
       <path d="M 3513 2113 
L 3513 0 
L 2938 0 
L 2938 2094 
Q 2938 2591 2744 2837 
Q 2550 3084 2163 3084 
Q 1697 3084 1428 2787 
Q 1159 2491 1159 1978 
L 1159 0 
L 581 0 
L 581 4863 
L 1159 4863 
L 1159 2956 
Q 1366 3272 1645 3428 
Q 1925 3584 2291 3584 
Q 2894 3584 3203 3211 
Q 3513 2838 3513 2113 
z
" id="DejaVuSans-68" transform="scale(0.015625)"/>
      </defs>
      <use xlink:href="#DejaVuSans-45"/>
      <use x="63.183594" xlink:href="#DejaVuSans-70"/>
      <use x="126.660156" xlink:href="#DejaVuSans-6f"/>
      <use x="187.841797" xlink:href="#DejaVuSans-63"/>
      <use x="242.822266" xlink:href="#DejaVuSans-68"/>
     </g>
    </g>
   </g>
   <g id="matplotlib.axis_2">
    <g id="ytick_1">
     <g id="line2d_10">
      <defs>
       <path d="M 0 0 
L -3.5 0 
" id="mf9bf38eb67" style="stroke:#000000;stroke-width:0.8;"/>
      </defs>
      <g>
       <use style="stroke:#000000;stroke-width:0.8;" x="66.62" xlink:href="#mf9bf38eb67" y="240.208666"/>
      </g>
     </g>
     <g id="text_11">
      <!-- 0.0005 -->
      <g transform="translate(24.629375 244.007885)scale(0.1 -0.1)">
       <defs>
        <path d="M 684 794 
L 1344 794 
L 1344 0 
L 684 0 
L 684 794 
z
" id="DejaVuSans-2e" transform="scale(0.015625)"/>
       </defs>
       <use xlink:href="#DejaVuSans-30"/>
       <use x="63.623047" xlink:href="#DejaVuSans-2e"/>
       <use x="95.410156" xlink:href="#DejaVuSans-30"/>
       <use x="159.033203" xlink:href="#DejaVuSans-30"/>
       <use x="222.65625" xlink:href="#DejaVuSans-30"/>
       <use x="286.279297" xlink:href="#DejaVuSans-35"/>
      </g>
     </g>
    </g>
    <g id="ytick_2">
     <g id="line2d_11">
      <g>
       <use style="stroke:#000000;stroke-width:0.8;" x="66.62" xlink:href="#mf9bf38eb67" y="213.719835"/>
      </g>
     </g>
     <g id="text_12">
      <!-- 0.0010 -->
      <g transform="translate(24.629375 217.519054)scale(0.1 -0.1)">
       <use xlink:href="#DejaVuSans-30"/>
       <use x="63.623047" xlink:href="#DejaVuSans-2e"/>
       <use x="95.410156" xlink:href="#DejaVuSans-30"/>
       <use x="159.033203" xlink:href="#DejaVuSans-30"/>
       <use x="222.65625" xlink:href="#DejaVuSans-31"/>
       <use x="286.279297" xlink:href="#DejaVuSans-30"/>
      </g>
     </g>
    </g>
    <g id="ytick_3">
     <g id="line2d_12">
      <g>
       <use style="stroke:#000000;stroke-width:0.8;" x="66.62" xlink:href="#mf9bf38eb67" y="187.231003"/>
      </g>
     </g>
     <g id="text_13">
      <!-- 0.0015 -->
      <g transform="translate(24.629375 191.030222)scale(0.1 -0.1)">
       <use xlink:href="#DejaVuSans-30"/>
       <use x="63.623047" xlink:href="#DejaVuSans-2e"/>
       <use x="95.410156" xlink:href="#DejaVuSans-30"/>
       <use x="159.033203" xlink:href="#DejaVuSans-30"/>
       <use x="222.65625" xlink:href="#DejaVuSans-31"/>
       <use x="286.279297" xlink:href="#DejaVuSans-35"/>
      </g>
     </g>
    </g>
    <g id="ytick_4">
     <g id="line2d_13">
      <g>
       <use style="stroke:#000000;stroke-width:0.8;" x="66.62" xlink:href="#mf9bf38eb67" y="160.742172"/>
      </g>
     </g>
     <g id="text_14">
      <!-- 0.0020 -->
      <g transform="translate(24.629375 164.541391)scale(0.1 -0.1)">
       <use xlink:href="#DejaVuSans-30"/>
       <use x="63.623047" xlink:href="#DejaVuSans-2e"/>
       <use x="95.410156" xlink:href="#DejaVuSans-30"/>
       <use x="159.033203" xlink:href="#DejaVuSans-30"/>
       <use x="222.65625" xlink:href="#DejaVuSans-32"/>
       <use x="286.279297" xlink:href="#DejaVuSans-30"/>
      </g>
     </g>
    </g>
    <g id="ytick_5">
     <g id="line2d_14">
      <g>
       <use style="stroke:#000000;stroke-width:0.8;" x="66.62" xlink:href="#mf9bf38eb67" y="134.253341"/>
      </g>
     </g>
     <g id="text_15">
      <!-- 0.0025 -->
      <g transform="translate(24.629375 138.052559)scale(0.1 -0.1)">
       <use xlink:href="#DejaVuSans-30"/>
       <use x="63.623047" xlink:href="#DejaVuSans-2e"/>
       <use x="95.410156" xlink:href="#DejaVuSans-30"/>
       <use x="159.033203" xlink:href="#DejaVuSans-30"/>
       <use x="222.65625" xlink:href="#DejaVuSans-32"/>
       <use x="286.279297" xlink:href="#DejaVuSans-35"/>
      </g>
     </g>
    </g>
    <g id="ytick_6">
     <g id="line2d_15">
      <g>
       <use style="stroke:#000000;stroke-width:0.8;" x="66.62" xlink:href="#mf9bf38eb67" y="107.764509"/>
      </g>
     </g>
     <g id="text_16">
      <!-- 0.0030 -->
      <g transform="translate(24.629375 111.563728)scale(0.1 -0.1)">
       <use xlink:href="#DejaVuSans-30"/>
       <use x="63.623047" xlink:href="#DejaVuSans-2e"/>
       <use x="95.410156" xlink:href="#DejaVuSans-30"/>
       <use x="159.033203" xlink:href="#DejaVuSans-30"/>
       <use x="222.65625" xlink:href="#DejaVuSans-33"/>
       <use x="286.279297" xlink:href="#DejaVuSans-30"/>
      </g>
     </g>
    </g>
    <g id="ytick_7">
     <g id="line2d_16">
      <g>
       <use style="stroke:#000000;stroke-width:0.8;" x="66.62" xlink:href="#mf9bf38eb67" y="81.275678"/>
      </g>
     </g>
     <g id="text_17">
      <!-- 0.0035 -->
      <g transform="translate(24.629375 85.074896)scale(0.1 -0.1)">
       <use xlink:href="#DejaVuSans-30"/>
       <use x="63.623047" xlink:href="#DejaVuSans-2e"/>
       <use x="95.410156" xlink:href="#DejaVuSans-30"/>
       <use x="159.033203" xlink:href="#DejaVuSans-30"/>
       <use x="222.65625" xlink:href="#DejaVuSans-33"/>
       <use x="286.279297" xlink:href="#DejaVuSans-35"/>
      </g>
     </g>
    </g>
    <g id="ytick_8">
     <g id="line2d_17">
      <g>
       <use style="stroke:#000000;stroke-width:0.8;" x="66.62" xlink:href="#mf9bf38eb67" y="54.786846"/>
      </g>
     </g>
     <g id="text_18">
      <!-- 0.0040 -->
      <g transform="translate(24.629375 58.586065)scale(0.1 -0.1)">
       <use xlink:href="#DejaVuSans-30"/>
       <use x="63.623047" xlink:href="#DejaVuSans-2e"/>
       <use x="95.410156" xlink:href="#DejaVuSans-30"/>
       <use x="159.033203" xlink:href="#DejaVuSans-30"/>
       <use x="222.65625" xlink:href="#DejaVuSans-34"/>
       <use x="286.279297" xlink:href="#DejaVuSans-30"/>
      </g>
     </g>
    </g>
    <g id="ytick_9">
     <g id="line2d_18">
      <g>
       <use style="stroke:#000000;stroke-width:0.8;" x="66.62" xlink:href="#mf9bf38eb67" y="28.298015"/>
      </g>
     </g>
     <g id="text_19">
      <!-- 0.0045 -->
      <g transform="translate(24.629375 32.097234)scale(0.1 -0.1)">
       <use xlink:href="#DejaVuSans-30"/>
       <use x="63.623047" xlink:href="#DejaVuSans-2e"/>
       <use x="95.410156" xlink:href="#DejaVuSans-30"/>
       <use x="159.033203" xlink:href="#DejaVuSans-30"/>
       <use x="222.65625" xlink:href="#DejaVuSans-34"/>
       <use x="286.279297" xlink:href="#DejaVuSans-35"/>
      </g>
     </g>
    </g>
    <g id="text_20">
     <!-- Loss -->
     <g transform="translate(18.549688 139.387188)rotate(-90)scale(0.1 -0.1)">
      <defs>
       <path d="M 628 4666 
L 1259 4666 
L 1259 531 
L 3531 531 
L 3531 0 
L 628 0 
L 628 4666 
z
" id="DejaVuSans-4c" transform="scale(0.015625)"/>
       <path d="M 2834 3397 
L 2834 2853 
Q 2591 2978 2328 3040 
Q 2066 3103 1784 3103 
Q 1356 3103 1142 2972 
Q 928 2841 928 2578 
Q 928 2378 1081 2264 
Q 1234 2150 1697 2047 
L 1894 2003 
Q 2506 1872 2764 1633 
Q 3022 1394 3022 966 
Q 3022 478 2636 193 
Q 2250 -91 1575 -91 
Q 1294 -91 989 -36 
Q 684 19 347 128 
L 347 722 
Q 666 556 975 473 
Q 1284 391 1588 391 
Q 1994 391 2212 530 
Q 2431 669 2431 922 
Q 2431 1156 2273 1281 
Q 2116 1406 1581 1522 
L 1381 1569 
Q 847 1681 609 1914 
Q 372 2147 372 2553 
Q 372 3047 722 3315 
Q 1072 3584 1716 3584 
Q 2034 3584 2315 3537 
Q 2597 3491 2834 3397 
z
" id="DejaVuSans-73" transform="scale(0.015625)"/>
      </defs>
      <use xlink:href="#DejaVuSans-4c"/>
      <use x="53.962891" xlink:href="#DejaVuSans-6f"/>
      <use x="115.144531" xlink:href="#DejaVuSans-73"/>
      <use x="167.244141" xlink:href="#DejaVuSans-73"/>
     </g>
    </g>
   </g>
   <g id="line2d_19">
    <path clip-path="url(#pa8cfa50a29)" d="M 82.737273 21.492727 
L 83.544145 55.249913 
L 83.947581 71.237058 
L 84.351017 82.000999 
L 84.754453 88.177388 
L 85.561326 104.947738 
L 85.964762 110.124285 
L 86.368198 110.676369 
L 86.771634 110.675195 
L 87.17507 113.821615 
L 87.578506 118.255775 
L 87.981942 120.672105 
L 88.788814 129.485399 
L 90.402559 143.305886 
L 90.805995 145.04688 
L 91.612867 149.995637 
L 92.016303 151.264582 
L 92.419739 153.187378 
L 92.823176 155.961167 
L 93.226612 157.292427 
L 94.033484 161.073173 
L 94.43692 162.397045 
L 94.840356 162.68547 
L 95.243792 162.747147 
L 95.647228 163.760793 
L 96.454101 164.961413 
L 97.664409 167.540203 
L 99.278153 173.279067 
L 99.681589 174.398719 
L 100.085026 176.219314 
L 100.891898 177.812199 
L 101.295334 178.336521 
L 102.102206 180.623992 
L 102.505642 181.855946 
L 102.909078 182.272152 
L 103.715951 183.613549 
L 104.119387 183.501854 
L 104.926259 184.425891 
L 105.329695 184.581641 
L 105.733131 185.010169 
L 106.136567 185.080833 
L 106.540003 185.456065 
L 106.94344 185.040694 
L 107.750312 185.74991 
L 108.153748 185.968677 
L 108.557184 186.357552 
L 108.96062 185.86804 
L 109.364056 185.965742 
L 109.767492 186.591349 
L 110.170928 186.323227 
L 110.574365 186.301422 
L 110.977801 187.058317 
L 111.381237 186.326162 
L 111.784673 186.946258 
L 112.188109 187.292767 
L 112.591545 186.971434 
L 112.994981 187.957162 
L 113.398417 187.638233 
L 113.801853 188.047182 
L 114.20529 188.171416 
L 114.608726 188.859616 
L 115.012162 188.759748 
L 115.415598 188.477026 
L 116.22247 189.712928 
L 117.029342 189.598142 
L 117.836215 189.932991 
L 118.239651 190.323647 
L 118.643087 190.207707 
L 119.046523 189.84796 
L 119.449959 190.359581 
L 119.853395 190.512609 
L 120.660267 190.445492 
L 122.274012 191.427091 
L 122.677448 191.483728 
L 123.080884 191.184433 
L 123.887756 191.848272 
L 124.291192 190.790543 
L 124.694629 191.135524 
L 125.098065 191.862668 
L 125.501501 192.07629 
L 126.308373 191.885324 
L 126.711809 192.282827 
L 127.115245 192.519954 
L 127.518681 192.460438 
L 127.922117 192.962221 
L 128.325554 192.917973 
L 128.72899 192.52384 
L 129.132426 192.534821 
L 129.535862 192.831166 
L 129.939298 192.15751 
L 130.342734 192.074357 
L 130.74617 192.566282 
L 131.149606 192.688289 
L 131.553042 192.423198 
L 131.956479 192.57408 
L 132.359915 192.971811 
L 133.166787 192.407612 
L 133.570223 192.932031 
L 133.973659 193.647238 
L 134.377095 193.647111 
L 134.780531 193.25097 
L 135.183967 193.39077 
L 135.587404 193.833361 
L 135.99084 194.009515 
L 136.394276 194.393218 
L 136.797712 194.311203 
L 137.201148 193.868829 
L 138.00802 194.717313 
L 138.411456 194.410879 
L 139.218329 194.465597 
L 139.621765 195.334414 
L 140.428637 195.018106 
L 140.832073 195.026719 
L 141.235509 195.787075 
L 141.638945 196.040507 
L 142.042381 195.946768 
L 142.445817 196.308665 
L 142.849254 196.404019 
L 143.25269 196.35802 
L 143.656126 195.913374 
L 144.059562 196.289871 
L 144.462998 197.326719 
L 144.866434 196.807442 
L 145.26987 197.004121 
L 145.673306 197.400025 
L 146.076743 197.451798 
L 146.480179 198.16652 
L 146.883615 198.213496 
L 147.287051 197.818867 
L 147.690487 198.283305 
L 148.093923 198.931719 
L 148.497359 199.206951 
L 148.900795 198.750459 
L 149.304231 199.166139 
L 149.707668 199.167308 
L 150.111104 199.730449 
L 150.51454 199.953958 
L 150.917976 200.342357 
L 151.321412 200.434943 
L 151.724848 200.714386 
L 152.53172 202.112024 
L 152.935156 201.633949 
L 153.338593 202.04513 
L 153.742029 202.90921 
L 154.145465 203.127244 
L 154.548901 203.517085 
L 154.952337 203.720485 
L 155.355773 203.753529 
L 156.162645 204.649182 
L 156.566081 204.182103 
L 156.969518 205.003585 
L 157.372954 204.994213 
L 157.77639 205.342892 
L 158.179826 205.362046 
L 159.390134 206.120125 
L 159.79357 206.143626 
L 160.197006 206.032251 
L 160.600443 206.172956 
L 161.003879 206.617506 
L 161.407315 206.601899 
L 161.810751 206.961358 
L 162.214187 206.891807 
L 162.617623 207.444614 
L 163.021059 206.836461 
L 163.424495 206.875608 
L 163.827932 207.098015 
L 164.231368 208.097209 
L 164.634804 208.290796 
L 165.03824 208.028589 
L 165.441676 207.592015 
L 165.845112 208.150516 
L 166.248548 209.051345 
L 166.651984 208.917481 
L 167.05542 208.607878 
L 167.458857 208.470604 
L 167.862293 208.858653 
L 168.669165 209.060762 
L 169.072601 209.333991 
L 169.476037 209.103386 
L 169.879473 209.63745 
L 170.282909 209.868525 
L 170.686345 209.59939 
L 171.089782 210.277474 
L 171.493218 210.34199 
L 171.896654 211.016248 
L 172.30009 210.777086 
L 172.703526 211.248138 
L 173.106962 210.98129 
L 173.913834 211.536066 
L 174.31727 211.432257 
L 174.720707 211.879266 
L 175.124143 212.513794 
L 175.527579 211.752669 
L 175.931015 211.924086 
L 176.334451 212.423698 
L 176.737887 213.10955 
L 177.544759 212.887184 
L 177.948195 213.32059 
L 178.351632 213.480455 
L 178.755068 213.316977 
L 179.158504 213.655349 
L 179.56194 213.13303 
L 180.368812 213.871116 
L 181.175684 213.423575 
L 181.57912 214.208409 
L 181.982557 214.019194 
L 184.403173 214.781868 
L 184.806609 214.57479 
L 185.210046 214.765473 
L 185.613482 215.27896 
L 186.016918 215.341427 
L 186.82379 215.104082 
L 188.034098 215.426599 
L 188.437534 215.586281 
L 188.840971 215.475255 
L 189.244407 216.051265 
L 189.647843 216.276464 
L 190.051279 215.923858 
L 190.454715 216.012411 
L 190.858151 216.43644 
L 191.261587 216.486311 
L 191.665023 216.940774 
L 192.068459 216.274253 
L 192.471896 216.25771 
L 192.875332 216.669053 
L 194.08564 216.211832 
L 194.489076 216.492368 
L 194.892512 216.597893 
L 195.295948 216.297445 
L 195.699384 216.990346 
L 196.102821 217.218081 
L 196.506257 216.982654 
L 197.313129 217.904474 
L 197.716565 217.623888 
L 198.120001 217.20753 
L 198.926873 217.980416 
L 199.330309 217.621428 
L 199.733746 217.656077 
L 200.137182 217.891428 
L 200.540618 218.434697 
L 200.944054 217.932079 
L 201.34749 217.806327 
L 201.750926 218.480549 
L 202.154362 218.846869 
L 202.557798 218.65938 
L 203.364671 218.820333 
L 204.171543 219.367989 
L 204.574979 219.260793 
L 204.978415 218.879003 
L 205.381851 218.655038 
L 205.785287 219.116232 
L 206.188723 219.366789 
L 206.59216 219.032218 
L 207.399032 219.389182 
L 208.205904 219.877028 
L 208.60934 219.661459 
L 209.012776 220.281266 
L 209.416212 219.927496 
L 209.819648 219.897214 
L 210.626521 221.122155 
L 211.029957 220.488188 
L 211.433393 220.420368 
L 212.240265 220.116994 
L 212.643701 220.940961 
L 213.047137 220.714091 
L 213.450573 220.9476 
L 213.85401 221.310869 
L 214.257446 221.38508 
L 214.660882 220.947726 
L 215.467754 221.529171 
L 215.87119 221.468188 
L 216.274626 222.184797 
L 217.081498 221.700518 
L 217.484935 222.265961 
L 217.888371 222.175354 
L 218.291807 222.631973 
L 218.695243 221.932336 
L 219.098679 222.118029 
L 219.502115 222.85114 
L 219.905551 222.681777 
L 220.308987 222.134526 
L 221.11586 223.075272 
L 221.519296 222.801138 
L 221.922732 223.157929 
L 222.326168 223.698501 
L 222.729604 223.185752 
L 223.13304 223.478407 
L 223.536476 224.109576 
L 223.939912 223.454188 
L 224.343349 223.567926 
L 224.746785 224.045738 
L 225.150221 224.086718 
L 225.957093 223.558843 
L 226.360529 223.929247 
L 227.974274 223.586655 
L 228.781146 224.522452 
L 229.184582 224.18781 
L 229.588018 224.27617 
L 229.991454 224.712489 
L 230.39489 224.852339 
L 230.798326 224.293472 
L 231.201762 224.235621 
L 231.605199 224.540459 
L 232.008635 224.560838 
L 232.412071 224.380299 
L 233.218943 225.126023 
L 233.622379 224.719346 
L 234.025815 225.160616 
L 234.429251 224.562356 
L 234.832687 224.930637 
L 235.236124 224.987155 
L 236.042996 225.371705 
L 236.446432 224.96414 
L 236.849868 224.982868 
L 237.65674 225.641905 
L 238.060176 225.70635 
L 238.463612 225.064883 
L 238.867049 225.450673 
L 239.270485 226.082588 
L 239.673921 226.209671 
L 240.884229 226.193247 
L 241.287665 226.401434 
L 241.691101 225.871373 
L 242.094537 225.662939 
L 242.497974 226.593877 
L 242.90141 226.10954 
L 243.304846 226.043967 
L 243.708282 226.407 
L 244.111718 226.072574 
L 244.515154 226.004351 
L 244.91859 225.494689 
L 245.322026 225.329041 
L 245.725463 225.741482 
L 246.128899 225.716227 
L 246.532335 226.36908 
L 246.935771 225.456209 
L 247.339207 226.345933 
L 247.742643 226.073226 
L 248.146079 226.355106 
L 248.549515 225.620436 
L 248.952951 226.335603 
L 249.356388 226.690727 
L 249.759824 226.047985 
L 250.16326 226.323506 
L 250.566696 226.290426 
L 250.970132 226.604079 
L 251.373568 227.077729 
L 251.777004 226.645302 
L 252.18044 226.829082 
L 252.583876 226.855236 
L 252.987313 227.222822 
L 253.390749 226.736415 
L 253.794185 226.66925 
L 254.601057 226.91333 
L 255.004493 226.754804 
L 255.407929 226.988463 
L 255.811365 227.489709 
L 256.214801 227.613905 
L 256.618238 227.03367 
L 257.021674 227.247355 
L 257.42511 227.29634 
L 257.828546 227.745419 
L 258.231982 227.687416 
L 258.635418 227.36393 
L 259.038854 227.315415 
L 259.44229 227.952327 
L 259.845726 227.863686 
L 260.249163 227.532597 
L 261.056035 227.538889 
L 261.459471 227.343744 
L 261.862907 227.748131 
L 262.266343 227.54694 
L 262.669779 227.701044 
L 263.073215 227.637287 
L 263.476651 228.112619 
L 263.880088 227.735632 
L 264.68696 227.718064 
L 265.090396 228.011633 
L 265.493832 228.543296 
L 265.897268 228.210212 
L 266.300704 228.084964 
L 266.70414 228.664498 
L 267.107577 228.807489 
L 267.511013 228.263744 
L 268.317885 228.704114 
L 268.721321 229.180777 
L 269.124757 228.885961 
L 269.528193 228.977853 
L 270.335065 228.723599 
L 271.141938 229.100083 
L 271.545374 229.02361 
L 271.94881 228.556425 
L 272.352246 228.954451 
L 272.755682 229.181511 
L 273.159118 228.795769 
L 273.562554 229.218318 
L 273.96599 229.195184 
L 274.369427 229.431294 
L 274.772863 229.352121 
L 275.176299 229.722118 
L 275.579735 229.792136 
L 275.983171 229.001627 
L 276.386607 229.754532 
L 276.790043 229.426735 
L 278.000352 229.646742 
L 278.403788 229.392293 
L 278.807224 230.146542 
L 279.614096 229.703366 
L 280.017532 230.272681 
L 280.420968 230.230037 
L 280.824404 229.500875 
L 281.22784 229.746185 
L 281.631277 230.484944 
L 282.034713 229.766728 
L 282.841585 229.788796 
L 283.245021 229.273482 
L 283.648457 229.112297 
L 284.051893 230.139037 
L 284.455329 230.348033 
L 284.858766 229.498902 
L 285.665638 230.446345 
L 286.069074 230.389673 
L 286.47251 230.477889 
L 286.875946 230.828368 
L 287.279382 230.193665 
L 288.086254 230.629019 
L 288.489691 230.250256 
L 288.893127 230.204416 
L 289.296563 230.432882 
L 289.699999 230.456694 
L 290.506871 230.26361 
L 290.910307 230.79363 
L 291.313743 230.456403 
L 292.120616 230.204327 
L 292.524052 230.378102 
L 292.927488 230.887304 
L 293.330924 230.5468 
L 293.73436 231.006154 
L 294.541232 230.282961 
L 294.944668 230.844473 
L 295.348104 231.010073 
L 295.751541 230.452251 
L 296.154977 230.62066 
L 296.558413 231.166309 
L 296.961849 231.135359 
L 297.365285 231.313254 
L 297.768721 231.282735 
L 298.172157 230.831146 
L 298.575593 231.526691 
L 298.979029 231.551459 
L 299.382466 231.443361 
L 299.785902 231.624418 
L 300.189338 231.329617 
L 300.99621 231.745269 
L 301.803082 231.606962 
L 302.206518 231.897406 
L 303.013391 231.730065 
L 303.416827 232.105651 
L 304.223699 231.917364 
L 304.627135 232.085821 
L 305.030571 231.697714 
L 305.434007 232.168433 
L 306.24088 231.852485 
L 306.644316 231.352475 
L 307.047752 231.646687 
L 307.854624 231.84102 
L 308.25806 231.992368 
L 309.064932 231.737028 
L 309.468368 231.645723 
L 309.871805 232.322784 
L 310.275241 232.076363 
L 310.678677 232.058487 
L 311.082113 232.331741 
L 311.485549 232.757633 
L 311.888985 232.539404 
L 312.292421 232.11415 
L 312.695857 232.705708 
L 313.099293 232.913925 
L 313.50273 232.359265 
L 313.906166 232.568112 
L 314.309602 232.496233 
L 314.713038 232.189578 
L 315.116474 232.255303 
L 315.51991 232.568291 
L 315.923346 232.023204 
L 316.326782 232.098976 
L 316.730218 232.362306 
L 317.133655 232.208428 
L 317.537091 231.843388 
L 317.940527 232.508624 
L 318.343963 232.648687 
L 318.747399 231.992512 
L 319.554271 233.124727 
L 319.957707 232.437638 
L 320.361143 232.193961 
L 321.168016 232.805606 
L 321.571452 232.383507 
L 321.974888 232.555802 
L 322.378324 232.955795 
L 322.78176 232.468877 
L 323.185196 232.666823 
L 323.588632 232.47375 
L 323.992068 232.947655 
L 324.395505 232.720178 
L 325.202377 233.339065 
L 325.605813 232.147286 
L 326.009249 232.797686 
L 326.412685 233.018825 
L 327.219557 232.004356 
L 327.622994 233.156656 
L 328.02643 232.667691 
L 328.833302 232.608132 
L 330.04361 232.20567 
L 330.447046 232.559765 
L 330.850482 232.112892 
L 331.253919 232.204782 
L 331.657355 232.526242 
L 332.060791 233.139509 
L 332.464227 232.530799 
L 333.271099 232.869112 
L 333.674535 233.505255 
L 334.077971 233.1195 
L 334.481407 232.43837 
L 334.884844 232.636661 
L 335.28828 233.003236 
L 336.498588 232.938341 
L 336.902024 233.053271 
L 337.30546 233.00586 
L 337.708896 233.476671 
L 338.919205 232.784929 
L 339.322641 233.213485 
L 339.726077 233.464025 
L 340.532949 233.04224 
L 340.936385 233.407578 
L 341.339821 233.609533 
L 341.743257 233.314972 
L 342.146694 232.858999 
L 342.55013 233.230984 
L 342.953566 233.814734 
L 343.357002 234.050234 
L 344.163874 233.652506 
L 344.56731 233.92686 
L 344.970746 233.877607 
L 345.374183 233.588838 
L 345.777619 233.65281 
L 346.584491 233.318621 
L 347.391363 233.388002 
L 347.794799 233.708092 
L 348.198235 233.322917 
L 348.601671 233.199543 
L 349.005108 234.014421 
L 349.81198 232.767154 
L 350.215416 234.091466 
L 351.022288 233.192494 
L 351.425724 233.259077 
L 351.82916 233.917693 
L 352.232596 233.568991 
L 352.636033 233.745874 
L 353.442905 233.904531 
L 353.846341 233.486759 
L 354.249777 233.53564 
L 354.653213 234.426806 
L 355.056649 234.335658 
L 355.460085 233.933864 
L 355.863521 233.751055 
L 356.266958 234.074577 
L 356.670394 233.680422 
L 357.07383 233.48519 
L 357.477266 234.118826 
L 357.880702 233.65744 
L 358.687574 234.02058 
L 359.09101 233.982624 
L 359.494446 233.099741 
L 360.301319 234.091704 
L 360.704755 234.006544 
L 361.108191 234.124703 
L 361.511627 233.757343 
L 362.318499 234.280696 
L 362.721935 234.046826 
L 363.125371 233.966754 
L 363.528808 234.050813 
L 363.932244 233.354874 
L 364.33568 233.831489 
L 364.739116 233.768043 
L 365.142552 234.1234 
L 365.545988 233.552995 
L 365.949424 234.103968 
L 367.159733 233.644986 
L 367.563169 233.952481 
L 367.966605 233.609034 
L 368.370041 233.65894 
L 368.773477 234.181198 
L 369.176913 233.594878 
L 369.580349 233.37841 
L 369.983785 233.605487 
L 370.387222 234.270806 
L 371.194094 233.198314 
L 371.59753 233.586763 
L 372.404402 233.687238 
L 372.807838 233.372279 
L 373.211274 234.033873 
L 373.61471 233.819187 
L 374.018147 233.785449 
L 374.421583 234.439508 
L 374.825019 233.832417 
L 375.228455 234.274419 
L 375.631891 233.744221 
L 376.035327 234.0985 
L 376.438763 233.970679 
L 376.842199 234.03983 
L 377.245635 234.520589 
L 377.649072 233.932945 
L 378.052508 234.461825 
L 378.455944 234.095337 
L 379.262816 234.505732 
L 379.666252 234.806909 
L 380.069688 234.791631 
L 380.473124 234.467275 
L 380.87656 234.484976 
L 381.279997 234.15307 
L 382.086869 234.00786 
L 382.490305 234.070314 
L 382.893741 233.791068 
L 383.700613 234.581097 
L 384.104049 234.301738 
L 384.910922 234.489467 
L 385.314358 234.347876 
L 386.12123 234.641501 
L 386.524666 234.219526 
L 387.734974 234.243365 
L 388.541847 234.768052 
L 388.945283 234.734147 
L 389.348719 234.219432 
L 389.752155 234.439303 
L 390.962463 234.070794 
L 391.365899 234.295101 
L 391.769336 234.310922 
L 392.172772 234.706426 
L 392.979644 234.660976 
L 393.38308 235.347273 
L 393.786516 234.551136 
L 394.593388 234.789481 
L 394.996824 234.832801 
L 395.803697 234.546423 
L 396.207133 234.76077 
L 396.610569 234.765616 
L 397.014005 234.072492 
L 397.417441 233.896288 
L 397.820877 233.855738 
L 398.224313 234.715482 
L 398.627749 234.265143 
L 399.031186 234.417951 
L 399.434622 234.020898 
L 399.838058 233.91093 
L 400.241494 234.945056 
L 400.64493 234.435397 
L 401.048366 234.567482 
L 401.451802 234.90936 
L 402.258674 234.04556 
L 402.662111 233.915489 
L 403.065547 234.945438 
L 403.468983 234.185537 
L 403.872419 233.968143 
L 404.275855 234.533562 
L 404.679291 234.080533 
L 405.082727 234.595337 
L 405.082727 234.595337 
" style="fill:none;stroke:#1f77b4;stroke-linecap:square;stroke-width:1.5;"/>
   </g>
   <g id="patch_3">
    <path d="M 66.62 246.04 
L 66.62 10.8 
" style="fill:none;stroke:#000000;stroke-linecap:square;stroke-linejoin:miter;stroke-width:0.8;"/>
   </g>
   <g id="patch_4">
    <path d="M 421.2 246.04 
L 421.2 10.8 
" style="fill:none;stroke:#000000;stroke-linecap:square;stroke-linejoin:miter;stroke-width:0.8;"/>
   </g>
   <g id="patch_5">
    <path d="M 66.62 246.04 
L 421.2 246.04 
" style="fill:none;stroke:#000000;stroke-linecap:square;stroke-linejoin:miter;stroke-width:0.8;"/>
   </g>
   <g id="patch_6">
    <path d="M 66.62 10.8 
L 421.2 10.8 
" style="fill:none;stroke:#000000;stroke-linecap:square;stroke-linejoin:miter;stroke-width:0.8;"/>
   </g>
  </g>
 </g>
 <defs>
  <clipPath id="pa8cfa50a29">
   <rect height="235.24" width="354.58" x="66.62" y="10.8"/>
  </clipPath>
 </defs>
</svg>
