<?xml version="1.0" encoding="utf-8" standalone="no"?>
<!DOCTYPE svg PUBLIC "-//W3C//DTD SVG 1.1//EN"
  "http://www.w3.org/Graphics/SVG/1.1/DTD/svg11.dtd">
<svg height="288pt" version="1.1" viewBox="0 0 432 288" width="432pt" xmlns="http://www.w3.org/2000/svg" xmlns:xlink="http://www.w3.org/1999/xlink">
 <metadata>
  <rdf:RDF xmlns:cc="http://creativecommons.org/ns#" xmlns:dc="http://purl.org/dc/elements/1.1/" xmlns:rdf="http://www.w3.org/1999/02/22-rdf-syntax-ns#">
   <cc:Work>
    <dc:type rdf:resource="http://purl.org/dc/dcmitype/StillImage"/>
    <dc:date>2021-05-07T23:15:44.814427</dc:date>
    <dc:format>image/svg+xml</dc:format>
    <dc:creator>
     <cc:Agent>
      <dc:title>Matplotlib v3.4.1, https://matplotlib.org/</dc:title>
     </cc:Agent>
    </dc:creator>
   </cc:Work>
  </rdf:RDF>
 </metadata>
 <defs>
  <style type="text/css">*{stroke-linecap:butt;stroke-linejoin:round;}</style>
 </defs>
 <g id="figure_1">
  <g id="patch_1">
   <path d="M 0 288 
L 432 288 
L 432 0 
L 0 0 
z
" style="fill:#ffffff;"/>
  </g>
  <g id="axes_1">
   <g id="patch_2">
    <path d="M 60.32 246.04 
L 421.2 246.04 
L 421.2 10.8 
L 60.32 10.8 
z
" style="fill:#ffffff;"/>
   </g>
   <g id="matplotlib.axis_1">
    <g id="xtick_1">
     <g id="line2d_1">
      <defs>
       <path d="M 0 0 
L 0 3.5 
" id="me853bc6388" style="stroke:#000000;stroke-width:0.8;"/>
      </defs>
      <g>
       <use style="stroke:#000000;stroke-width:0.8;" x="76.723636" xlink:href="#me853bc6388" y="246.04"/>
      </g>
     </g>
     <g id="text_1">
      <!-- 0 -->
      <g transform="translate(73.542386 260.638438)scale(0.1 -0.1)">
       <defs>
        <path d="M 2034 4250 
Q 1547 4250 1301 3770 
Q 1056 3291 1056 2328 
Q 1056 1369 1301 889 
Q 1547 409 2034 409 
Q 2525 409 2770 889 
Q 3016 1369 3016 2328 
Q 3016 3291 2770 3770 
Q 2525 4250 2034 4250 
z
M 2034 4750 
Q 2819 4750 3233 4129 
Q 3647 3509 3647 2328 
Q 3647 1150 3233 529 
Q 2819 -91 2034 -91 
Q 1250 -91 836 529 
Q 422 1150 422 2328 
Q 422 3509 836 4129 
Q 1250 4750 2034 4750 
z
" id="DejaVuSans-30" transform="scale(0.015625)"/>
       </defs>
       <use xlink:href="#DejaVuSans-30"/>
      </g>
     </g>
    </g>
    <g id="xtick_2">
     <g id="line2d_2">
      <g>
       <use style="stroke:#000000;stroke-width:0.8;" x="117.753242" xlink:href="#me853bc6388" y="246.04"/>
      </g>
     </g>
     <g id="text_2">
      <!-- 250 -->
      <g transform="translate(108.209492 260.638438)scale(0.1 -0.1)">
       <defs>
        <path d="M 1228 531 
L 3431 531 
L 3431 0 
L 469 0 
L 469 531 
Q 828 903 1448 1529 
Q 2069 2156 2228 2338 
Q 2531 2678 2651 2914 
Q 2772 3150 2772 3378 
Q 2772 3750 2511 3984 
Q 2250 4219 1831 4219 
Q 1534 4219 1204 4116 
Q 875 4013 500 3803 
L 500 4441 
Q 881 4594 1212 4672 
Q 1544 4750 1819 4750 
Q 2544 4750 2975 4387 
Q 3406 4025 3406 3419 
Q 3406 3131 3298 2873 
Q 3191 2616 2906 2266 
Q 2828 2175 2409 1742 
Q 1991 1309 1228 531 
z
" id="DejaVuSans-32" transform="scale(0.015625)"/>
        <path d="M 691 4666 
L 3169 4666 
L 3169 4134 
L 1269 4134 
L 1269 2991 
Q 1406 3038 1543 3061 
Q 1681 3084 1819 3084 
Q 2600 3084 3056 2656 
Q 3513 2228 3513 1497 
Q 3513 744 3044 326 
Q 2575 -91 1722 -91 
Q 1428 -91 1123 -41 
Q 819 9 494 109 
L 494 744 
Q 775 591 1075 516 
Q 1375 441 1709 441 
Q 2250 441 2565 725 
Q 2881 1009 2881 1497 
Q 2881 1984 2565 2268 
Q 2250 2553 1709 2553 
Q 1456 2553 1204 2497 
Q 953 2441 691 2322 
L 691 4666 
z
" id="DejaVuSans-35" transform="scale(0.015625)"/>
       </defs>
       <use xlink:href="#DejaVuSans-32"/>
       <use x="63.623047" xlink:href="#DejaVuSans-35"/>
       <use x="127.246094" xlink:href="#DejaVuSans-30"/>
      </g>
     </g>
    </g>
    <g id="xtick_3">
     <g id="line2d_3">
      <g>
       <use style="stroke:#000000;stroke-width:0.8;" x="158.782848" xlink:href="#me853bc6388" y="246.04"/>
      </g>
     </g>
     <g id="text_3">
      <!-- 500 -->
      <g transform="translate(149.239098 260.638438)scale(0.1 -0.1)">
       <use xlink:href="#DejaVuSans-35"/>
       <use x="63.623047" xlink:href="#DejaVuSans-30"/>
       <use x="127.246094" xlink:href="#DejaVuSans-30"/>
      </g>
     </g>
    </g>
    <g id="xtick_4">
     <g id="line2d_4">
      <g>
       <use style="stroke:#000000;stroke-width:0.8;" x="199.812453" xlink:href="#me853bc6388" y="246.04"/>
      </g>
     </g>
     <g id="text_4">
      <!-- 750 -->
      <g transform="translate(190.268703 260.638438)scale(0.1 -0.1)">
       <defs>
        <path d="M 525 4666 
L 3525 4666 
L 3525 4397 
L 1831 0 
L 1172 0 
L 2766 4134 
L 525 4134 
L 525 4666 
z
" id="DejaVuSans-37" transform="scale(0.015625)"/>
       </defs>
       <use xlink:href="#DejaVuSans-37"/>
       <use x="63.623047" xlink:href="#DejaVuSans-35"/>
       <use x="127.246094" xlink:href="#DejaVuSans-30"/>
      </g>
     </g>
    </g>
    <g id="xtick_5">
     <g id="line2d_5">
      <g>
       <use style="stroke:#000000;stroke-width:0.8;" x="240.842059" xlink:href="#me853bc6388" y="246.04"/>
      </g>
     </g>
     <g id="text_5">
      <!-- 1000 -->
      <g transform="translate(228.117059 260.638438)scale(0.1 -0.1)">
       <defs>
        <path d="M 794 531 
L 1825 531 
L 1825 4091 
L 703 3866 
L 703 4441 
L 1819 4666 
L 2450 4666 
L 2450 531 
L 3481 531 
L 3481 0 
L 794 0 
L 794 531 
z
" id="DejaVuSans-31" transform="scale(0.015625)"/>
       </defs>
       <use xlink:href="#DejaVuSans-31"/>
       <use x="63.623047" xlink:href="#DejaVuSans-30"/>
       <use x="127.246094" xlink:href="#DejaVuSans-30"/>
       <use x="190.869141" xlink:href="#DejaVuSans-30"/>
      </g>
     </g>
    </g>
    <g id="xtick_6">
     <g id="line2d_6">
      <g>
       <use style="stroke:#000000;stroke-width:0.8;" x="281.871665" xlink:href="#me853bc6388" y="246.04"/>
      </g>
     </g>
     <g id="text_6">
      <!-- 1250 -->
      <g transform="translate(269.146665 260.638438)scale(0.1 -0.1)">
       <use xlink:href="#DejaVuSans-31"/>
       <use x="63.623047" xlink:href="#DejaVuSans-32"/>
       <use x="127.246094" xlink:href="#DejaVuSans-35"/>
       <use x="190.869141" xlink:href="#DejaVuSans-30"/>
      </g>
     </g>
    </g>
    <g id="xtick_7">
     <g id="line2d_7">
      <g>
       <use style="stroke:#000000;stroke-width:0.8;" x="322.901271" xlink:href="#me853bc6388" y="246.04"/>
      </g>
     </g>
     <g id="text_7">
      <!-- 1500 -->
      <g transform="translate(310.176271 260.638438)scale(0.1 -0.1)">
       <use xlink:href="#DejaVuSans-31"/>
       <use x="63.623047" xlink:href="#DejaVuSans-35"/>
       <use x="127.246094" xlink:href="#DejaVuSans-30"/>
       <use x="190.869141" xlink:href="#DejaVuSans-30"/>
      </g>
     </g>
    </g>
    <g id="xtick_8">
     <g id="line2d_8">
      <g>
       <use style="stroke:#000000;stroke-width:0.8;" x="363.930876" xlink:href="#me853bc6388" y="246.04"/>
      </g>
     </g>
     <g id="text_8">
      <!-- 1750 -->
      <g transform="translate(351.205876 260.638438)scale(0.1 -0.1)">
       <use xlink:href="#DejaVuSans-31"/>
       <use x="63.623047" xlink:href="#DejaVuSans-37"/>
       <use x="127.246094" xlink:href="#DejaVuSans-35"/>
       <use x="190.869141" xlink:href="#DejaVuSans-30"/>
      </g>
     </g>
    </g>
    <g id="xtick_9">
     <g id="line2d_9">
      <g>
       <use style="stroke:#000000;stroke-width:0.8;" x="404.960482" xlink:href="#me853bc6388" y="246.04"/>
      </g>
     </g>
     <g id="text_9">
      <!-- 2000 -->
      <g transform="translate(392.235482 260.638438)scale(0.1 -0.1)">
       <use xlink:href="#DejaVuSans-32"/>
       <use x="63.623047" xlink:href="#DejaVuSans-30"/>
       <use x="127.246094" xlink:href="#DejaVuSans-30"/>
       <use x="190.869141" xlink:href="#DejaVuSans-30"/>
      </g>
     </g>
    </g>
    <g id="text_10">
     <!-- Epoch -->
     <g transform="translate(225.449062 274.316562)scale(0.1 -0.1)">
      <defs>
       <path d="M 628 4666 
L 3578 4666 
L 3578 4134 
L 1259 4134 
L 1259 2753 
L 3481 2753 
L 3481 2222 
L 1259 2222 
L 1259 531 
L 3634 531 
L 3634 0 
L 628 0 
L 628 4666 
z
" id="DejaVuSans-45" transform="scale(0.015625)"/>
       <path d="M 1159 525 
L 1159 -1331 
L 581 -1331 
L 581 3500 
L 1159 3500 
L 1159 2969 
Q 1341 3281 1617 3432 
Q 1894 3584 2278 3584 
Q 2916 3584 3314 3078 
Q 3713 2572 3713 1747 
Q 3713 922 3314 415 
Q 2916 -91 2278 -91 
Q 1894 -91 1617 61 
Q 1341 213 1159 525 
z
M 3116 1747 
Q 3116 2381 2855 2742 
Q 2594 3103 2138 3103 
Q 1681 3103 1420 2742 
Q 1159 2381 1159 1747 
Q 1159 1113 1420 752 
Q 1681 391 2138 391 
Q 2594 391 2855 752 
Q 3116 1113 3116 1747 
z
" id="DejaVuSans-70" transform="scale(0.015625)"/>
       <path d="M 1959 3097 
Q 1497 3097 1228 2736 
Q 959 2375 959 1747 
Q 959 1119 1226 758 
Q 1494 397 1959 397 
Q 2419 397 2687 759 
Q 2956 1122 2956 1747 
Q 2956 2369 2687 2733 
Q 2419 3097 1959 3097 
z
M 1959 3584 
Q 2709 3584 3137 3096 
Q 3566 2609 3566 1747 
Q 3566 888 3137 398 
Q 2709 -91 1959 -91 
Q 1206 -91 779 398 
Q 353 888 353 1747 
Q 353 2609 779 3096 
Q 1206 3584 1959 3584 
z
" id="DejaVuSans-6f" transform="scale(0.015625)"/>
       <path d="M 3122 3366 
L 3122 2828 
Q 2878 2963 2633 3030 
Q 2388 3097 2138 3097 
Q 1578 3097 1268 2742 
Q 959 2388 959 1747 
Q 959 1106 1268 751 
Q 1578 397 2138 397 
Q 2388 397 2633 464 
Q 2878 531 3122 666 
L 3122 134 
Q 2881 22 2623 -34 
Q 2366 -91 2075 -91 
Q 1284 -91 818 406 
Q 353 903 353 1747 
Q 353 2603 823 3093 
Q 1294 3584 2113 3584 
Q 2378 3584 2631 3529 
Q 2884 3475 3122 3366 
z
" id="DejaVuSans-63" transform="scale(0.015625)"/>
       <path d="M 3513 2113 
L 3513 0 
L 2938 0 
L 2938 2094 
Q 2938 2591 2744 2837 
Q 2550 3084 2163 3084 
Q 1697 3084 1428 2787 
Q 1159 2491 1159 1978 
L 1159 0 
L 581 0 
L 581 4863 
L 1159 4863 
L 1159 2956 
Q 1366 3272 1645 3428 
Q 1925 3584 2291 3584 
Q 2894 3584 3203 3211 
Q 3513 2838 3513 2113 
z
" id="DejaVuSans-68" transform="scale(0.015625)"/>
      </defs>
      <use xlink:href="#DejaVuSans-45"/>
      <use x="63.183594" xlink:href="#DejaVuSans-70"/>
      <use x="126.660156" xlink:href="#DejaVuSans-6f"/>
      <use x="187.841797" xlink:href="#DejaVuSans-63"/>
      <use x="242.822266" xlink:href="#DejaVuSans-68"/>
     </g>
    </g>
   </g>
   <g id="matplotlib.axis_2">
    <g id="ytick_1">
     <g id="line2d_10">
      <defs>
       <path d="M 0 0 
L -3.5 0 
" id="m59f8bf2d6b" style="stroke:#000000;stroke-width:0.8;"/>
      </defs>
      <g>
       <use style="stroke:#000000;stroke-width:0.8;" x="60.32" xlink:href="#m59f8bf2d6b" y="210.791167"/>
      </g>
     </g>
     <g id="text_11">
      <!-- 0.001 -->
      <g transform="translate(24.691875 214.590386)scale(0.1 -0.1)">
       <defs>
        <path d="M 684 794 
L 1344 794 
L 1344 0 
L 684 0 
L 684 794 
z
" id="DejaVuSans-2e" transform="scale(0.015625)"/>
       </defs>
       <use xlink:href="#DejaVuSans-30"/>
       <use x="63.623047" xlink:href="#DejaVuSans-2e"/>
       <use x="95.410156" xlink:href="#DejaVuSans-30"/>
       <use x="159.033203" xlink:href="#DejaVuSans-30"/>
       <use x="222.65625" xlink:href="#DejaVuSans-31"/>
      </g>
     </g>
    </g>
    <g id="ytick_2">
     <g id="line2d_11">
      <g>
       <use style="stroke:#000000;stroke-width:0.8;" x="60.32" xlink:href="#m59f8bf2d6b" y="158.620643"/>
      </g>
     </g>
     <g id="text_12">
      <!-- 0.002 -->
      <g transform="translate(24.691875 162.419862)scale(0.1 -0.1)">
       <use xlink:href="#DejaVuSans-30"/>
       <use x="63.623047" xlink:href="#DejaVuSans-2e"/>
       <use x="95.410156" xlink:href="#DejaVuSans-30"/>
       <use x="159.033203" xlink:href="#DejaVuSans-30"/>
       <use x="222.65625" xlink:href="#DejaVuSans-32"/>
      </g>
     </g>
    </g>
    <g id="ytick_3">
     <g id="line2d_12">
      <g>
       <use style="stroke:#000000;stroke-width:0.8;" x="60.32" xlink:href="#m59f8bf2d6b" y="106.450119"/>
      </g>
     </g>
     <g id="text_13">
      <!-- 0.003 -->
      <g transform="translate(24.691875 110.249338)scale(0.1 -0.1)">
       <defs>
        <path d="M 2597 2516 
Q 3050 2419 3304 2112 
Q 3559 1806 3559 1356 
Q 3559 666 3084 287 
Q 2609 -91 1734 -91 
Q 1441 -91 1130 -33 
Q 819 25 488 141 
L 488 750 
Q 750 597 1062 519 
Q 1375 441 1716 441 
Q 2309 441 2620 675 
Q 2931 909 2931 1356 
Q 2931 1769 2642 2001 
Q 2353 2234 1838 2234 
L 1294 2234 
L 1294 2753 
L 1863 2753 
Q 2328 2753 2575 2939 
Q 2822 3125 2822 3475 
Q 2822 3834 2567 4026 
Q 2313 4219 1838 4219 
Q 1578 4219 1281 4162 
Q 984 4106 628 3988 
L 628 4550 
Q 988 4650 1302 4700 
Q 1616 4750 1894 4750 
Q 2613 4750 3031 4423 
Q 3450 4097 3450 3541 
Q 3450 3153 3228 2886 
Q 3006 2619 2597 2516 
z
" id="DejaVuSans-33" transform="scale(0.015625)"/>
       </defs>
       <use xlink:href="#DejaVuSans-30"/>
       <use x="63.623047" xlink:href="#DejaVuSans-2e"/>
       <use x="95.410156" xlink:href="#DejaVuSans-30"/>
       <use x="159.033203" xlink:href="#DejaVuSans-30"/>
       <use x="222.65625" xlink:href="#DejaVuSans-33"/>
      </g>
     </g>
    </g>
    <g id="ytick_4">
     <g id="line2d_13">
      <g>
       <use style="stroke:#000000;stroke-width:0.8;" x="60.32" xlink:href="#m59f8bf2d6b" y="54.279595"/>
      </g>
     </g>
     <g id="text_14">
      <!-- 0.004 -->
      <g transform="translate(24.691875 58.078814)scale(0.1 -0.1)">
       <defs>
        <path d="M 2419 4116 
L 825 1625 
L 2419 1625 
L 2419 4116 
z
M 2253 4666 
L 3047 4666 
L 3047 1625 
L 3713 1625 
L 3713 1100 
L 3047 1100 
L 3047 0 
L 2419 0 
L 2419 1100 
L 313 1100 
L 313 1709 
L 2253 4666 
z
" id="DejaVuSans-34" transform="scale(0.015625)"/>
       </defs>
       <use xlink:href="#DejaVuSans-30"/>
       <use x="63.623047" xlink:href="#DejaVuSans-2e"/>
       <use x="95.410156" xlink:href="#DejaVuSans-30"/>
       <use x="159.033203" xlink:href="#DejaVuSans-30"/>
       <use x="222.65625" xlink:href="#DejaVuSans-34"/>
      </g>
     </g>
    </g>
    <g id="text_15">
     <!-- Loss -->
     <g transform="translate(18.612188 139.387188)rotate(-90)scale(0.1 -0.1)">
      <defs>
       <path d="M 628 4666 
L 1259 4666 
L 1259 531 
L 3531 531 
L 3531 0 
L 628 0 
L 628 4666 
z
" id="DejaVuSans-4c" transform="scale(0.015625)"/>
       <path d="M 2834 3397 
L 2834 2853 
Q 2591 2978 2328 3040 
Q 2066 3103 1784 3103 
Q 1356 3103 1142 2972 
Q 928 2841 928 2578 
Q 928 2378 1081 2264 
Q 1234 2150 1697 2047 
L 1894 2003 
Q 2506 1872 2764 1633 
Q 3022 1394 3022 966 
Q 3022 478 2636 193 
Q 2250 -91 1575 -91 
Q 1294 -91 989 -36 
Q 684 19 347 128 
L 347 722 
Q 666 556 975 473 
Q 1284 391 1588 391 
Q 1994 391 2212 530 
Q 2431 669 2431 922 
Q 2431 1156 2273 1281 
Q 2116 1406 1581 1522 
L 1381 1569 
Q 847 1681 609 1914 
Q 372 2147 372 2553 
Q 372 3047 722 3315 
Q 1072 3584 1716 3584 
Q 2034 3584 2315 3537 
Q 2597 3491 2834 3397 
z
" id="DejaVuSans-73" transform="scale(0.015625)"/>
      </defs>
      <use xlink:href="#DejaVuSans-4c"/>
      <use x="53.962891" xlink:href="#DejaVuSans-6f"/>
      <use x="115.144531" xlink:href="#DejaVuSans-73"/>
      <use x="167.244141" xlink:href="#DejaVuSans-73"/>
     </g>
    </g>
   </g>
   <g id="line2d_14">
    <path clip-path="url(#p27f64da963)" d="M 76.723636 21.492727 
L 77.215992 70.479181 
L 77.708347 95.4952 
L 78.036584 108.773943 
L 78.200702 109.317616 
L 78.364821 109.31646 
L 79.021294 123.727697 
L 79.677768 138.263568 
L 80.170123 145.70926 
L 80.826597 153.912479 
L 81.154834 157.122788 
L 81.483071 160.250304 
L 81.647189 160.534334 
L 81.811307 160.595071 
L 82.139544 162.212505 
L 82.467781 163.684564 
L 82.960136 166.806997 
L 83.452492 170.966533 
L 84.765439 179.41274 
L 85.093676 180.405695 
L 85.257794 181.143564 
L 85.421913 181.033572 
L 86.078386 182.518907 
L 86.242505 182.588494 
L 86.406623 182.958009 
L 86.570742 182.548966 
L 87.227215 183.845761 
L 87.391334 183.363708 
L 87.555452 183.459921 
L 87.719571 184.075997 
L 87.883689 183.811959 
L 88.047808 183.790486 
L 88.211926 184.53585 
L 88.376044 183.81485 
L 88.704281 184.766728 
L 88.8684 184.450291 
L 89.032518 185.421001 
L 89.196637 185.106931 
L 89.688992 186.309705 
L 89.85311 186.211359 
L 90.017229 185.932945 
L 90.345465 187.150016 
L 90.673702 187.036979 
L 91.330176 187.637258 
L 91.494294 187.282992 
L 91.822531 187.937514 
L 92.150768 187.87142 
L 92.807242 188.838064 
L 92.97136 188.893837 
L 93.135479 188.599102 
L 93.463715 189.252827 
L 93.627834 188.211214 
L 93.791952 188.550938 
L 93.956071 189.267005 
L 94.120189 189.477372 
L 94.448426 189.289315 
L 94.776663 189.914276 
L 94.940781 189.855667 
L 95.1049 190.349805 
L 95.269018 190.306231 
L 95.433137 189.918103 
L 95.597255 189.928917 
L 95.761373 190.220747 
L 95.925492 189.557354 
L 96.08961 189.475468 
L 96.253729 189.959899 
L 96.417847 190.080047 
L 96.581966 189.818995 
L 96.746084 189.967578 
L 96.910202 190.359249 
L 97.238439 189.803646 
L 97.730794 191.024261 
L 97.894913 190.634155 
L 98.059031 190.771825 
L 98.387268 191.381143 
L 98.551387 191.759 
L 98.715505 191.678235 
L 98.879623 191.242601 
L 99.20786 192.078158 
L 99.371979 191.776392 
L 99.700216 191.830277 
L 99.864334 192.685857 
L 100.192571 192.374368 
L 100.356689 192.382849 
L 100.684926 193.381192 
L 100.849045 193.288881 
L 101.177281 193.739166 
L 101.3414 193.693867 
L 101.505518 193.255996 
L 101.669637 193.626756 
L 101.833755 194.647808 
L 101.997873 194.136443 
L 102.161992 194.330125 
L 102.32611 194.719997 
L 102.490229 194.770982 
L 102.654347 195.474814 
L 102.818466 195.521074 
L 102.982584 195.132458 
L 103.474939 196.499394 
L 103.639058 196.049857 
L 103.803176 196.459204 
L 103.967295 196.460355 
L 104.295531 197.23502 
L 104.45965 197.617502 
L 104.623768 197.708677 
L 104.787887 197.983862 
L 105.116124 199.360206 
L 105.280242 198.889415 
L 105.44436 199.294332 
L 105.608479 200.145247 
L 106.264952 200.976703 
L 106.593189 201.85871 
L 106.757308 201.398747 
L 106.921426 202.207713 
L 107.085545 202.198484 
L 107.249663 202.541851 
L 107.413781 202.560713 
L 107.906137 203.307243 
L 108.070255 203.330385 
L 108.234374 203.220707 
L 108.398492 203.359269 
L 108.56261 203.797045 
L 108.726729 203.781677 
L 108.890847 204.135658 
L 109.054966 204.067167 
L 109.219084 204.611553 
L 109.383203 204.012665 
L 109.547321 204.051216 
L 109.711439 204.270234 
L 109.875558 205.254205 
L 110.039676 205.444842 
L 110.367913 204.756708 
L 110.69615 206.193804 
L 110.860268 206.061979 
L 111.188505 205.62191 
L 111.352624 206.004048 
L 111.68086 206.203078 
L 111.844979 206.472143 
L 112.009097 206.245052 
L 112.337334 206.998534 
L 112.501453 206.7335 
L 112.665571 207.401253 
L 112.829689 207.464785 
L 112.993808 208.128771 
L 113.157926 207.893253 
L 113.322045 208.357127 
L 113.486163 208.094346 
L 113.8144 208.64067 
L 113.978518 208.538441 
L 114.306755 209.603501 
L 114.470874 208.853972 
L 114.634992 209.022777 
L 114.963229 210.19018 
L 115.291466 209.971202 
L 115.619703 210.555434 
L 115.783821 210.394447 
L 115.947939 210.727663 
L 116.112058 210.213303 
L 116.440295 210.940143 
L 116.768532 210.499421 
L 116.93265 211.272298 
L 117.096768 211.085966 
L 118.081479 211.83702 
L 118.245597 211.633097 
L 118.409716 211.820874 
L 118.573834 212.326539 
L 118.737953 212.388053 
L 119.066189 212.154325 
L 119.558545 212.471928 
L 119.722663 212.629177 
L 119.886782 212.519843 
L 120.215018 213.308845 
L 120.379137 212.961611 
L 120.543255 213.048815 
L 120.707374 213.466384 
L 120.871492 213.515495 
L 121.035611 213.963034 
L 121.199729 213.306668 
L 121.363847 213.290377 
L 121.527966 213.695453 
L 122.020321 213.245198 
L 122.348558 213.625377 
L 122.512676 213.329506 
L 122.840913 214.236116 
L 123.005032 214.004276 
L 123.333268 214.912051 
L 123.661505 214.225726 
L 123.989742 214.986836 
L 124.153861 214.633318 
L 124.317979 214.667439 
L 124.482097 214.899204 
L 124.646216 215.434196 
L 124.810334 214.939235 
L 124.974453 214.815399 
L 125.30269 215.840089 
L 125.466808 215.655456 
L 125.795045 215.813957 
L 126.123282 216.353269 
L 126.2874 216.247707 
L 126.615637 215.651181 
L 126.943874 216.352088 
L 127.107992 216.022614 
L 127.436229 216.374139 
L 127.764466 216.854553 
L 127.928584 216.642268 
L 128.092703 217.252633 
L 128.256821 216.904252 
L 128.42094 216.874432 
L 128.749176 218.08071 
L 128.913295 217.456401 
L 129.077413 217.389615 
L 129.40565 217.090863 
L 129.569769 217.902276 
L 129.733887 217.678863 
L 130.226242 218.339629 
L 130.390361 217.908939 
L 130.718597 218.481525 
L 130.882716 218.42147 
L 131.046834 219.127162 
L 131.375071 218.650261 
L 131.53919 219.207089 
L 131.703308 219.117863 
L 131.867426 219.567525 
L 132.031545 218.878548 
L 132.195663 219.061411 
L 132.359782 219.783353 
L 132.5239 219.616571 
L 132.688019 219.077657 
L 133.016255 220.00407 
L 133.180374 219.734113 
L 133.508611 220.617804 
L 133.672729 220.112867 
L 133.836848 220.401063 
L 134.000966 221.022616 
L 134.165084 220.377213 
L 134.329203 220.489219 
L 134.493321 220.959751 
L 134.65744 221.000106 
L 134.985676 220.480274 
L 135.149795 220.845034 
L 135.806269 220.507662 
L 136.134505 221.429202 
L 136.298624 221.099658 
L 136.462742 221.186672 
L 136.790979 221.754063 
L 136.955098 221.20371 
L 137.119216 221.146741 
L 137.283334 221.446935 
L 137.447453 221.467003 
L 137.611571 221.289214 
L 137.939808 222.023577 
L 138.103927 221.623096 
L 138.268045 222.057643 
L 138.432163 221.468498 
L 138.596282 221.831168 
L 138.7604 221.886824 
L 139.088637 222.265516 
L 139.252755 221.86416 
L 139.416874 221.882603 
L 139.745111 222.531599 
L 139.909229 222.595062 
L 140.073348 221.963368 
L 140.565703 223.090715 
L 141.058058 223.074542 
L 141.222177 223.279556 
L 141.550413 222.552312 
L 141.714532 223.469068 
L 141.87865 222.99211 
L 142.042769 222.927536 
L 142.206887 223.285038 
L 142.371006 222.955706 
L 142.535124 222.888523 
L 142.863361 222.223501 
L 143.027479 222.629659 
L 143.191598 222.604789 
L 143.355716 223.247695 
L 143.519834 222.348733 
L 143.683953 223.224902 
L 143.848071 222.956349 
L 144.01219 223.233934 
L 144.176308 222.510457 
L 144.504545 223.564442 
L 144.668663 222.931492 
L 144.832782 223.202815 
L 144.9969 223.170239 
L 145.325137 223.945548 
L 145.489256 223.519709 
L 145.981611 224.08843 
L 146.145729 223.609434 
L 146.309848 223.543292 
L 146.638084 223.783654 
L 146.802203 223.627543 
L 146.966321 223.857642 
L 147.13044 224.351252 
L 147.294558 224.473555 
L 147.458677 223.90216 
L 147.951032 224.603065 
L 148.11515 224.545946 
L 148.279269 224.227388 
L 148.443387 224.179613 
L 148.607506 224.806821 
L 148.771624 224.71953 
L 148.935742 224.393485 
L 149.263979 224.399682 
L 149.428098 224.20751 
L 149.592216 224.605736 
L 149.756335 224.407611 
L 149.920453 224.559366 
L 150.084571 224.496581 
L 150.24869 224.964671 
L 150.412808 224.593427 
L 150.741045 224.576127 
L 150.905163 224.865223 
L 151.069282 225.388786 
L 151.397519 224.937437 
L 151.561637 225.508142 
L 151.725756 225.648954 
L 151.889874 225.113494 
L 152.382229 226.016555 
L 152.546348 225.72623 
L 152.710466 225.816723 
L 153.038703 225.566342 
L 153.36694 225.937091 
L 153.531058 225.861782 
L 153.695177 225.401715 
L 154.023414 226.017278 
L 154.187532 225.637412 
L 154.35165 226.053524 
L 154.515769 226.030743 
L 154.679887 226.263255 
L 154.844006 226.185288 
L 155.008124 226.549648 
L 155.172242 226.6186 
L 155.336361 225.840135 
L 155.500479 226.581569 
L 155.664598 226.258765 
L 156.156953 226.475421 
L 156.321071 226.224849 
L 156.48519 226.967606 
L 156.813427 226.531182 
L 156.977545 227.091823 
L 157.141664 227.049829 
L 157.305782 226.331776 
L 157.4699 226.573349 
L 157.634019 227.300852 
L 157.798137 226.593579 
L 158.126374 226.615311 
L 158.454611 225.949118 
L 158.618729 226.960216 
L 158.782848 227.166028 
L 158.946966 226.329833 
L 159.275203 227.262841 
L 159.439321 227.207033 
L 159.60344 227.293905 
L 159.767558 227.639044 
L 159.931677 227.014011 
L 160.259914 227.442733 
L 160.424032 227.069739 
L 160.58815 227.024598 
L 160.752269 227.249583 
L 160.916387 227.273032 
L 161.244624 227.08289 
L 161.408743 227.604836 
L 161.736979 227.15247 
L 161.901098 227.024511 
L 162.065216 227.195639 
L 162.229335 227.697082 
L 162.393453 227.361766 
L 162.557572 227.814121 
L 162.885808 227.101947 
L 163.214045 227.817981 
L 163.378164 227.268657 
L 163.542282 227.4345 
L 163.7064 227.971837 
L 163.870519 227.941358 
L 164.034637 228.116543 
L 164.198756 228.086488 
L 164.362874 227.64178 
L 164.526993 228.326728 
L 164.691111 228.351119 
L 164.855229 228.244667 
L 165.019348 228.422966 
L 165.183466 228.132656 
L 165.511703 228.541976 
L 165.83994 228.405776 
L 166.004058 228.691795 
L 166.332295 228.527003 
L 166.496414 228.896867 
L 166.824651 228.711449 
L 166.988769 228.87734 
L 167.152887 228.495145 
L 167.317006 228.958693 
L 167.645243 228.647558 
L 167.809361 228.155166 
L 168.137598 228.510543 
L 168.465835 228.78531 
L 168.95819 228.443946 
L 169.122308 229.110692 
L 169.286427 228.868026 
L 169.450545 228.850422 
L 169.778782 229.538916 
L 169.942901 229.324012 
L 170.107019 228.905236 
L 170.435256 229.692826 
L 170.599374 229.146617 
L 170.763493 229.352282 
L 170.927611 229.281499 
L 171.09173 228.979516 
L 171.255848 229.044239 
L 171.419966 229.352459 
L 171.584085 228.815676 
L 171.748203 228.890294 
L 171.912322 229.149612 
L 172.07644 228.998079 
L 172.240558 228.6386 
L 172.404677 229.2937 
L 172.568795 229.431629 
L 172.732914 228.785452 
L 173.061151 229.900417 
L 173.389387 228.983831 
L 173.717624 229.586158 
L 173.881743 229.17049 
L 174.045861 229.34016 
L 174.20998 229.734058 
L 174.374098 229.254559 
L 174.538216 229.44949 
L 174.702335 229.259358 
L 174.866453 229.726043 
L 175.030572 229.502032 
L 175.358808 230.111489 
L 175.522927 228.937867 
L 175.851164 229.796128 
L 176.179401 228.797115 
L 176.343519 229.93186 
L 176.507637 229.450344 
L 176.835874 229.391693 
L 177.32823 228.995363 
L 177.492348 229.344062 
L 177.656466 228.903998 
L 177.820585 228.994488 
L 177.984703 229.31105 
L 178.148822 229.914974 
L 178.31294 229.315537 
L 178.641177 229.648696 
L 178.805295 230.275147 
L 178.969414 229.89527 
L 179.133532 229.224517 
L 179.625887 229.761352 
L 179.790006 229.640788 
L 180.282361 229.783361 
L 180.44648 230.246999 
L 180.938835 229.565796 
L 181.267072 230.234545 
L 181.595309 229.819186 
L 181.923545 230.377837 
L 182.251782 229.638737 
L 182.744138 230.811823 
L 183.072374 230.420155 
L 183.236493 230.690329 
L 183.400611 230.641827 
L 183.56473 230.357457 
L 183.728848 230.420454 
L 184.057085 230.091357 
L 184.385322 230.159681 
L 184.54944 230.474895 
L 184.877677 229.974094 
L 185.041795 230.776556 
L 185.370032 229.548292 
L 185.534151 230.852428 
L 185.862388 229.967152 
L 186.026506 230.03272 
L 186.190624 230.681302 
L 186.354743 230.337912 
L 186.68298 230.537393 
L 186.847098 230.66834 
L 187.011217 230.256933 
L 187.175335 230.30507 
L 187.339453 231.182659 
L 187.503572 231.092899 
L 187.831809 230.517203 
L 187.995927 230.835796 
L 188.324164 230.255388 
L 188.488282 230.87937 
L 188.652401 230.425014 
L 188.980638 230.782621 
L 189.144756 230.745243 
L 189.308874 229.875812 
L 189.637111 230.852662 
L 189.80123 230.7688 
L 189.965348 230.885158 
L 190.129467 230.523395 
L 190.457703 231.038775 
L 190.78594 230.729616 
L 190.950059 230.812394 
L 191.114177 230.127057 
L 191.278296 230.596411 
L 191.442414 230.533932 
L 191.606532 230.883875 
L 191.770651 230.32216 
L 191.934769 230.864739 
L 192.427124 230.41275 
L 192.591243 230.71556 
L 192.755361 230.377346 
L 192.91948 230.426491 
L 193.083598 230.940792 
L 193.411835 230.150235 
L 193.575953 230.373852 
L 193.740072 231.029035 
L 194.068309 229.972883 
L 194.232427 230.355414 
L 194.560664 230.454358 
L 194.724782 230.144197 
L 194.888901 230.795712 
L 195.217138 230.551072 
L 195.381256 231.195167 
L 195.545375 230.597325 
L 195.709493 231.032593 
L 195.873611 230.510473 
L 196.03773 230.859354 
L 196.201848 230.73348 
L 196.365967 230.801578 
L 196.530085 231.275013 
L 196.694203 230.696322 
L 196.858322 231.217143 
L 197.02244 230.85624 
L 197.678914 231.541925 
L 197.843032 231.222511 
L 198.007151 231.239942 
L 198.335388 230.829659 
L 198.499506 230.770095 
L 198.663625 230.831597 
L 198.827743 230.556606 
L 199.15598 231.334598 
L 199.320098 231.059495 
L 199.648335 231.244365 
L 199.812453 231.104931 
L 200.14069 231.394082 
L 200.304809 230.978536 
L 200.797164 231.002013 
L 201.125401 231.518705 
L 201.289519 231.485317 
L 201.453638 230.978444 
L 201.617756 231.194965 
L 202.110111 230.832071 
L 202.27423 231.05296 
L 202.438348 231.06854 
L 202.602467 231.458018 
L 202.930704 231.41326 
L 203.094822 232.089101 
L 203.25894 231.305094 
L 203.751296 231.582467 
L 204.079532 231.300452 
L 204.243651 231.511534 
L 204.407769 231.516306 
L 204.571888 230.833743 
L 204.900125 230.620291 
L 205.064243 231.466936 
L 205.228361 231.023458 
L 205.39248 231.173938 
L 205.720717 230.674642 
L 205.884835 231.693013 
L 206.048954 231.191118 
L 206.213072 231.321191 
L 206.37719 231.65786 
L 206.705427 230.807221 
L 206.869546 230.679132 
L 207.033664 231.693389 
L 207.197783 230.945065 
L 207.361901 230.730984 
L 207.526019 231.287787 
L 207.690138 230.841661 
L 207.854256 231.348621 
L 208.018375 230.847763 
L 208.182493 230.897011 
L 208.346611 231.663504 
L 208.51073 231.138439 
L 208.674848 231.834629 
L 208.838967 231.191566 
L 209.167204 231.200218 
L 209.331322 230.697441 
L 209.49544 231.419629 
L 209.659559 231.044707 
L 209.823677 229.844861 
L 210.151914 231.146689 
L 210.316033 231.079446 
L 210.480151 230.735551 
L 210.644269 229.944809 
L 210.972506 231.592217 
L 211.136625 230.951187 
L 211.464862 231.555266 
L 211.62898 230.587785 
L 211.793098 230.807381 
L 211.957217 231.48828 
L 212.121335 231.204857 
L 212.61369 231.112147 
L 212.941927 231.026443 
L 213.270164 231.46809 
L 213.434283 231.172179 
L 213.598401 231.484203 
L 213.926638 231.18317 
L 214.090756 231.766901 
L 214.254875 231.56905 
L 214.583112 232.009173 
L 214.74723 231.591146 
L 214.911348 231.51888 
L 215.075467 232.064695 
L 215.239585 232.104786 
L 215.403704 231.663292 
L 215.567822 231.895708 
L 215.731941 231.905961 
L 215.896059 231.133154 
L 216.224296 232.136448 
L 216.388414 231.919257 
L 216.552533 231.952117 
L 216.716651 231.644926 
L 216.880769 231.725733 
L 217.044888 232.414307 
L 217.373125 231.990416 
L 217.701362 232.195944 
L 218.029598 231.711167 
L 218.193717 231.866657 
L 218.357835 231.827428 
L 218.521954 232.124623 
L 218.686072 232.013631 
L 219.178427 232.202158 
L 219.342546 232.178744 
L 219.506664 231.922229 
L 219.99902 232.148411 
L 220.163138 232.147319 
L 220.327256 232.289262 
L 220.491375 232.13586 
L 220.655493 231.50157 
L 220.98373 232.310803 
L 221.147848 232.225752 
L 221.476085 231.766597 
L 221.640204 231.756518 
L 221.804322 232.039667 
L 222.132559 231.573074 
L 222.296677 232.08207 
L 222.624914 231.708494 
L 222.953151 232.278827 
L 223.11727 232.228784 
L 223.281388 232.536254 
L 223.609625 232.282784 
L 223.773743 232.885547 
L 223.937862 232.765062 
L 224.10198 232.350303 
L 224.266099 232.605712 
L 224.758454 232.504338 
L 224.922572 232.197496 
L 225.086691 232.398395 
L 225.414927 231.952707 
L 225.579046 231.994512 
L 225.743164 231.848864 
L 226.071401 232.295676 
L 226.23552 231.922189 
L 226.399638 232.32949 
L 226.727875 232.012849 
L 226.891993 232.297871 
L 227.056112 232.002735 
L 227.384349 232.690586 
L 227.548467 232.348427 
L 227.712585 232.264134 
L 228.040822 232.440238 
L 228.204941 232.211562 
L 228.697296 232.145672 
L 228.861414 231.977913 
L 229.025533 232.408638 
L 229.189651 231.936616 
L 229.682006 232.157169 
L 229.846125 232.030811 
L 230.174362 231.531288 
L 230.33848 232.403857 
L 230.502599 232.216894 
L 230.666717 231.768234 
L 230.830835 231.765291 
L 230.994954 232.530591 
L 231.159072 232.425118 
L 231.323191 232.106438 
L 231.487309 232.265372 
L 231.651428 232.799905 
L 231.979664 232.300582 
L 232.307901 232.993294 
L 232.636138 232.529103 
L 232.800256 232.860378 
L 232.964375 232.718535 
L 233.128493 232.237563 
L 233.292612 232.388194 
L 233.45673 232.987433 
L 233.620849 232.49425 
L 233.949085 232.602248 
L 234.277322 232.358359 
L 234.441441 232.774862 
L 234.769678 231.981877 
L 234.933796 232.166605 
L 235.097914 231.80607 
L 235.262033 232.473103 
L 235.59027 231.667309 
L 235.918507 232.828921 
L 236.082625 232.253838 
L 236.246743 232.196724 
L 236.410862 232.935632 
L 236.57498 232.622015 
L 237.067335 232.681319 
L 237.231454 232.113335 
L 237.395572 232.044498 
L 237.559691 232.132392 
L 237.723809 232.538203 
L 238.052046 232.167325 
L 238.216164 232.73875 
L 238.380283 232.595514 
L 238.544401 232.032747 
L 238.70852 232.495241 
L 238.872638 232.495361 
L 239.036757 232.704527 
L 239.200875 232.293929 
L 239.364993 232.652005 
L 239.69323 232.494775 
L 240.021467 232.703874 
L 240.185586 232.103194 
L 240.349704 231.994403 
L 240.513822 232.948643 
L 240.677941 232.672122 
L 240.842059 232.072554 
L 241.170296 233.218817 
L 241.498533 232.159317 
L 241.662651 232.840363 
L 241.82677 232.855614 
L 241.990888 232.632988 
L 242.155007 232.659739 
L 242.319125 232.969586 
L 242.483243 232.480685 
L 242.647362 232.513455 
L 242.81148 232.791516 
L 242.975599 232.762715 
L 243.139717 232.894016 
L 243.303836 232.621058 
L 243.632072 232.845852 
L 243.796191 232.751121 
L 244.124428 232.899492 
L 244.288546 232.574569 
L 244.452665 231.979418 
L 244.616783 232.365266 
L 244.94502 232.522189 
L 245.109138 232.692312 
L 245.437375 231.956024 
L 245.601493 231.925229 
L 245.765612 232.255625 
L 245.92973 232.2869 
L 246.093849 232.011418 
L 246.257967 232.424241 
L 246.586204 231.56146 
L 246.750322 232.477271 
L 246.914441 232.39449 
L 247.078559 232.925697 
L 247.242678 232.50167 
L 247.570915 232.916625 
L 247.735033 232.781689 
L 247.899151 232.988951 
L 248.06327 232.648888 
L 248.391507 233.013451 
L 248.555625 232.372185 
L 248.719744 232.182247 
L 248.883862 232.739711 
L 249.212099 231.303682 
L 249.376217 232.201276 
L 249.540336 232.140988 
L 249.704454 232.520728 
L 249.868572 232.606412 
L 250.032691 232.007611 
L 250.196809 232.394598 
L 250.360928 232.253738 
L 250.525046 232.904548 
L 250.689165 232.802173 
L 250.853283 232.28856 
L 251.18152 232.930701 
L 251.345638 232.832688 
L 251.837994 233.143439 
L 252.002112 232.556668 
L 252.16623 233.395766 
L 252.330349 233.26888 
L 252.494467 232.614647 
L 252.658586 232.463759 
L 252.822704 233.269259 
L 252.986823 233.425606 
L 253.150941 232.59047 
L 253.643296 233.383946 
L 253.807415 233.314557 
L 253.971533 233.365986 
L 254.135651 233.040568 
L 254.956244 232.931503 
L 255.120362 233.117977 
L 255.28448 232.981389 
L 255.612717 233.193236 
L 255.940954 233.187373 
L 256.105073 232.88445 
L 256.269191 233.188344 
L 256.597428 232.961019 
L 256.925665 233.634545 
L 257.089783 233.257105 
L 257.253901 233.169193 
L 257.582138 234.033778 
L 257.746257 233.683238 
L 257.910375 233.651992 
L 258.074494 233.873624 
L 258.238612 233.450207 
L 258.566849 233.655483 
L 258.730967 233.125372 
L 258.895086 233.391695 
L 259.059204 233.444914 
L 259.223323 233.804427 
L 259.387441 233.204518 
L 259.551559 233.132611 
L 259.879796 233.787208 
L 260.208033 233.254722 
L 260.372152 233.241295 
L 260.53627 234.053886 
L 260.864507 233.009412 
L 261.028625 233.356363 
L 261.192744 232.711855 
L 261.356862 233.264016 
L 261.52098 233.333858 
L 261.685099 232.687798 
L 262.013336 233.827802 
L 262.177454 233.475694 
L 262.341573 233.5082 
L 262.505691 233.725252 
L 262.669809 233.573101 
L 262.998046 233.718363 
L 263.162165 233.788267 
L 263.326283 233.67794 
L 263.490402 234.139213 
L 264.146875 233.27105 
L 264.310994 233.632328 
L 264.475112 233.702727 
L 264.803349 233.343922 
L 264.967467 233.990314 
L 265.295704 233.449945 
L 265.459823 233.415719 
L 265.623941 233.786443 
L 265.788059 233.695419 
L 265.952178 233.404203 
L 266.116296 233.861661 
L 266.280415 233.756326 
L 266.608652 233.228298 
L 266.77277 233.369997 
L 267.101007 232.90691 
L 267.265125 232.979326 
L 267.429244 233.306285 
L 267.757481 232.720757 
L 268.249836 233.464945 
L 268.578073 232.769602 
L 268.742191 232.917649 
L 268.90631 233.221927 
L 269.070428 232.540335 
L 269.562783 232.854191 
L 269.726902 232.728155 
L 270.055138 233.420154 
L 270.219257 232.859967 
L 270.383375 233.290057 
L 270.547494 233.213136 
L 270.711612 232.828714 
L 270.875731 233.504503 
L 271.368086 232.859391 
L 271.532204 233.208026 
L 271.696323 233.277783 
L 271.860441 233.006821 
L 272.02456 232.418784 
L 272.352796 232.979582 
L 272.516915 232.761324 
L 272.681033 232.982096 
L 272.845152 232.982283 
L 273.00927 232.356061 
L 273.173389 232.44934 
L 273.337507 232.93466 
L 273.665744 232.824491 
L 273.829862 233.518593 
L 273.993981 233.621751 
L 274.158099 232.9069 
L 274.322217 232.818959 
L 274.650454 233.520883 
L 274.814573 233.048253 
L 275.14281 233.677848 
L 275.306928 233.169647 
L 275.471046 233.330808 
L 275.799283 233.768919 
L 276.12752 233.687688 
L 276.291639 233.918222 
L 276.619875 233.818418 
L 276.783994 233.540186 
L 276.948112 233.930494 
L 277.112231 233.997888 
L 277.276349 233.604005 
L 277.440468 233.582793 
L 277.604586 234.179915 
L 277.932823 233.624708 
L 278.26106 233.305254 
L 278.425178 233.60012 
L 278.589296 234.184721 
L 278.753415 233.554887 
L 278.917533 233.669075 
L 279.081652 233.626106 
L 279.574007 233.225181 
L 279.738125 233.716673 
L 279.902244 233.28622 
L 280.066362 233.492166 
L 280.230481 233.366765 
L 280.394599 233.819866 
L 280.722836 232.659111 
L 280.886954 233.371452 
L 281.051073 233.304307 
L 281.215191 233.077306 
L 281.37931 233.201872 
L 281.543428 233.625481 
L 281.707547 233.589322 
L 282.035783 233.054943 
L 282.199902 233.322665 
L 282.36402 233.831385 
L 282.528139 233.370984 
L 282.692257 232.42965 
L 283.184612 233.695591 
L 283.348731 233.377622 
L 283.512849 233.447745 
L 283.676968 233.69383 
L 283.841086 232.870487 
L 284.005204 233.03713 
L 284.169323 233.581617 
L 284.49756 233.301379 
L 284.825797 233.858439 
L 285.154033 233.682179 
L 285.318152 234.179863 
L 285.48227 233.903484 
L 285.646389 233.935472 
L 285.974625 233.714635 
L 286.138744 233.92343 
L 286.302862 233.565471 
L 286.466981 233.818914 
L 286.631099 233.800979 
L 286.795218 233.596996 
L 287.123454 234.181358 
L 287.287573 233.292212 
L 287.451691 233.361269 
L 287.61581 234.016504 
L 287.779928 234.04457 
L 287.944047 233.918506 
L 288.108165 234.558724 
L 288.272283 234.397909 
L 288.436402 233.917654 
L 288.60052 233.949216 
L 288.928757 234.247696 
L 289.092876 233.386609 
L 289.256994 233.963344 
L 289.421112 233.872323 
L 289.585231 233.359128 
L 289.749349 233.532621 
L 289.913468 233.964899 
L 290.077586 233.639895 
L 290.241704 233.92942 
L 290.569941 232.968447 
L 290.73406 232.947913 
L 290.898178 234.053834 
L 291.062297 233.433607 
L 291.226415 233.536842 
L 291.390533 233.848612 
L 291.554652 233.849793 
L 291.71877 233.27264 
L 292.047007 233.774074 
L 292.211126 233.230912 
L 292.375244 233.522953 
L 292.539362 234.075083 
L 292.703481 233.704995 
L 292.867599 233.89056 
L 293.031718 234.42066 
L 293.195836 233.870913 
L 293.359955 233.926983 
L 293.524073 233.852908 
L 293.688191 234.076371 
L 294.016428 233.763746 
L 294.180547 233.434355 
L 294.344665 233.500753 
L 294.508783 233.959868 
L 294.672902 233.600459 
L 295.001139 233.681067 
L 295.165257 233.441929 
L 295.329376 233.453884 
L 295.493494 233.847252 
L 295.985849 233.424889 
L 296.149968 233.856927 
L 296.314086 233.494842 
L 296.478205 233.589396 
L 296.642323 233.535128 
L 296.806441 233.236404 
L 296.97056 234.184826 
L 297.298797 233.373765 
L 297.462915 233.66073 
L 297.627034 234.730278 
L 297.95527 232.650769 
L 298.119389 232.994482 
L 298.283507 233.68337 
L 298.447626 233.509815 
L 298.611744 232.888345 
L 298.939981 233.94055 
L 299.104099 233.330801 
L 299.268218 233.643271 
L 299.432336 234.31761 
L 299.596455 233.81273 
L 299.760573 233.709562 
L 299.924691 234.16127 
L 300.08881 233.666424 
L 300.417047 233.732553 
L 300.581165 233.721821 
L 300.745284 233.540791 
L 301.07352 233.557655 
L 301.237639 233.366977 
L 301.401757 234.12737 
L 301.729994 233.059221 
L 301.894113 233.370682 
L 302.058231 233.375564 
L 302.222349 233.554755 
L 302.386468 234.052062 
L 302.550586 233.537485 
L 302.714705 233.701105 
L 302.878823 233.707232 
L 303.042941 234.254119 
L 303.20706 233.846435 
L 303.371178 233.908819 
L 303.535297 233.832195 
L 303.699415 233.533658 
L 303.863534 233.812137 
L 304.027652 233.664697 
L 304.355889 233.92026 
L 304.520007 233.584136 
L 304.684126 233.958253 
L 305.012363 234.005558 
L 305.176481 233.741782 
L 305.340599 234.008179 
L 305.504718 233.859142 
L 305.668836 234.16263 
L 305.997073 233.299445 
L 306.161192 234.084937 
L 306.489428 233.813809 
L 306.653547 233.828487 
L 306.817665 234.051138 
L 307.145902 233.267378 
L 307.31002 234.142998 
L 307.474139 233.606459 
L 307.638257 234.1588 
L 307.966494 233.565197 
L 308.294731 234.204495 
L 308.458849 234.023263 
L 308.622968 233.058008 
L 308.951205 234.236212 
L 309.279442 233.78111 
L 309.44356 234.086607 
L 309.607678 234.08476 
L 309.935915 233.894252 
L 310.100034 234.15368 
L 310.42827 233.692581 
L 310.592389 233.933773 
L 310.756507 233.567355 
L 310.920626 233.634246 
L 311.084744 233.571825 
L 311.248863 233.799158 
L 311.412981 233.792923 
L 311.741218 233.148161 
L 311.905336 233.826985 
L 312.233573 233.484828 
L 312.397692 234.030567 
L 312.56181 234.125995 
L 313.054165 234.657872 
L 313.382402 233.984221 
L 313.710639 233.675354 
L 313.874757 233.380382 
L 314.038876 233.909681 
L 314.367113 233.414827 
L 314.531231 234.484228 
L 314.859468 233.250659 
L 315.187705 234.014473 
L 315.351823 233.854286 
L 315.515942 232.750849 
L 316.008297 233.474341 
L 316.336534 233.479543 
L 316.500652 233.345322 
L 316.664771 233.756368 
L 316.828889 233.581343 
L 316.993007 234.197526 
L 317.321244 233.408678 
L 317.8136 234.154888 
L 317.977718 233.485536 
L 318.141836 233.788244 
L 318.305955 234.376458 
L 318.470073 234.170678 
L 318.634192 234.517706 
L 318.962428 233.844319 
L 319.126547 233.891287 
L 319.290665 233.453805 
L 319.454784 234.425579 
L 319.783021 233.721465 
L 319.947139 233.762946 
L 320.275376 234.489288 
L 320.603613 234.026919 
L 320.767731 234.269271 
L 321.095968 234.098838 
L 321.260086 233.590385 
L 321.424205 233.768744 
L 321.588323 234.287924 
L 321.752442 234.305525 
L 322.244797 233.92048 
L 322.573034 234.841182 
L 322.737152 234.143559 
L 322.901271 234.09391 
L 323.065389 233.809553 
L 323.393626 234.405329 
L 323.557744 234.019568 
L 324.0501 233.930668 
L 324.542455 233.551022 
L 324.870692 233.906868 
L 325.03481 234.055655 
L 325.198929 233.860283 
L 325.363047 233.257286 
L 325.527165 233.504692 
L 325.691284 234.542254 
L 326.019521 233.422272 
L 326.347758 234.488548 
L 326.511876 233.71006 
L 326.675994 233.515279 
L 326.840113 234.543051 
L 327.004231 233.838287 
L 327.16835 233.732991 
L 327.496586 234.277215 
L 327.824823 234.151819 
L 327.988942 234.076974 
L 328.317179 234.564118 
L 328.809534 233.779899 
L 328.973652 233.853964 
L 329.137771 234.341856 
L 329.301889 234.148816 
L 329.466008 233.539366 
L 329.794244 234.854109 
L 329.958363 234.117406 
L 330.122481 234.2508 
L 330.2866 234.692486 
L 330.614837 234.036477 
L 330.943073 234.310523 
L 331.107192 233.786507 
L 331.27131 233.882848 
L 331.435429 234.235925 
L 331.763665 233.793063 
L 332.256021 234.490654 
L 332.420139 234.170197 
L 332.584258 234.314921 
L 332.748376 234.200294 
L 332.912494 233.709689 
L 333.076613 233.96007 
L 333.240731 234.534295 
L 333.40485 234.552178 
L 333.733087 233.904553 
L 333.897205 233.675984 
L 334.225442 234.244245 
L 334.38956 233.78949 
L 334.553679 233.677606 
L 334.717797 234.100565 
L 334.881916 233.926796 
L 335.046034 233.526604 
L 335.210152 234.131564 
L 335.866626 233.252144 
L 336.030744 233.83277 
L 336.358981 233.094795 
L 336.5231 233.88508 
L 336.687218 233.98621 
L 336.851337 233.607339 
L 337.179573 233.894658 
L 337.343692 233.73942 
L 337.671929 234.539622 
L 337.836047 234.183196 
L 338.000166 233.468672 
L 338.328402 234.769604 
L 338.492521 234.476523 
L 338.656639 234.625677 
L 338.984876 234.53652 
L 339.313113 234.554161 
L 339.64135 234.197596 
L 339.805468 234.675934 
L 339.969587 234.661263 
L 340.133705 234.291771 
L 340.461942 234.427472 
L 340.62606 234.645768 
L 341.118416 234.570058 
L 341.446652 234.805611 
L 341.774889 234.324701 
L 342.103126 234.525993 
L 342.431363 234.137103 
L 342.595481 234.616291 
L 342.7596 234.456142 
L 343.087837 233.765732 
L 343.251955 234.485977 
L 343.416073 234.281199 
L 343.580192 233.823793 
L 343.74431 233.736395 
L 343.908429 233.798148 
L 344.072547 234.27937 
L 344.236666 233.450246 
L 344.400784 233.551466 
L 344.564902 234.148525 
L 344.729021 233.869794 
L 345.385495 234.365485 
L 345.549613 234.240791 
L 345.713731 234.463741 
L 345.87785 234.497501 
L 346.206087 233.905181 
L 346.534324 234.287515 
L 346.698442 234.162473 
L 346.86256 234.328725 
L 347.026679 234.798669 
L 347.190797 234.164404 
L 347.519034 235.045571 
L 347.683152 234.593453 
L 348.011389 235.079159 
L 348.175508 234.722387 
L 348.339626 235.039574 
L 348.667863 234.568179 
L 348.9961 234.781619 
L 349.160218 234.748235 
L 349.324337 234.357192 
L 349.488455 234.694726 
L 349.652574 234.456894 
L 349.816692 234.535506 
L 349.98081 234.757721 
L 350.473166 233.709378 
L 350.637284 234.664547 
L 350.965521 233.478739 
L 351.129639 234.428033 
L 351.293758 234.082657 
L 351.457876 233.31915 
L 351.621995 233.400019 
L 351.786113 234.487514 
L 352.11435 233.550945 
L 352.278468 234.151233 
L 352.442587 233.797478 
L 352.606705 233.950868 
L 352.770824 234.551174 
L 353.09906 233.649603 
L 353.591416 234.199063 
L 353.919653 233.641816 
L 354.412008 234.35415 
L 354.576126 233.535001 
L 354.740245 233.354105 
L 355.068482 234.353079 
L 355.2326 234.173683 
L 355.396718 233.552447 
L 355.724955 234.569012 
L 355.889074 233.900613 
L 356.053192 234.10067 
L 356.21731 234.79326 
L 356.381429 233.580097 
L 356.545547 233.645683 
L 356.709666 234.486081 
L 356.873784 233.986947 
L 357.037903 234.272523 
L 357.202021 233.963757 
L 357.366139 234.180383 
L 357.530258 234.18126 
L 357.694376 233.503312 
L 357.858495 234.118219 
L 358.022613 234.095529 
L 358.186732 233.907306 
L 358.35085 233.495996 
L 358.679087 234.167638 
L 359.007324 234.178624 
L 359.171442 234.055157 
L 359.335561 234.216941 
L 359.663797 233.95251 
L 359.992034 234.440464 
L 360.156153 233.997069 
L 360.484389 234.782874 
L 360.648508 234.221085 
L 360.812626 234.208502 
L 361.140863 234.857647 
L 361.4691 234.092759 
L 361.797337 234.802995 
L 362.125574 234.020062 
L 362.453811 234.000691 
L 362.617929 233.880752 
L 362.782047 233.485618 
L 363.110284 234.607481 
L 363.438521 233.857435 
L 363.60264 233.605879 
L 363.766758 233.724141 
L 363.930876 234.277097 
L 364.259113 233.257842 
L 364.58735 234.326801 
L 364.751468 233.634476 
L 364.915587 233.652156 
L 365.079705 234.431317 
L 365.243824 234.397208 
L 365.407942 233.680758 
L 365.572061 233.681947 
L 365.736179 233.984002 
L 365.900297 233.930693 
L 366.064416 233.561789 
L 366.228534 234.013857 
L 366.556771 234.078808 
L 366.885008 234.655336 
L 367.049126 234.294208 
L 367.213245 234.585955 
L 367.377363 234.257438 
L 367.541482 234.666952 
L 367.7056 234.479912 
L 367.869718 234.747856 
L 368.033837 234.033614 
L 368.197955 234.471647 
L 368.362074 234.160423 
L 368.690311 234.832932 
L 369.018547 234.269109 
L 369.182666 234.407589 
L 369.346784 234.365126 
L 369.510903 233.965666 
L 370.003258 234.672356 
L 370.331495 234.357364 
L 370.495613 234.92553 
L 370.82385 234.360264 
L 370.987969 234.09397 
L 371.152087 234.039873 
L 371.480324 235.09837 
L 371.644442 234.50757 
L 371.808561 234.474298 
L 371.972679 235.135438 
L 372.136797 235.203695 
L 372.300916 234.629108 
L 372.629153 235.219744 
L 372.95739 234.495286 
L 373.285626 234.24942 
L 373.449745 234.746872 
L 373.613863 234.809388 
L 373.777982 234.724016 
L 374.106219 234.94342 
L 374.270337 235.347273 
L 374.598574 234.61055 
L 374.762692 235.150139 
L 374.926811 234.970128 
L 375.090929 235.102389 
L 375.255048 234.453737 
L 375.419166 234.903152 
L 375.747403 234.858247 
L 375.911521 234.489288 
L 376.07564 234.449491 
L 376.239758 234.694821 
L 376.403876 234.082057 
L 376.732113 234.693535 
L 376.896232 233.740723 
L 377.06035 234.089245 
L 377.224469 234.96371 
L 377.552705 234.455287 
L 377.716824 234.53797 
L 378.045061 234.951428 
L 378.209179 234.551505 
L 378.373298 234.772462 
L 378.537416 235.23737 
L 378.865653 234.289023 
L 379.029771 234.606509 
L 379.19389 235.242677 
L 379.358008 234.271297 
L 379.522127 234.273898 
L 379.686245 234.440227 
L 379.850363 234.331017 
L 380.1786 233.984981 
L 380.342719 234.35498 
L 380.506837 234.181452 
L 380.835074 234.703858 
L 381.163311 233.793033 
L 381.491548 235.028142 
L 381.655666 234.653788 
L 381.819784 234.699909 
L 382.148021 234.204709 
L 382.31214 234.532735 
L 382.476258 234.344988 
L 382.640377 234.464613 
L 382.804495 233.892067 
L 383.132732 234.838321 
L 383.29685 234.514399 
L 383.460969 233.912449 
L 383.625087 234.017523 
L 383.789206 234.418024 
L 383.953324 234.386676 
L 384.117442 234.215249 
L 384.281561 234.359562 
L 384.445679 234.303783 
L 384.773916 234.731541 
L 384.938034 233.842368 
L 385.102153 233.928802 
L 385.266271 234.575615 
L 385.43039 234.737508 
L 385.758627 233.935918 
L 385.922745 234.988397 
L 386.250982 234.022349 
L 386.4151 234.032597 
L 386.579219 234.188489 
L 386.743337 233.975129 
L 387.071574 234.380831 
L 387.235692 233.616767 
L 387.563929 234.203192 
L 387.728048 233.568232 
L 388.056285 234.098208 
L 388.54864 233.85161 
L 388.876877 234.675842 
L 389.040995 234.076159 
L 389.369232 234.831554 
L 389.697469 233.600499 
L 389.861587 234.146315 
L 390.025706 234.243729 
L 390.189824 234.485947 
L 390.353942 233.892239 
L 390.518061 233.926447 
L 390.682179 233.71101 
L 390.846298 233.982956 
L 391.174535 233.878729 
L 391.338653 234.235384 
L 391.502771 234.32195 
L 391.66689 233.889012 
L 391.995127 234.145582 
L 392.323363 234.784554 
L 392.487482 234.602893 
L 392.6516 234.604231 
L 392.815719 235.113544 
L 392.979837 234.932609 
L 393.143956 234.522467 
L 393.308074 234.663523 
L 393.472192 235.116053 
L 393.800429 234.247242 
L 393.964548 234.364436 
L 394.128666 234.918272 
L 394.456903 234.491374 
L 394.621021 234.732822 
L 394.78514 234.446265 
L 395.277495 234.757698 
L 395.441614 234.670929 
L 395.605732 234.719192 
L 395.76985 234.9511 
L 395.933969 234.580421 
L 396.262206 235.023388 
L 396.590442 234.52994 
L 396.754561 235.072043 
L 397.082798 234.376642 
L 397.246916 234.311797 
L 397.411035 234.481332 
L 397.575153 234.959125 
L 397.90339 233.995673 
L 398.231627 234.785847 
L 398.395745 234.15677 
L 398.8881 235.137153 
L 399.216337 234.331184 
L 399.380456 234.404796 
L 399.544574 235.030683 
L 399.708693 234.980576 
L 399.872811 234.390434 
L 400.201048 235.335201 
L 400.529285 234.513941 
L 400.693403 234.718955 
L 400.857521 234.698509 
L 401.185758 235.201849 
L 401.513995 234.481415 
L 401.678114 235.176571 
L 401.842232 234.887946 
L 402.00635 234.262504 
L 402.170469 234.989267 
L 402.334587 235.122885 
L 402.662824 234.323642 
L 402.826943 234.713225 
L 402.991061 234.634002 
L 403.155179 234.243871 
L 403.319298 234.687162 
L 403.483416 234.607421 
L 403.647535 234.848535 
L 403.975772 234.566161 
L 404.13989 234.62202 
L 404.304008 234.494685 
L 404.468127 234.645915 
L 404.632245 234.488277 
L 404.796364 234.664714 
L 404.796364 234.664714 
" style="fill:none;stroke:#1f77b4;stroke-linecap:square;stroke-width:1.5;"/>
   </g>
   <g id="patch_3">
    <path d="M 60.32 246.04 
L 60.32 10.8 
" style="fill:none;stroke:#000000;stroke-linecap:square;stroke-linejoin:miter;stroke-width:0.8;"/>
   </g>
   <g id="patch_4">
    <path d="M 421.2 246.04 
L 421.2 10.8 
" style="fill:none;stroke:#000000;stroke-linecap:square;stroke-linejoin:miter;stroke-width:0.8;"/>
   </g>
   <g id="patch_5">
    <path d="M 60.32 246.04 
L 421.2 246.04 
" style="fill:none;stroke:#000000;stroke-linecap:square;stroke-linejoin:miter;stroke-width:0.8;"/>
   </g>
   <g id="patch_6">
    <path d="M 60.32 10.8 
L 421.2 10.8 
" style="fill:none;stroke:#000000;stroke-linecap:square;stroke-linejoin:miter;stroke-width:0.8;"/>
   </g>
  </g>
 </g>
 <defs>
  <clipPath id="p27f64da963">
   <rect height="235.24" width="360.88" x="60.32" y="10.8"/>
  </clipPath>
 </defs>
</svg>
